<?xml version="1.0" standalone="no"?>
<!DOCTYPE svg PUBLIC "-//W3C//DTD SVG 1.1//EN" "http://www.w3.org/Graphics/SVG/1.1/DTD/svg11.dtd" >
<svg xmlns="http://www.w3.org/2000/svg">
<metadata>
This is a custom SVG webfont generated by Font Squirrel.
Copyright   : Copyright c 20042008 SIL International httpwwwsilorg Licensed under the SIL Open Font License Version 11 httpscriptssilorgOFL with Reserved Font Names Andika and SIL
Designer    : Annie Olsen  Victor Gaultney
Foundry     : SIL International
Foundry URL : httpscriptssilorg
</metadata>
<defs>
<font id="webfontKCyB1YqJ" horiz-adv-x="1198" >
<font-face units-per-em="2048" ascent="1638" descent="-410" />
<missing-glyph horiz-adv-x="548" />
<glyph unicode=" "  horiz-adv-x="548" />
<glyph unicode="&#x09;" horiz-adv-x="548" />
<glyph unicode="&#xa0;" horiz-adv-x="548" />
<glyph unicode="!" horiz-adv-x="763" d="M225 111q0 25 11 51q8 23 28 43q23 23 43 31q27 10 53 10q25 0 52 -10q20 -8 42.5 -31t30.5 -43q10 -27 11 -51q0 -27 -11 -54q-8 -20 -30 -43q-20 -20 -43 -28q-27 -10 -52 -11q-27 0 -53 11q-23 8 -43 28.5t-28 42.5q-11 27 -11 54zM236 1509h253q-14 -143 -20 -309 q-2 -25 -6 -126l-6 -152q-4 -176 -4 -254q0 -156 -2 -228h-177q-4 143 -4 228q0 78 -4 254q-2 74 -10 278q-6 166 -20 309z" />
<glyph unicode="&#x22;" horiz-adv-x="1024" d="M240 1585h204q-12 -94 -18 -168q-8 -109 -10 -141q-4 -72 -6 -121q0 -18 -1 -55t-3 -56h-125l-5 111q-2 49 -6 121l-6 75t-6 66q-6 74 -18 168zM580 1585h204q-8 -55 -16 -168q-2 -16 -6 -66.5l-6 -74.5q-4 -72 -6 -121q0 -18 -1 -55t-4 -56h-124l-5 111q-2 49 -6 121 l-6 75t-6 66q-6 74 -18 168z" />
<glyph unicode="#" d="M25 575v150h251l68 236h-260v149h303l100 350h150l-100 -350h274l100 350h152l-100 -350h213v-149h-256l-68 -236h264v-150h-307l-107 -374h-149l106 374h-274l-109 -374h-149l106 374h-208zM426 725h276l66 236h-274z" />
<glyph unicode="$" d="M154 125l41 188q82 -72 174 -110q84 -35 184 -41v487l-12 4q-106 31 -176 72t-107 84t-53 96q-14 49 -15 113q0 53 21 112q20 57 65 113q41 49 113 92q61 35 164 49v215h129v-213q86 -6 156 -24q71 -18 147 -55l-37 -181q-90 51 -139 68q-61 20 -127 31v-434 q86 -27 155.5 -62t114.5 -80t70 -104q25 -57 25 -131q0 -80 -29 -150q-29 -68 -76 -119q-55 -57 -115 -88q-68 -33 -145 -49v-227h-129v219q-63 4 -121 12q-39 6 -108 27q-49 14 -95 37q-26 12 -75 49zM365 1030q0 -25 8 -57q8 -29 26 -51q20 -25 58 -45q39 -23 96 -43v389 q-41 -8 -78 -28.5t-59.5 -43.5t-36.5 -57q-14 -37 -14 -64zM682 174q45 14 76 31q35 18 59 47q23 27 39 63q14 35 14 80q0 28 -6 56q-6 27 -28 53q-27 29 -56 49q-37 25 -98 49v-428z" />
<glyph unicode="%" horiz-adv-x="1525" d="M100 1077q0 102 23 183q20 76 61 124q41 51 95 72q63 25 120 25q63 0 118.5 -22.5t92.5 -72.5q39 -53 60 -120q20 -70 20 -176q0 -109 -22 -189q-20 -76 -62 -125q-39 -49 -94 -69q-57 -23 -123 -23q-63 0 -118.5 22.5t-92.5 69.5q-35 43 -57 121q-21 69 -21 180z M264 1092q0 -57 8 -127q4 -43 25 -82q16 -35 39 -45q25 -12 57.5 -12.5t57.5 12.5q27 12 41 43q16 33 24 77q8 43 8 117q0 78 -6 127q-6 41 -24 80q-16 33 -41 45t-60 12q-31 0 -55 -12q-27 -12 -41 -43q-16 -31 -25 -76q-8 -40 -8 -116zM291 -25l782 1506h166l-780 -1506 h-168zM836 369q0 102 22 182q20 76 61.5 125t96.5 72q57 23 119 22q66 0 121 -22.5t90 -69.5q39 -51 59 -123q20 -70 20 -176q0 -109 -22 -189q-20 -76 -62 -124q-39 -49 -94 -70q-53 -20 -121 -21q-72 0 -120 21q-51 20 -91 70q-37 47 -59 122q-20 70 -20 181zM1001 381 q0 -74 7 -125q6 -45 24 -84q14 -31 41 -43q29 -14 57 -14q27 0 56 14q27 12 41 43q18 39 26 78q8 43 9 117q0 59 -9 125q-6 49 -22 81q-14 31 -41 43q-29 14 -60 15q-29 0 -57 -15q-27 -14 -41 -41q-12 -23 -22 -77q-9 -41 -9 -117z" />
<glyph unicode="&#x26;" horiz-adv-x="1220" d="M55 375q0 53 17 108q12 43 51 107q23 39 88 110q53 59 127 127q-39 49 -72 97q-37 51 -59 92q-16 31 -37 88q-14 41 -14 86q0 88 28 139q35 63 78 92q49 33 109 49q55 14 118 15q55 0 111 -19q51 -16 96 -55q43 -37 68 -90q27 -57 27 -121q0 -41 -19 -88q-20 -49 -49 -96 q-23 -35 -76 -101q-29 -35 -96 -102l49 -65l49 -68q8 -12 111 -156l96 -131q51 57 72 90q33 49 47 86l104 -135q-23 -47 -47 -80q-35 -47 -74 -90q72 -84 125.5 -131t92.5 -63l-35 -29l-41 -31q-25 -18 -41 -24q-25 -10 -35 -11q-20 0 -66 45q-47 47 -114 134 q-29 -25 -94 -70q-47 -33 -101 -57q-35 -16 -104 -37q-49 -14 -105 -15q-84 0 -155 31q-70 31 -121 84q-53 57 -80 127q-29 76 -29 158zM229 381q0 -39 17 -84q14 -37 43 -74q25 -31 69 -53q41 -20 97 -20q29 0 65.5 10t73.5 28.5t74 42.5q25 16 73 54l-98 133l-108 151 l-52 70l-51 68q-39 -35 -94 -95q-33 -35 -62 -82q-20 -35 -34 -75q-13 -37 -13 -74zM315 1200q0 -55 39 -119q55 -90 99 -143q84 86 131 149q47 66 47 117q0 29 -15 62q-10 25 -34 45q-23 20 -50 28q-31 10 -57 10.5t-57 -10.5q-25 -8 -51 -30q-20 -18 -37 -47 q-15 -27 -15 -62z" />
<glyph unicode="'" horiz-adv-x="604" d="M201 1585h205q-12 -94 -19 -168q-8 -109 -10 -141l-5 -65t-3 -56q0 -18 -1 -55t-3 -56h-125l-4 111q-2 49 -7 121q-2 33 -10 141q-6 74 -18 168z" />
<glyph unicode="(" horiz-adv-x="794" d="M115 625q0 156 32 315q31 156 89 283q59 133 139 237q82 106 180 180l76 -155q-90 -78 -152 -170q-57 -84 -100 -203q-39 -102 -57 -231q-16 -109 -17 -256q0 -143 17 -250q18 -123 57 -230q41 -113 100 -211q63 -104 152 -198l-96 -146q-207 217 -314 471 q-106 257 -106 564z" />
<glyph unicode=")" horiz-adv-x="794" d="M166 -264q82 94 145 198q59 98 101 211q43 117 59 230q18 121 18 250q0 125 -18 247q-16 115 -59 232t-101 207q-63 98 -145 174l74 155q98 -74 180 -180q80 -104 139 -237q59 -137 90 -283q31 -150 31 -315q0 -307 -107 -564q-106 -254 -313 -471z" />
<glyph unicode="*" horiz-adv-x="1026" d="M125 1339l76 125l73 -51l64 -43l57 -37l56 -33q0 25 -5 66q0 8 -3 29.5l-5 36.5q-2 25 -10 77q-6 41 -12 90h143q-4 -27 -8 -90q-4 -53 -6 -77q-4 -49 -4 -66v-66l55 37l55 39q16 10 31.5 23.5t30.5 23.5q33 25 71 58l70 -125q-45 -20 -82 -39l-70 -35q-10 -4 -27.5 -12 t-33.5 -19q-43 -25 -55 -30l57 -29q12 -6 35.5 -16.5t28.5 -12.5l71 -30l43 -16.5l43 -16.5l-73 -125l-76 51l-64 43l-21 14.5t-15.5 10.5t-18.5 12l-24.5 15t-30.5 20q0 -43 2 -66l6 -69q4 -49 8 -76q2 -8 5 -40t7 -50h-139q4 61 8 92q2 27 6.5 76t4.5 67q0 10 1 32.5 t1 33.5l-56 -37l-27.5 -20.5l-27.5 -20.5l-64 -47l-71 -55l-70 124l82 37l70 35q12 6 22 11.5t18.5 8.5t20.5 11l58 33q-10 6 -32 15t-28 13q-12 6 -35.5 16.5t-27.5 12.5q-33 14 -72 29z" />
<glyph unicode="+" d="M156 659v152h368v369h152v-369h368v-152h-368v-374h-152v374h-368z" />
<glyph unicode="," horiz-adv-x="649" d="M184 49v101q6 25 19 43q10 16 32.5 30.5t40.5 20.5q22 6 43 6q29 0 58 -12q27 -12 45 -33q18 -23 31 -51q12 -31 12 -68q0 -94 -43 -182q-45 -94 -131 -174l-101 41q12 12 46 53q8 10 43 70q18 33 32 77q14 47 15 78h-142z" />
<glyph unicode="-" horiz-adv-x="858" d="M80 555v150h700v-150h-700z" />
<glyph unicode="." horiz-adv-x="638" d="M184 111q0 25 11 51q8 20 30.5 42.5t42.5 31.5q27 10 51 10q27 0 54 -10q20 -8 43 -31q20 -20 28 -43q10 -27 11 -51q0 -27 -11 -54q-8 -23 -28.5 -43t-42.5 -28q-27 -10 -54 -11q-25 0 -51 11q-23 8 -43 28q-23 23 -30 43q-11 27 -11 54z" />
<glyph unicode="/" horiz-adv-x="999" d="M10 -246l830 1845h149l-829 -1845h-150z" />
<glyph unicode="0" d="M90 721q0 205 41 356q39 145 111 236q74 92 166 131q98 41 202 41q111 0 201 -39t157.5 -129t104.5 -230q37 -141 37 -348q0 -215 -41 -366q-39 -145 -111 -236q-70 -88 -164 -125t-204 -37q-109 0 -201 37q-90 35 -158 123q-68 86 -104 230q-37 144 -37 356zM291 745 q0 -172 20 -280q23 -119 60 -184q43 -76 98 -105q59 -31 131 -31q71 0 129 31q57 31 98 100q39 66 62 179q20 102 20 260q0 182 -18 280q-23 119 -60 185q-43 76 -98 104q-57 31 -133 31q-71 0 -129 -31q-57 -31 -98 -100q-39 -66 -62 -178q-20 -103 -20 -261z" />
<glyph unicode="1" d="M211 1268l344 213h170v-1311h315v-170h-821v170h316v1090l-299 -173z" />
<glyph unicode="2" d="M121 0v170q84 61 145 113q68 57 154 139q77 74 147 153q49 57 123 162q53 76 88 160q33 78 33 147q0 72 -25 121q-25 47 -65 80q-39 31 -90 45q-49 14 -107 15q-45 0 -94 -13q-43 -10 -96 -39q-39 -20 -88 -59q-41 -31 -76 -74l-45 170q31 41 78 78q39 31 106 62 q49 23 123 40q59 14 127 15q94 0 172 -29q86 -31 143 -84q61 -55 99 -133q37 -76 37 -174q0 -84 -31 -170q-33 -90 -82 -172q-53 -88 -115 -164q-53 -66 -135 -151l-135 -134l-123 -108h256h139q23 0 64 1t59 1q41 0 99 4q51 4 73 8v-180h-958z" />
<glyph unicode="3" d="M111 139l24 215q39 -45 88 -84q39 -31 101 -63q53 -29 112 -43q57 -14 129 -14q58 0 117 18q63 20 106 51q45 33 76 86q31 51 31 121q0 61 -31 111q-29 47 -88 86q-51 35 -133 57q-74 20 -164 20h-69v170h69q80 0 144 21q68 22 116 55q47 33 80 78q31 43 31 90 q0 53 -23 88q-25 37 -61 62q-31 20 -84 34q-46 12 -92 13q-66 0 -109 -8q-51 -10 -94 -27q-51 -20 -88 -47q-37 -25 -84 -74l-35 170q29 31 74 64q41 29 94 51q47 18 111 33q57 12 121 12q92 0 176 -25q83 -25 147 -67q61 -41 101 -109q37 -63 36 -143q0 -68 -30 -127 q-33 -61 -76 -103q-49 -45 -104.5 -71.5t-108.5 -38.5q12 -2 76 -21q45 -12 82 -32q45 -25 79 -54q37 -31 68 -73q27 -39 47 -95q16 -47 17 -120q0 -84 -46 -168q-39 -72 -118 -136q-76 -61 -174 -94q-96 -33 -207 -33q-137 0 -245.5 45t-188.5 119z" />
<glyph unicode="4" d="M90 395v156l655 930h191v-930h188v-156h-188v-395h-191v395h-655zM262 551h483v680z" />
<glyph unicode="5" d="M129 80l31 211q57 -47 94 -68q45 -25 88 -41q37 -14 90 -20q46 -6 98 -6q78 0 137.5 20.5t106.5 61.5t71.5 98t24.5 133t-34 129q-37 55 -86 88q-52 34 -117 49q-59 14 -123 15q-51 0 -76 -2l-74 -13q-29 -4 -79 -20q-40 -12 -86 -31v776h804v-190q-66 14 -114 16 q-78 4 -119 4h-385v-370q20 2 65 6q57 4 99 4q113 0 203 -33q92 -35 161 -94q72 -61 111 -144q41 -86 41 -184q0 -117 -41 -211q-41 -96 -113 -158q-74 -65 -172 -98q-96 -33 -217 -33q-76 0 -108 5q-51 6 -97 18q-57 14 -92 33q-61 31 -92 49z" />
<glyph unicode="6" d="M111 680q0 94 12 188q12 90 41 185q25 80 76 168q43 76 114 137q68 58 160 92q94 35 211 35q31 0 84 -4q27 -2 76 -15q33 -8 73 -28q20 -10 74 -43l-43 -195q-63 63 -133 86q-78 25 -141 25q-83 0 -154 -31q-70 -31 -127 -100q-49 -59 -86 -181q-35 -115 -41 -266 q74 74 162 117q94 45 197 45q104 0 186 -30.5t143 -88.5q57 -53 88 -135q31 -80 31 -172q0 -113 -37 -205q-37 -90 -104.5 -155.5t-161.5 -98.5q-98 -35 -211 -35q-119 0 -207 47.5t-153 141.5q-63 90 -97 221q-32 129 -32 295zM307 582q6 -82 29 -164q23 -80 61.5 -137.5 t98.5 -94.5q58 -37 135 -36q63 0 119 22q57 23 92 61q37 39 57 91q20 49 21 110q0 70 -19 121q-18 53 -51 88t-86 57q-49 20 -119 21q-100 0 -190 -39q-89 -37 -148 -100z" />
<glyph unicode="7" d="M100 1276v184h990v-160q-217 -297 -377 -630q-150 -309 -252 -670h-187q33 119 84 266l86 236q49 127 93 215l100 198q52 98 111 191q16 27 122 188h-391q-109 0 -231 -4q-95 -4 -148 -14z" />
<glyph unicode="8" d="M90 406q0 74 23 137q20 61 59 108q33 41 84 82q47 39 94 62q-31 16 -63 41q-37 27 -65.5 61.5t-51.5 87.5q-20 49 -20 121q0 90 40 162q39 70 105 118q65 49 147 74t168 25t166 -25q76 -23 139 -74q61 -49 99 -118q37 -72 37 -162q0 -63 -21 -119q-18 -49 -49 -86 q-37 -43 -63 -63l-64 -43q40 -22 86 -56q49 -37 84 -82q37 -51 61 -112q25 -66 25 -139q0 -102 -43 -183q-43 -78 -114.5 -135t-164.5 -84q-96 -29 -188 -29t-188 29q-88 27 -162 84q-76 59 -117 135q-43 81 -43 183zM291 426q0 -63 22 -119q20 -51 63.5 -88t98.5 -55.5 t125 -18.5q68 0 123 18.5t98 55.5q41 35 66 88q23 47 22 119q0 68 -22 115q-27 57 -66 90q-41 35 -98 57.5t-123 22.5q-68 0 -125 -22.5t-98 -57.5t-63.5 -90.5t-22.5 -114.5zM340 1106q0 -63 20 -105q25 -51 56 -75q35 -29 84 -45.5t100 -16.5t100.5 16.5t83.5 45.5 q31 25 56 75q20 41 20 105q0 55 -20.5 96t-55.5 68q-39 29 -84 41q-53 14 -100 14t-100 -14q-45 -12 -84 -41q-35 -27 -55.5 -68t-20.5 -96z" />
<glyph unicode="9" d="M113 1001q0 113 41 205q41 90 110 152q72 61 160 94q90 33 192 33q119 0 209 -51.5t156 -145.5q65 -92 98 -221q35 -133 35 -287q0 -92 -12 -188q-12 -90 -41 -184q-25 -80 -76 -168q-43 -76 -114.5 -137.5t-159.5 -94.5q-90 -33 -209 -33q-31 0 -84 5q-27 2 -76 14 q-41 10 -74 26q-14 6 -75 46l45 194q33 -31 65 -53q37 -25 68 -35q20 -8 69 -16q35 -6 72 -6q80 0 156 32q72 31 125 103q52 71 86 184q33 109 39 279q-70 -70 -164 -117q-90 -45 -195 -45q-106 0 -186 32q-82 33 -142 91q-57 55 -88 131q-30 77 -30 161zM305 1036.5 q0 -63.5 23 -118.5q23 -53 57 -87q37 -35 88 -53q49 -18 111 -18q51 0 96 12q57 14 88 31q43 22 80 49q35 27 65 63q-10 92 -28 152q-20 66 -60 125q-35 53 -94 86t-135 33q-70 0 -119 -21q-59 -25 -92 -57q-39 -39 -59.5 -86t-20.5 -110.5z" />
<glyph unicode=":" horiz-adv-x="638" d="M184 111q0 25 11 51q8 20 30.5 42.5t42.5 31.5q27 10 51 10q27 0 54 -10q20 -8 43 -31q20 -20 28 -43q10 -27 11 -51q0 -27 -11 -54q-8 -23 -28.5 -43t-42.5 -28q-27 -10 -54 -11q-25 0 -51 11q-23 8 -43 28q-23 23 -30 43q-11 27 -11 54zM184 791q0 25 11 51 q8 20 30.5 42.5t42.5 30.5q27 10 51 11q27 0 54 -11q20 -8 43 -30q20 -20 28 -43q10 -27 11 -51q0 -27 -11 -54q-8 -23 -28.5 -43t-42.5 -28q-27 -10 -54 -11q-25 0 -51 11q-23 8 -43 28q-23 23 -30 43q-11 27 -11 54z" />
<glyph unicode=";" horiz-adv-x="649" d="M184 49v101q6 25 19 43q10 16 32.5 30.5t40.5 20.5q22 6 43 6q29 0 58 -12q27 -12 45 -33q18 -23 31 -51q12 -31 12 -68q0 -94 -43 -182q-45 -94 -131 -174l-101 41q12 12 46 53q8 10 43 70q18 33 32 77q14 47 15 78h-142zM184 791q0 25 11 51q8 20 30.5 42.5t42.5 30.5 q27 10 51 11q27 0 54 -11q20 -8 43 -30q20 -20 28 -43q10 -27 11 -51q0 -27 -11 -54q-8 -23 -28.5 -43t-42.5 -28q-27 -10 -54 -11q-25 0 -51 11q-23 8 -43 28q-23 23 -30 43q-11 27 -11 54z" />
<glyph unicode="&#x3c;" d="M100 645v170l979 399v-180l-788 -305l788 -303v-180z" />
<glyph unicode="=" d="M121 479v152h958v-152h-958zM121 829v152h958v-152h-958z" />
<glyph unicode="&#x3e;" d="M121 246v180l788 303l-788 305v180l979 -399v-170z" />
<glyph unicode="?" horiz-adv-x="1048" d="M139 1430q23 23 62 45q31 18 78 34q31 10 88 23q41 8 94 8q86 0 157 -22q74 -23 115 -60q49 -43 72 -94q25 -55 24 -125q0 -46 -12 -86q-10 -31 -37 -78q-18 -33 -53 -74l-61 -73q-39 -45 -64 -88q-29 -49 -39 -97q-12 -53 -18 -125q-4 -49 -4 -178h-187q0 117 8 191 q8 80 25 145q14 59 41 112.5t57 92.5l60 76q29 39 43 63q23 39 28 56q8 25 9 55q0 23 -8.5 45t-33 42.5t-59.5 33.5q-43 14 -92 14q-57 0 -125 -29q-70 -31 -123 -86zM315 111q0 25 11 51q8 23 28 43q23 23 43 31q27 10 54 10q25 0 51 -10q20 -8 42.5 -31t30.5 -43 q10 -27 11 -51q0 -27 -11 -54q-8 -20 -30 -43q-20 -20 -43 -28q-27 -10 -51 -11q-27 0 -54 11q-23 8 -43 28.5t-28 42.5q-11 27 -11 54z" />
<glyph unicode="@" horiz-adv-x="1701" d="M94 573q0 139 31 254q33 119 82 207q51 92 125 162q74 71 160 117q88 47 186 71q90 23 203 23q156 0 293 -51q131 -49 229 -144q102 -98 151 -223q53 -135 54 -291q0 -119 -33 -221q-33 -100 -82 -162q-57 -70 -115 -100q-66 -35 -131 -35q-45 0 -78 17q-31 15 -55 43 q-20 25 -41 63q-12 25 -33 78q-35 -45 -65 -76q-41 -41 -74 -63q-43 -31 -80 -43q-45 -16 -86 -17q-49 0 -100 23q-53 23 -92 65q-41 45 -66 109q-25 65 -24 153q0 98 20 168q18 66 57 136q61 102 143.5 153t207.5 51q18 0 67 -4q35 -2 76 -12q45 -10 78 -20l72 -23v-350 q0 -104 8 -160q10 -68 22 -94q16 -37 33 -47q18 -12 40.5 -12.5t57.5 22.5q33 20 61.5 65.5t47 109t18.5 155.5q0 123 -37 233q-35 102 -112 191q-72 82 -187 129q-113 47 -258 47q-123 0 -237.5 -49.5t-200.5 -135.5t-139 -211q-51 -121 -51 -272q0 -162 49 -291 q49 -131 135 -219q88 -92 199 -139q109 -47 245 -47q72 0 140 20q80 25 137 66l104 -111q-39 -27 -84 -47q-46 -22 -98 -37q-31 -10 -106 -22q-47 -8 -105 -8q-141 0 -283 53q-135 51 -243 153q-104 98 -170 251.5t-66 348.5zM602 573q0 -57 14 -114q12 -49 33 -78 q25 -33 45 -47q23 -14 54 -15q33 0 73 23q35 18 78 55q39 33 72 78q31 41 53 94v301q-29 14 -72 23q-55 10 -104 10q-27 0 -51 -6q-31 -8 -52 -20q-33 -20 -49 -37q-23 -23 -45 -62t-35 -92q-14 -64 -14 -113z" />
<glyph unicode="A" horiz-adv-x="1394" d="M41 0l27 63l30 74q8 20 16.5 44l18.5 50l47 123l400 1106h215l399 -1106l45 -123q12 -31 22.5 -54t16.5 -40l31 -74l26 -63h-205l-137 385h-614l-133 -385h-205zM432 541h508l-256 725z" />
<glyph unicode="B" horiz-adv-x="1284" d="M160 0q8 37 10 78q4 61 4 104v129v832v131q0 43 -4 108q-2 39 -10 78q12 2 39.5 3t42.5 1q66 4 108 4q18 0 59.5 1t63.5 1h127q113 0 199 -18t145.5 -59t90 -108.5t30.5 -164.5q0 -66 -18 -114q-16 -45 -53.5 -88.5t-78.5 -69.5q-45 -29 -96 -47q58 -15 117 -43 q57 -27 102 -70q43 -41 74 -110q29 -68 29 -158t-31 -170q-29 -76 -94 -135q-65 -58 -166 -92q-98 -33 -246 -33q-25 0 -77 1t-78 1q-57 0 -144 4q-25 0 -72.5 1t-72.5 3zM365 156q4 0 17 -1t21.5 -1t27 -1t28.5 -1t33.5 -1t37.5 -1h80q53 0 125 14q59 12 107 43 q49 33 75.5 84t26.5 129q0 139 -84 209q-88 72 -260 71h-235v-544zM365 854h194q80 0 139 18q63 20 97 48q39 33 57 75.5t18 94.5q0 53 -16 98t-49 72q-31 25 -86 40q-49 14 -129 15h-62q-12 0 -32.5 -1t-30.5 -1t-29.5 -1t-27.5 -1h-43v-457z" />
<glyph unicode="C" horiz-adv-x="1353" d="M94 711q0 188 58 338q53 139 149 241q88 94 215 146q123 49 254 49q55 0 111 -6q41 -4 112 -25q59 -16 113 -43q57 -29 108 -65l-59 -181q-47 45 -96 72q-43 25 -98 45q-51 18 -97 25q-66 8 -94 8q-102 0 -192 -37q-88 -37 -152 -109q-61 -72 -100 -182 q-35 -102 -35 -252q0 -117 31 -223q31 -111 90 -186.5t147 -126.5q86 -49 201 -49q47 0 114 14q59 12 115 37q63 29 109 57q41 27 92 78l41 -197q-41 -39 -105 -71q-53 -29 -122 -52q-63 -20 -132 -30q-72 -10 -122 -11q-156 0 -273 52q-121 53 -207 147q-80 90 -129 232 q-47 137 -47 305z" />
<glyph unicode="D" horiz-adv-x="1433" d="M160 0q4 23 8 78q4 61 4 104q0 18 1 61.5t1 67.5v144v688v131q0 43 -4 108q-2 39 -10 78q20 0 53 2q10 0 33.5 1t38.5 1q12 0 40.5 1t43 1t43 1t43.5 1q23 0 44 1t42 1h73q23 0 93 -4q35 -2 108 -18q57 -12 115 -37q61 -27 114 -61q59 -41 107 -93q47 -53 84 -127 q39 -76 59 -169q20 -90 21 -222q0 -152 -33 -262q-35 -117 -88 -196q-57 -84 -129 -140q-78 -57 -154 -90q-72 -31 -161 -47q-78 -14 -154 -14h-57q-10 0 -32 1t-34 1q-10 0 -34.5 1t-37.5 1q-18 0 -36.5 1t-34.5 1q-29 2 -85 3t-85 1zM365 166q86 -8 92 -8q37 -2 129 -2 q66 0 131 12q63 12 125 41q58 28 110 74q49 43 88 108.5t60 143.5q20 80 20 186q0 168 -43 280q-41 111 -114 181q-70 68 -168 98q-94 31 -205 31q-8 0 -26.5 -1t-28.5 -1h-64q-10 0 -30.5 -1t-28.5 -1q-10 0 -25.5 -1t-21.5 -1v-1139z" />
<glyph unicode="E" horiz-adv-x="1159" d="M160 0q8 43 12 174q2 76 2 260v590q0 186 -2 262q-4 131 -12 174h850v-166h-645v-448h571v-162h-571v-518h264q182 0 250 2q119 4 161 12v-180h-880z" />
<glyph unicode="F" horiz-adv-x="1148" d="M160 0q8 43 12 174q2 76 2 260v725v125q0 39 -4 100q-2 37 -10 76h870v-166h-665v-458h579v-160h-579v-242q0 -186 2 -262q4 -119 14 -172h-221z" />
<glyph unicode="G" horiz-adv-x="1419" d="M94 721q0 172 56 321q51 139 145 240q92 98 219 152q123 51 268 51q61 0 119 -6q61 -6 115 -21q68 -18 119 -41q53 -25 125 -71l-66 -181q-45 37 -107 74q-55 33 -104 47q-59 16 -100 23q-49 6 -101 6q-115 0 -204 -39q-88 -39 -156 -115q-63 -72 -98 -180 q-33 -100 -33 -236q0 -147 31 -247q35 -115 94 -189q63 -80 147 -119q88 -41 195 -40q31 0 84 4q33 2 78 16q53 16 79 29q33 14 86 47v334h-350v165h541v-589q-80 -57 -145.5 -90t-133.5 -56q-43 -14 -125 -26q-55 -8 -127 -9q-143 0 -261.5 49.5t-204.5 143.5 q-86 95 -135.5 233.5t-49.5 319.5z" />
<glyph unicode="H" horiz-adv-x="1474" d="M160 0q8 43 12 174q2 76 2 260v590q0 186 -2 262q-4 131 -12 174h205v-624h720v624h205q-8 -43 -12 -174q-2 -76 -2 -262v-590q0 -184 2 -260q4 -131 12 -174h-205v676h-720v-676h-205z" />
<glyph unicode="I" horiz-adv-x="974" d="M139 0v145h242v1170h-242v145h676v-145h-246v-1170h246v-145h-676z" />
<glyph unicode="J" horiz-adv-x="964" d="M35 90l45 184q29 -33 55 -51q29 -20 66 -37q25 -12 69 -22q33 -8 70 -8q53 0 100 18q43 16 80 62q31 37 51 102q18 61 19 147v496v141q0 25 -1 68t-1 63q0 45 -4 115q-4 63 -9 92h205v-925q0 -147 -32 -263q-33 -113 -89 -174q-61 -68 -139 -94q-82 -29 -176 -29 q-35 0 -78 7q-47 6 -86 20q-43 15 -80 37q-40 24 -65 51z" />
<glyph unicode="K" horiz-adv-x="1308" d="M160 0q8 43 12 174q2 76 2 260v590q0 186 -2 262q-4 131 -12 174h205v-674l561 674h239l-606 -688l672 -772h-246l-620 717v-717h-205z" />
<glyph unicode="L" horiz-adv-x="1079" d="M160 0q8 43 12 174q2 76 2 260v590q0 186 -2 262q-4 131 -12 174h205v-1294h225h139q23 0 64 1t59 1q41 0 98 4q51 4 74 8v-180h-864z" />
<glyph unicode="M" horiz-adv-x="1794" d="M160 0q8 61 8 70q4 49 6 106q4 61 8 135q0 23 3 75t5 81l7 166q0 29 4 86t4 86q12 293 24 655h226l430 -1255l436 1255h219q12 -362 25 -655l6 -172l8 -166q2 -29 5 -81t3 -75q4 -74 8 -135q2 -57 7 -106q0 -8 8 -70h-185l-28 1198l-412 -1198h-194l-414 1194l-33 -1194 h-184z" />
<glyph unicode="N" horiz-adv-x="1499" d="M160 0q8 43 12 174q2 76 2 260v590q0 186 -2 262q-4 131 -12 174h180l795 -1157v1157h180q-4 -23 -8 -74q-4 -57 -4 -100q0 -18 -1.5 -58t-1.5 -63v-141v-1024h-165l-795 1151v-1151h-180z" />
<glyph unicode="O" horiz-adv-x="1458" d="M94 721q0 117 25 221q23 92 69 188q47 92 103 152q63 66 130.5 111t149.5 69q74 23 158 23q121 0 232 -49q109 -49 194 -144q86 -95 135 -233t49 -320q0 -178 -53 -321q-52 -141 -141 -240q-90 -100 -203 -151q-111 -51 -231 -52q-123 0 -234 50q-109 49 -194 143 q-84 94 -138 233q-51 136 -51 320zM291 745q0 -145 28 -247q29 -104 89 -187q53 -76 135 -118q80 -43 178 -43q94 0 170 38q82 43 133 111q59 78 88 178q33 111 33 238q0 137 -31 248q-31 113 -86 188q-57 80 -135 119q-82 41 -172 41q-92 0 -174 -41q-80 -39 -137 -113 q-57 -72 -88 -178q-31 -105 -31 -234z" />
<glyph unicode="P" horiz-adv-x="1193" d="M160 0q8 43 12 174q2 76 2 260v709v131q0 43 -4 108q-2 39 -10 78q23 2 66.5 3t66.5 1q82 4 135 4q25 0 78 1t80 1q117 0 219 -28q100 -29 166 -82q70 -57 106 -139q37 -83 37 -191q0 -115 -35 -198.5t-106 -149.5q-66 -59 -166 -94q-96 -33 -221 -33q-76 0 -115 2 q-72 4 -106 8v-131q0 -186 2 -262q4 -119 14 -172h-221zM365 721q33 -4 98 -8q33 -2 106 -2q113 0 174 22q72 27 109 66q43 47 57 96q16 59 17 115q0 59 -19 114q-18 59 -57 97q-41 41 -108.5 65.5t-166.5 24.5q-12 0 -33.5 -1t-29.5 -1h-51q-8 0 -24.5 -1t-22.5 -1 q-10 0 -23.5 -1t-25.5 -1v-584z" />
<glyph unicode="Q" horiz-adv-x="1474" d="M94 721q0 117 25 221q23 92 69 188q47 92 103 152q63 66 130.5 111t149.5 69q74 23 158 23q121 0 232 -49q115 -51 194 -144q88 -100 135 -233q49 -138 49 -320q0 -92 -16 -190q-14 -88 -47 -176q-29 -76 -82 -150q-51 -70 -115 -119q82 -51 185 -96q92 -41 190 -53 l-22 -39q-12 -20 -33 -47q-16 -20 -39 -41q-20 -18 -39 -18q-25 0 -59 14q-61 25 -80 35l-90 47l-88 45q-16 8 -45 20.5t-33 14.5q-31 14 -52 14q-39 -14 -81 -20q-27 -4 -88 -5q-121 0 -232 50q-115 51 -194 143q-84 96 -134 233q-51 144 -51 320zM291 745q0 -145 28 -247 q29 -104 89 -187q53 -76 135 -118q80 -43 178 -43q94 0 170 38q82 43 133 111q59 78 88 178q33 111 33 238q0 137 -31 248q-31 113 -86 188q-57 80 -135 119q-82 41 -172 41q-92 0 -174 -41q-80 -39 -137 -113q-57 -72 -88 -178q-31 -105 -31 -234z" />
<glyph unicode="R" horiz-adv-x="1304" d="M160 0q8 43 12 174q2 76 2 260v709v131q0 43 -4 108q-2 39 -10 78q18 2 56 3t58 1q74 4 129 4q23 0 77.5 1t84.5 1q119 0 213 -24q104 -27 166 -72q63 -47 107 -129q39 -76 39 -184q0 -88 -29 -162q-29 -72 -74 -121t-106 -84q-49 -29 -119 -49l72 -100l94 -127l100 -135 l94 -125l76 -101l47 -57h-256l-422 625h-202v-191v-139q0 -23 1 -64t1 -59q0 -12 6 -98q4 -55 8 -74h-221zM365 780h190q174 0 258 70q86 72 86 194q0 66 -18 115q-18 47 -62 82q-41 33 -106.5 51.5t-157.5 18.5q-18 0 -52 -1t-50 -1q-35 0 -88 -4v-525z" />
<glyph unicode="S" horiz-adv-x="1173" d="M94 111l45 204q104 -90 207 -127q104 -39 219 -38q61 0 117 18q61 20 98 49q47 37 70 80q25 47 24 109q0 37 -12 73q-10 33 -51 70q-35 33 -109 67q-70 33 -188 68q-113 33 -190 78q-70 41 -115 92q-43 49 -59 107q-14 51 -14.5 118.5t26.5 134.5q29 72 84 132 q57 61 145 100q86 39 213 39q76 0 109 -4q70 -8 98 -17q68 -18 94 -28q61 -25 94 -41l-38 -195q-49 27 -101 51q-43 20 -88 33q-57 16 -86 21q-43 6 -90 6q-61 0 -110.5 -18.5t-86.5 -49.5q-39 -33 -55 -67q-18 -40 -18 -80q0 -47 10 -76t47 -62q35 -31 100 -59 q72 -31 172.5 -59.5t175.5 -67.5q74 -39 127 -88q51 -49 80 -115q27 -61 27 -143q0 -104 -39 -184q-39 -82 -108 -142q-68 -58 -160 -92q-90 -33 -193 -33q-66 0 -141 11q-74 10 -129 26q-53 16 -111 43q-55 27 -90 56z" />
<glyph unicode="T" horiz-adv-x="1263" d="M45 1276v184h1155v-184q-70 14 -119 16q-39 2 -127 2h-239v-860q0 -109 4 -260q2 -106 16 -174h-229q14 68 16 174q2 76 2 260v860h-233q-88 0 -127 -2q-49 -2 -119 -16z" />
<glyph unicode="U" horiz-adv-x="1439" d="M160 1460h205v-901q0 -96 18 -176q18 -84 55 -133q39 -53 107 -86q59 -29 166 -29q102 0 161 29q65 31 105 86q37 49 55 133q18 80 19 176v901h204q-10 -61 -12 -170q-4 -147 -4 -266v-510q0 -123 -31 -221q-29 -94 -98 -170q-61 -68 -166 -109q-98 -39 -233 -39 q-139 0 -238 39q-106 43 -168 109q-63 70 -98 170q-33 96 -33 221v510q0 186 -2 262q-2 113 -12 174z" />
<glyph unicode="V" horiz-adv-x="1363" d="M35 1460h215l422 -1265l424 1265h215l-29 -65l-31 -76l-37 -96l-45 -127l-385 -1096h-225l-389 1096l-45 125l-37 98l-29 76l-8 23.5l-7 19.5t-9 22z" />
<glyph unicode="W" horiz-adv-x="2078" d="M41 1460h219l315 -1274l361 1274h184l365 -1274l309 1274h221l-24 -65q-14 -37 -25 -76q-20 -59 -31 -96q-6 -25 -10 -39.5l-10 -37l-14 -50.5l-306 -1096h-225l-344 1176l-342 -1176h-223l-305 1096l-37 125q-6 23 -11.5 39t-8.5 28t-9 31q-6 20 -27 78q-2 8 -10 29.5 t-12 33.5z" />
<glyph unicode="X" horiz-adv-x="1323" d="M41 0l43 59q8 12 13 20.5t12.5 20t17.5 25.5l57 86l80 129l273 440l-207 330l-82 129l-62 92q-27 39 -49 68l-47 61h236l329 -526l320 526h235l-45 -59l-23.5 -30.5t-27.5 -37.5l-61 -94l-23.5 -38l-24 -38.5l-32.5 -52.5l-211 -342l270 -432l84 -129q33 -51 58 -86 l21 -32.5l22 -31.5l43 -57h-230l-389 614l-371 -614h-229z" />
<glyph unicode="Y" horiz-adv-x="1318" d="M35 1460h229l395 -661l375 661h232l-78 -114q-14 -20 -64 -99l-55 -90q-12 -18 -18.5 -30.5t-15.5 -28l-19 -33.5l-271 -463v-168q0 -184 3 -260q4 -131 12 -174h-219q8 43 12 174q2 76 2 260v176l-264 455q-12 23 -27.5 47.5l-30.5 48.5q-27 47 -57 94q-20 33 -65 99 q-72 102 -76 106z" />
<glyph unicode="Z" horiz-adv-x="1228" d="M76 0v125l794 1169h-340h-133q-76 0 -108 -2q-18 -2 -48 -5t-38 -3q-45 -4 -68 -8v184h971v-131l-797 -1163h391q109 0 261 4q119 4 174 14v-184h-1059z" />
<glyph unicode="[" horiz-adv-x="788" d="M201 -410v2009h438v-149h-254v-1710h254v-150h-438z" />
<glyph unicode="\" horiz-adv-x="1024" d="M211 1571l149 28l469 -1685l-145 -29z" />
<glyph unicode="]" horiz-adv-x="788" d="M150 -260h256v1710h-256v149h440v-2009h-440v150z" />
<glyph unicode="^" horiz-adv-x="1118" d="M94 850l381 749h170l379 -749h-178l-287 580l-285 -580h-180z" />
<glyph unicode="_" horiz-adv-x="1273" d="M0 -170h1274v-166h-1274v166z" />
<glyph unicode="`" horiz-adv-x="579" d="M0 1599h229l351 -430h-160z" />
<glyph unicode="a" horiz-adv-x="1148" d="M104 410q0 109 27 208q23 86 70 166q41 66 82 113t96 80t117 47q70 16 139 16q37 0 84 -6q68 -8 96 -14q45 -8 96 -25l88 -30v-435q0 -182 23 -317q23 -139 53 -213h-176l-12 37q-10 25 -19 51q-12 41 -18 63.5t-14 67.5q-35 -43 -84 -92q-57 -57 -90 -80 q-53 -37 -101 -53q-53 -18 -106 -19q-66 0 -125 27q-66 31 -113 82q-55 61 -82 135q-31 85 -31 191zM291 461q0 -88 14 -143.5t41 -98.5q20 -35 60 -55q33 -18 63 -19q43 0 92 25q47 23 96 70q43 41 91 100q39 49 67 115v374l-39 15q-33 8 -51 12q-35 8 -63 10q-45 4 -66 4 t-66 -8q-33 -6 -63.5 -24.5t-60.5 -49.5q-35 -35 -56 -73q-27 -45 -43 -115q-16 -71 -16 -139z" />
<glyph unicode="b" horiz-adv-x="1153" d="M129 1599h201v-774q23 31 76 84q41 41 88 70q49 31 104 45q59 16 117 16q76 0 139 -36q61 -35 109 -105q49 -72 71 -158q27 -100 27 -200q0 -125 -35 -234q-34 -104 -98 -178q-68 -78 -152 -115q-86 -39 -201 -39q-68 0 -118 9q-45 6 -111 22q-43 10 -102 29 q-27 10 -99 31v1181q0 23 -1 66t-1 63q0 45 -4 123q-2 45 -10 100zM330 184q37 -15 67 -24q41 -12 60 -17q35 -8 57 -10q37 -4 61 -4q63 0 121 29q59 29 97 75q43 53 63 119q25 80 25 154q0 78 -17 149q-14 66 -43 113q-29 49 -69 72q-43 25 -97 24q-51 0 -94 -20 q-51 -25 -90 -58q-45 -39 -80 -88q-37 -53 -61 -112v-402z" />
<glyph unicode="c" horiz-adv-x="1019" d="M94 489q0 113 37 213q37 102 105 177q70 76 163 118q95 43 215 43q100 0 174 -24q70 -23 127 -62l-34 -180q-74 53 -136 76q-68 25 -145 24q-68 0 -125 -24.5t-100 -73.5q-41 -45 -66 -119q-25 -72 -24 -157q0 -80 22 -148q20 -63 64 -112q45 -51 98 -74q63 -27 131 -27 q92 0 166 31t139 90l21 -174q-41 -31 -76 -51q-31 -16 -80 -32.5t-88 -20.5q-47 -6 -102 -7q-104 0 -189 35q-92 39 -153 103q-70 74 -105 161q-39 100 -39 215z" />
<glyph unicode="d" horiz-adv-x="1189" d="M104 461q0 132 37 239q37 106 100.5 182t151.5 117t187 41q23 0 67 -8q34 -6 68 -18q45 -16 67 -27q25 -12 64 -33v281q0 121 -6 211q-6 94 -21 153h211v-1069q0 -195 21 -317q18 -117 55 -213h-180q-8 18 -27 78q-20 70 -29 106q-70 -98 -163 -155q-88 -53 -201 -54 q-90 0 -166 35q-78 35 -127 96q-52 65 -80 154q-29 92 -29 201zM291 489q0 -174 59.5 -264t190.5 -90q41 0 90 23q43 20 86 59q33 31 74 86q33 45 55 96v396l-70 34q-18 8 -63 23q-41 12 -64 14q-41 4 -69 4q-51 0 -109 -26q-49 -23 -92 -76q-43 -51 -66 -119 q-22 -66 -22 -160z" />
<glyph unicode="e" horiz-adv-x="1093" d="M94 496q0 119 35 223q35 102 94 172q61 70 152 110q86 39 200 39q74 0 146 -20q59 -16 108 -53q45 -33 76 -80q33 -51 51 -101q12 -37 25 -110q8 -51 8 -113v-39v-39h-708q4 -92 26 -153q25 -63 68 -107q43 -41 100 -63q61 -23 125 -23q94 0 191 23q90 20 184 78l20 -164 q-57 -31 -104 -47q-55 -20 -103 -31q-55 -12 -102 -18q-35 -4 -111 -5q-100 0 -184 33q-88 35 -151 98q-68 68 -107 164.5t-39 225.5zM289 625h522q0 59 -20 114q-18 49 -51 82t-81 51q-45 18 -100 19q-106 0 -178 -66q-69 -63 -92 -200z" />
<glyph unicode="f" horiz-adv-x="749" d="M41 850v145h199v174q0 224 92 338q92 113 254 113q57 0 114 -18q61 -18 105 -52l-45 -149q-37 27 -84 43q-49 16 -90 16q-33 0 -70 -14q-27 -10 -49 -43q-20 -31 -31 -78q-10 -51 -10 -115v-215h268v-145h-268v-356v-144q0 -8 6 -137q4 -78 8 -119q6 -61 15 -94h-215v850 h-199z" />
<glyph unicode="g" horiz-adv-x="1124" d="M104 434q0 119 31 225q33 113 92 193q63 86 162 137q96 51 236 51q46 0 92 -6q49 -6 94 -18l92 -25l86 -26v-940q0 -137 -37 -226q-39 -94 -102 -153q-66 -61 -141 -88q-78 -27 -164 -27q-98 0 -191 33q-102 37 -174 86l66 155q74 -55 141 -84q72 -31 148 -30q49 0 86 12 q49 16 88 49q43 37 69.5 92.5t26.5 145.5v184q-39 -49 -82 -82q-47 -37 -88 -57.5t-90 -30.5q-39 -8 -84 -8q-74 0 -133 22q-66 25 -115 78q-45 49 -78 135q-31 83 -31 203zM291 485q0 -98 14 -155q14 -61 39 -97q25 -37 62 -53q31 -14 73 -14q41 0 82 14q37 12 86 45 q43 29 84 72q40 43 74 98v434q-33 12 -51 17l-56 12q-20 4 -53 8q-37 4 -49 4q-82 0 -141 -34q-57 -33 -95 -88q-33 -49 -53 -123q-16 -60 -16 -140z" />
<glyph unicode="h" horiz-adv-x="1173" d="M129 1599h201v-770q76 106 174 158q102 53 207 53q158 0 243.5 -104.5t85.5 -310.5v-625h-186v551q0 92 -12 154q-12 59 -37 96q-25 35 -62 51q-29 12 -88 12q-53 0 -106 -24q-47 -23 -94 -66q-41 -37 -76 -92q-35 -53 -49 -102v-580h-185v1130q0 201 -2 283 q-4 127 -14 186z" />
<glyph unicode="i" horiz-adv-x="563" d="M156 1346q0 29 8 51q8 20 26.5 42.5t38.5 30.5q25 10 52 11q25 0 51 -11q16 -6 41 -30q16 -16 26.5 -43t10.5 -51q0 -27 -10.5 -53.5t-26.5 -43.5q-20 -20 -41 -28q-27 -10 -51 -11q-27 0 -52 11q-23 10 -39 28q-18 23 -26 43q-8 23 -8 54zM174 1020h201v-545 q0 -14 1 -52t1 -61q0 -43 4 -133l6 -129q4 -70 8 -100h-205v530v144q0 25 -1 69.5t-1 65.5q0 6 -6 117q-4 63 -8 94z" />
<glyph unicode="j" horiz-adv-x="593" d="M-190 -406l34 166q6 -6 41 -22q16 -8 54 -21q29 -10 53 -12q37 -4 49 -4q41 0 72 14q33 14 57.5 49t36.5 84q12 53 12 127v555v144q0 25 -1 69.5t-1 65.5q0 43 -4 117q-4 63 -8 94h201v-995q0 -143 -27 -236q-27 -94 -76 -151.5t-118.5 -82t-153.5 -24.5q-14 0 -51 4 q-27 2 -58 12q-41 12 -61 21q-31 12 -51 26zM184 1346q0 25 11 51q9 25 24 43q18 23 39 30q25 10 51.5 10.5t52.5 -10.5q16 -6 41 -30q16 -16 26.5 -43t10.5 -51q0 -27 -10 -53.5t-27 -43.5q-20 -20 -41 -28q-27 -10 -53 -10.5t-51 10.5q-23 10 -39 28q-15 18 -24 43 q-11 27 -11 54z" />
<glyph unicode="k" horiz-adv-x="1034" d="M129 1599h201v-999l405 420h250l-496 -447l527 -573h-246l-440 520v-520h-185v1130q0 201 -2 283q-4 127 -14 186z" />
<glyph unicode="l" horiz-adv-x="563" d="M170 1599h205v-1124q0 -14 1 -52t1 -61q0 -43 4 -133q2 -45 6 -127q4 -74 8 -102h-205v1130q0 143 -6 265q-6 134 -14 204z" />
<glyph unicode="m" horiz-adv-x="1683" d="M125 1020h180q4 -12 19 -76l14 -80q55 61 88 88q51 39 82 54q49 20 84 26q53 8 84 8q51 0 88 -14t70 -37q31 -23 53 -53q25 -35 35 -64q37 43 90 84q35 27 86 49.5t82 26.5q53 8 80 8q77 0 129 -24q53 -25 83.5 -74t43.5 -119q14 -82 14 -164v-659h-184v551q0 76 -9 158 q-6 59 -22 96q-16 35 -45 47t-70 12q-39 0 -74 -14q-39 -16 -69 -41q-35 -29 -62 -64q-29 -39 -51 -86v-659h-184v569q0 94 -6 152q-4 47 -25 90q-12 29 -45 43q-23 10 -70 10q-39 0 -73.5 -14t-69.5 -43q-41 -33 -63 -64q-20 -29 -48 -84v-659h-186v614q0 162 -16 252 q-21 111 -33 154z" />
<glyph unicode="n" horiz-adv-x="1183" d="M104 1020h181q6 -14 12 -41q2 -8 5 -26.5t5 -26.5q4 -18 8 -56l9 -45q98 117 192 164q102 51 203 51q160 0 246 -104q84 -102 84 -311v-625h-185v551q0 92 -12 154q-12 59 -37 96q-23 35 -63 51q-29 12 -88 12q-53 0 -105 -24q-47 -23 -94 -66q-45 -43 -78 -92 q-31 -47 -47 -102v-580h-186v614q0 143 -17 252q-17 107 -33 154z" />
<glyph unicode="o" horiz-adv-x="1138" d="M94 506q0 131 39 227q39 98 107 168q70 72 153 105q92 35 187 34q100 0 188 -34q82 -33 147 -105q61 -68 97 -168q33 -96 32 -227q0 -133 -38 -230q-40 -98 -105 -165q-63 -66 -153 -101q-92 -35 -189 -35q-100 0 -188 35q-84 33 -146 101q-63 70 -96 165 q-35 101 -35 230zM281 506q0 -94 20 -158q23 -74 59 -115q45 -51 93 -73q52 -25 116 -25q61 0 112.5 24.5t94.5 73.5q39 45 62 115q23 72 22 158q0 88 -20 156q-23 74 -60 118q-40 49 -92 74q-57 27 -119 27q-55 0 -112 -27q-52 -25 -92 -74q-41 -49 -62 -118 q-22 -74 -22 -156z" />
<glyph unicode="p" horiz-adv-x="1169" d="M104 1020h181q6 -12 22 -74q12 -45 19 -117q37 49 75.5 86t87.5 66q46 28 99 43q55 16 106 16q84 0 156 -36q70 -37 121 -107q47 -66 76 -160q29 -96 28 -202q0 -127 -37 -231.5t-96 -176.5t-145 -113q-80 -39 -176 -39q-43 0 -76 9q-55 14 -70 20q-37 16 -65 35 l-37 24.5t-33 22.5v-236q0 -23 1 -57.5t1 -50.5q0 -37 4 -90t8 -76q2 -10 5 -32.5t6 -32.5h-209v974q0 31 -1 88.5t-1 83.5q0 78 -7 146q-4 49 -16 121q-11 55 -27 96zM340 260l88 -59q35 -23 70 -37q29 -12 59 -19q29 -6 64 -6q47 0 100 27q47 25 86 72q41 51 61 114 q23 72 23 154q0 78 -16.5 149.5t-45.5 114.5q-35 51 -73 74q-47 27 -97 26q-41 0 -88 -18q-35 -14 -86 -57q-43 -37 -79 -93q-39 -57 -66 -127v-315z" />
<glyph unicode="q" horiz-adv-x="1128" d="M104 434q0 119 31 225q33 113 92 193q63 86 162 137q96 51 236 51q46 0 92 -6q41 -6 90 -18l88 -25q25 -8 86 -26v-1115v-108q0 -37 4 -90t8 -76q8 -45 13 -65h-211v628q-72 -86 -150 -127q-72 -37 -139 -37q-74 0 -141 27q-70 27 -129 84q-55 53 -95 143q-37 86 -37 205 zM291 485q0 -96 20 -157q25 -72 54 -107q33 -39 73.5 -57.5t81.5 -18.5q70 0 142 56q74 57 133 164v464q-39 14 -99 29q-55 12 -100 12q-82 0 -141 -34q-57 -33 -95 -88q-33 -49 -53 -123q-16 -60 -16 -140z" />
<glyph unicode="r" horiz-adv-x="888" d="M104 1020h181q14 -33 22 -70q6 -31 15 -96q8 -68 10 -111q4 -78 4 -118v-66q59 160 98 234q49 92 98 147q51 57 99 78q51 23 98 22q31 0 72 -8q25 -4 63 -22l-28 -185q-31 14 -52 17q-29 4 -55 4q-39 0 -86 -35q-43 -33 -88 -92q-39 -53 -82 -129q-29 -51 -67 -148 q-25 -61 -48 -147q-18 -70 -18 -127v-47q0 -16 4 -41q0 -6 2 -19.5t4 -19.5q2 -12 10 -41h-204v614q0 143 -17 252q-15 97 -35 154z" />
<glyph unicode="s" horiz-adv-x="964" d="M111 90l49 180q35 -33 76 -55q45 -27 88 -43t90 -27q51 -10 86 -10q43 0 80 12q41 14 63 29q25 16 41 43t16 51q0 27 -12 52q-14 29 -41 47q-37 25 -84 45q-35 14 -137 41q-86 20 -150 53q-57 31 -90 65q-33 37 -45 78q-12 43 -12 88q0 14 8 56q6 29 25 63q12 25 47 66 q29 35 72 59q47 27 100 41q61 16 133 16q41 0 102 -8q49 -6 89 -18q55 -16 71 -25l60 -28l-35 -177q-33 20 -58 33q-20 10 -69 31q-27 10 -80 22q-47 10 -88 11q-57 0 -94 -13q-39 -12 -60 -30q-25 -20 -33 -43q-10 -27 -10 -45q0 -27 8 -45q6 -16 35 -37q20 -16 72 -33 q53 -18 127 -35q70 -16 127 -39q59 -25 104 -59q47 -39 72 -86q27 -53 27 -121q0 -66 -31 -125q-33 -61 -82 -102q-52 -43 -123 -68q-72 -25 -149 -25q-70 0 -119 9q-55 9 -105 24q-57 18 -92 37q-22 12 -69 45z" />
<glyph unicode="t" horiz-adv-x="833" d="M31 850v145h198v326h187v-326h323v-145h-323v-461q0 -76 6 -125q4 -41 24 -76q16 -31 39 -38q27 -10 58 -11q35 0 96 21q57 18 121 55v-160q-66 -45 -131 -63q-57 -16 -117 -17q-58 0 -111 13q-41 10 -88 49q-39 33 -61.5 90t-22.5 143v580h-198z" />
<glyph unicode="u" horiz-adv-x="1183" d="M135 1020h205v-555q0 -90 8 -146q10 -68 29 -102q23 -41 53 -57q37 -20 80 -21q47 0 94 27q51 29 96 67q41 35 82 91q33 43 58 96v280v88q0 51 -2 76l-7 74l-6 42t-6 40h205v-569q0 -123 18 -256q14 -102 48 -195h-170q-10 33 -15 41q-10 27 -16 47q-2 4 -7 24.5t-8 30.5 q-8 35 -10 58q-92 -111 -186 -168.5t-203 -57.5q-319 0 -319 431v294q0 16 -1 45t-1 41q0 51 -2 76l-7 76q-2 14 -10 82z" />
<glyph unicode="v" horiz-adv-x="1069" d="M20 1020h209l306 -819l305 819h211q-8 -18 -20.5 -42t-24.5 -50l-43 -99l-19.5 -48l-17.5 -44l-31 -71l-27 -66l-37 -94l-43 -109l-45 -112l-112 -285h-191l-108 274l-45 111q-10 27 -22.5 55.5t-22.5 55.5l-11.5 30.5t-8.5 21.5t-7 18.5t-10 25.5l-31 74q-4 10 -11 29.5 t-18 43.5l-39 90l-43 99z" />
<glyph unicode="w" horiz-adv-x="1548" d="M45 1020h184l211 -805l260 805h150l260 -805l211 805h184l-32 -102q-8 -25 -13.5 -47.5t-11.5 -39.5q-6 -18 -11 -39.5t-12 -41.5q-12 -39 -24 -84l-187 -666h-190l-250 784l-250 -784h-188l-186 666q-8 31 -23 77q-6 20 -11 42t-12 40l-26 90z" />
<glyph unicode="x" horiz-adv-x="1083" d="M49 0l70 90l49 66l20.5 27.5l20.5 27.5l41 59l178 258l-158 222q-12 18 -24.5 34.5t-22.5 28.5q-20 29 -43 57l-51 64l-70 86h232l260 -361l244 361h225l-66 -86l-49 -64q-12 -16 -22.5 -32.5t-18.5 -26.5l-45 -61l-162 -240l172 -240q27 -39 48 -65q10 -14 21 -26.5 t22 -26.5q12 -14 23 -31t24 -33l67 -88h-229l-268 377l-263 -377h-225z" />
<glyph unicode="y" horiz-adv-x="1058" d="M-20 -385l61 160q25 -20 37 -27q39 -23 45 -24l51 -17q25 -6 51 -6q29 0 60 10q27 10 57 39q29 29 61.5 84t65.5 139l-279 693l-65 151q-43 100 -94 203h198l324 -817l41 116l47 132l23.5 67.5l23.5 69.5l47 131l105 301h200q-27 -57 -47 -107l-39 -94q-18 -43 -32 -82 l-27 -71l-240 -666q-49 -135 -102 -236q-47 -88 -102 -143q-53 -55 -107 -72q-55 -18 -119 -18q-70 0 -129 20q-55 21 -116 64z" />
<glyph unicode="z" horiz-adv-x="1038" d="M104 0v111l576 759h-389q-59 0 -86 -2q-45 -4 -70 -14v166h795v-94l-594 -776h430q57 0 88 2q49 4 90 14v-166h-840z" />
<glyph unicode="{" horiz-adv-x="999" d="M211 614q0 14 27 35q47 37 61 47l68 47q34 22 43 37q8 10 10 59.5t6 127.5q0 20 3 76.5t5 86.5q0 12 12 166q6 76 19 140q12 57 31 80q12 14 49 34.5t78 34.5l92 31q46 15 86 24l39 -141q-25 -8 -58 -20q-45 -16 -65 -27q-47 -23 -55 -29q-27 -16 -31 -22 q-10 -14 -13 -41q-4 -33 -6 -76q-2 -16 -3 -50t-1 -52q-4 -74 -4 -113q0 -29 -1 -57.5t-1 -55.5q0 -72 -2 -100q0 -12 -1 -37.5t-3 -36.5q-3 -31 -6 -37q-4 -12 -33 -32l-53 -37l-27.5 -20.5l-21.5 -16.5q-25 -18 -25 -24.5t25 -24.5l49 -35q18 -12 53 -39q29 -20 33 -31 q3 -6 6 -36q2 -10 3 -37t1 -39q2 -29 2 -99q0 -27 1 -56.5t1 -57.5q0 -39 4 -113q0 -18 1 -51t3 -49q2 -43 6 -76q2 -27 13 -41q6 -12 31 -25l55 -26q20 -10 65 -27q14 -6 29.5 -12t28.5 -10l-39 -140q-40 9 -86 25q-10 4 -29.5 10t-35 11.5l-27.5 9.5q-41 14 -78 34.5 t-49 34.5q-18 23 -31 80q-12 63 -19 139q-12 154 -12 166q-2 31 -5 86.5t-3 75.5q-4 78 -6 127q-2 51 -10.5 61.5t-24.5 22.5q-6 4 -19.5 14.5t-19.5 14.5l-47 33l-24.5 17t-18.5 13q-14 10 -33 29q-12 12 -12 20z" />
<glyph unicode="|" horiz-adv-x="688" d="M270 -389v1988h150v-1988h-150z" />
<glyph unicode="}" horiz-adv-x="999" d="M160 -270q12 4 27.5 10t29.5 12q45 16 66 27l55 26q23 12 33 25q8 10 10 41q4 33 6 76q2 16 3 49t1 51q4 74 4 113q0 29 1 58.5t1 55.5q0 70 2 99q0 12 1 38.5t3 37.5q3 31 7 36q4 6 18 21q12 12 31 24l37 25q10 6 34 25l27 20q12 10 12 14t-12 15q-4 4 -13 11l-14 11 q-25 18 -34 25l-37 24q-18 12 -31 25q-14 14 -18 20q-3 6 -7 37q-2 10 -3 36t-1 38q-2 29 -2 100q0 27 -1 55.5t-1 57.5q0 39 -4 113q0 18 -1 52t-3 50q-2 43 -6 76q-2 31 -10 41q-6 6 -33 22q-8 6 -55 29q-20 10 -66 27l-57 20l41 141q40 -9 86 -24l90 -31q41 -14 78 -35 q41 -23 51 -34q16 -18 29 -80q12 -63 18 -140q12 -154 12 -166q2 -31 5 -87t3 -76l6.5 -127t10.5 -60q9 -15 43 -37l67 -47q14 -10 62 -47q29 -23 29 -35q0 -6 -15 -20q-18 -18 -33 -29l-18 -13l-25 -17l-47 -33q-6 -4 -19 -14.5t-20 -14.5q-16 -12 -24 -22.5t-10 -61.5 q-2 -49 -7 -127q0 -20 -3 -75.5t-5 -86.5q0 -12 -12 -166q-6 -76 -18 -139q-12 -61 -29 -80q-10 -12 -51 -34q-37 -20 -78 -35l-90 -31q-46 -15 -86 -25z" />
<glyph unicode="~" horiz-adv-x="1079" d="M14 520q0 49 17 105q14 47 49 96q29 41 78 70q47 29 106 28q41 0 119 -16q72 -14 186 -55l64 -23q23 -8 67.5 -20.5t67.5 -16.5q35 -6 66 -6q18 0 47 8q16 4 32 21q14 14 21 34q8 27 10 50h121q0 -51 -16.5 -106.5t-44.5 -92.5q-33 -43 -80 -67.5t-107 -24.5q-31 0 -67 6 q-43 6 -72 14q-49 12 -72 21q-16 4 -63 20l-97 33q-23 8 -75 23q-47 12 -60 14q-37 4 -51 4q-27 0 -53 -10q-20 -8 -39 -27q-14 -14 -25 -39q-8 -18 -8 -43h-121z" />
<glyph unicode="&#xa1;" horiz-adv-x="763" d="M227 979q0 25 11 51q8 23 28.5 43.5t42.5 28.5q27 10 51 10q27 0 54 -10q23 -8 43 -28.5t28 -43.5q10 -27 11 -51q0 -27 -11 -53q-8 -23 -28.5 -43.5t-42.5 -28.5q-27 -10 -54 -10q-25 0 -51 10q-23 8 -43 28.5t-28 43.5q-11 26 -11 53zM233 -410q10 100 23 310 q6 96 10 278q4 154 6 254q3 120 7 227h163l4 -227q2 -100 7 -254q2 -131 12 -278q12 -209 22 -310h-254z" />
<glyph unicode="&#xa2;" d="M205 541q0 92 28 182q28 86 80 154q55 72 125 114q72 45 166 64v266h131v-260q84 -6 142 -27q49 -16 106 -53l-33 -170q-57 41 -106 61q-55 23 -109 29v-692q70 10 127 37q51 25 113 76l18 -166q-63 -47 -119 -70q-68 -27 -139 -33v-264h-131v264q-84 8 -158 49 q-72 39 -127 101q-51 57 -83 147q-31 87 -31 191zM385 549q0 -61 16 -121q14 -51 43 -96q28 -43 68 -74t92 -43v680q-47 -14 -88 -43q-29 -20 -67 -74q-33 -45 -48 -102q-16 -61 -16 -127z" />
<glyph unicode="&#xa3;" d="M145 0v129q20 14 58 51q23 23 47 62q20 31 33 69q12 37 12 80q0 20 -1 45t-3 53.5t-2 47.5q-2 51 -10 153h-123v146h112q-2 37 -6 102q-2 33 -2 96q0 106 29 197q28 86 80 141q55 57 125 84q76 29 161 29q41 0 64 -4q39 -6 65 -15q29 -8 66 -22q31 -12 53 -29l-47 -149 q-8 8 -43 24q-4 2 -53 19q-28 9 -55 12q-37 4 -50 4q-39 0 -86 -14q-37 -12 -65 -43q-27 -31 -43 -78q-16 -49 -17 -115q0 -33 4.5 -114.5t8.5 -124.5h309v-146h-297q2 -18 3 -37.5t2 -44t1 -37.5q4 -78 4 -106q0 -90 -22 -168q-20 -72 -80 -131h203h139q23 0 63.5 1t59.5 1 q41 0 98 4q53 4 76 8v-180h-871z" />
<glyph unicode="&#xa4;" d="M37 412l211 211q-41 53 -64 116q-20 59 -20 135t20.5 139.5t67.5 121.5l-215 215l94 94l215 -215q59 43 121 63q68 23 137 23q63 0 133 -25q59 -20 115 -63l217 217l94 -94l-213 -213q39 -55 64 -121q23 -61 22 -139q0 -145 -84 -254l211 -211l-94 -95l-211 211 q-49 -41 -119 -67q-65 -25 -135 -25q-68 0 -141 25q-61 20 -121 67l-211 -211zM295 874.5q0 -71.5 22 -122.5q27 -59 66 -97q47 -43 98 -63q57 -23 123 -23t121 25q57 25 94 65q45 49 64 97q23 57 22.5 120.5t-22.5 120.5q-20 53 -64 97q-37 37 -96 63q-55 25 -119 25 q-66 0 -123 -23q-51 -20 -98 -63q-37 -35 -66 -99q-22 -51 -22 -122.5z" />
<glyph unicode="&#xa5;" d="M63 1386h201l344 -626l326 626h201q-39 -59 -68 -108q-14 -25 -28.5 -47.5t-26.5 -44.5l-47 -86l-47 -88l-160 -297h250v-146h-326v-104h326v-146h-326q0 -135 2 -190q4 -96 10 -129h-190q6 33 10 129q2 55 2 190h-315v146h315v104h-315v146h243l-157 297 q-10 20 -23.5 43.5t-25.5 48.5l-22.5 43t-27.5 47l-57 92q-25 41 -68 100z" />
<glyph unicode="&#xa6;" horiz-adv-x="1024" d="M440 -389v833h150v-833h-150zM440 774v825h150v-825h-150z" />
<glyph unicode="&#xa7;" horiz-adv-x="1024" d="M111 -354l49 180q35 -33 76 -55q45 -27 88 -43q53 -20 90 -29q41 -8 86 -8q43 0 79.5 12t63.5 33q23 18 41 47q16 27 16 51q0 51 -20 90q-22 40 -62 80q-47 47 -92 80l-120 86q-55 37 -119 90q-51 41 -86 90q-35 47 -53.5 100.5t-18.5 120.5q0 102 53 174q55 76 137 111 q-94 72 -143 145q-47 72 -47 144q0 61 21 121q23 66 65.5 110.5t120.5 77.5q74 31 178 31q55 0 102 -6q49 -6 89 -19q41 -12 71 -26q49 -23 60 -29l-35 -174q-16 10 -58 31q-20 10 -69 30q-27 10 -80 23q-47 10 -88 10q-51 0 -88 -12.5t-62 -30.5q-20 -14 -34 -45 q-12 -25 -13 -49q0 -39 23 -74q25 -37 59 -67q45 -39 94 -74q29 -20 57.5 -43t61.5 -45q59 -43 119 -92q57 -47 88 -86q29 -37 51 -93q18 -45 19 -102q0 -109 -51.5 -190.5t-139.5 -126.5q98 -80 144 -162q47 -84 47 -172q0 -68 -31 -129q-29 -57 -82 -104.5t-123 -71.5 q-72 -25 -149 -25q-70 0 -119 8q-55 9 -105 25q-57 18 -92 37q-22 12 -69 45zM309 575q0 -27 10 -61q8 -29 35 -61q25 -31 66 -66q47 -39 102 -76q37 2 72 19q31 14 57 37q20 16 35 51q14 33 14 61q0 27 -10 58q-8 25 -33 59q-23 33 -61 66q-57 49 -94 73q-43 0 -78 -12 q-41 -14 -61.5 -32.5t-38.5 -51.5q-15 -27 -15 -64z" />
<glyph unicode="&#xa8;" horiz-adv-x="673" d="M0 1346q0 25 10 51t27 43q25 25 39 30q25 10 51 11q25 0 51 -11q16 -6 41 -30q16 -16 26.5 -43t10.5 -51q0 -27 -10 -53.5t-27 -43.5q-20 -20 -41 -28q-27 -10 -51 -11q-27 0 -51 11q-18 8 -39 28q-16 16 -26.5 43t-10.5 54zM420 1346q0 25 10 51t27 43q25 25 39 30 q25 10 51 11q25 0 51 -11q16 -6 41 -30q16 -16 26.5 -43t10.5 -51q0 -27 -10.5 -53.5t-26.5 -43.5q-20 -20 -41 -28q-27 -10 -51 -11q-27 0 -51 11q-18 8 -39 28q-16 16 -26.5 43t-10.5 54z" />
<glyph unicode="&#xa9;" horiz-adv-x="1513" d="M49 729q0 123 28.5 231.5t76.5 188.5q49 82 114 145q63 61 146 107q72 41 164 63q82 20 178 21q90 0 172 -21q90 -23 166 -63q82 -45 147 -107q70 -68 117 -145q51 -86 78 -188q29 -109 28 -232q0 -125 -28 -233q-27 -102 -78 -188.5t-117 -145.5q-68 -61 -147 -105 q-70 -37 -166 -61q-82 -20 -172 -21q-96 0 -178 21q-98 25 -164 61q-80 45 -146 105q-61 55 -114 145q-47 80 -76 190.5t-29 231.5zM174 729q0 -156 49 -274.5t129 -198.5t186.5 -121t217 -41t217.5 41q100 39 186 121q82 80 131 198.5t49 274.5t-49 274.5t-131 198.5 q-86 82 -186 121q-113 43 -217.5 43t-216.5 -43q-106 -41 -186.5 -121t-129.5 -198.5t-49 -274.5zM354 721q0 114 37 203q39 92 92 149q55 59 131 90q74 31 152 31q66 0 131 -18q68 -20 133 -70l-41 -121q-63 57 -112 78q-55 23 -110.5 22.5t-111.5 -22.5q-47 -20 -92 -68 q-39 -41 -61 -110q-23 -68 -23 -150q0 -68 21 -129q23 -66 57.5 -113t87.5 -77q51 -31 115 -31q70 0 133 33q66 35 117 88l24 -131q-33 -31 -61 -45q-41 -23 -72 -33q-49 -16 -76 -21q-39 -6 -75 -6q-90 0 -162 33t-125 92q-52 58 -80 142q-29 86 -29 184z" />
<glyph unicode="&#xaa;" horiz-adv-x="696" d="M45 639v100h633v-100h-633zM66 1096q0 74 14 125q16 55 41 100q45 76 108.5 115t155.5 39q31 0 49 -2q23 -2 58 -11q37 -8 55 -14q37 -12 53 -18v-261q0 -114 12 -190q12 -80 33 -129h-104q-6 12 -9 22q0 4 -10 33q-2 6 -5 19.5t-5 19.5q0 2 -6 41q-14 -20 -51 -57 q-29 -29 -56 -47q-31 -20 -59 -33q-31 -12 -66 -12q-37 0 -75 16q-35 14 -68 47q-27 27 -47 82q-18 49 -18 115zM174 1124q0 -47 10 -84q8 -33 27 -57q16 -25 35 -33q20 -10 39 -10q23 0 55 16q27 12 57 41q27 25 52 58q29 39 40 69v226q-8 4 -53 16q-31 8 -76 8 q-39 0 -77 -20q-43 -25 -72 -74q-16 -27 -27 -70q-10 -47 -10 -86z" />
<glyph unicode="&#xab;" horiz-adv-x="1298" d="M76 512l434 508h184l-389 -508l389 -512h-182zM565 512l434 508h187l-391 -508l391 -512h-182z" />
<glyph unicode="&#xac;" d="M111 649v152h954v-461h-150v309h-804z" />
<glyph unicode="&#xad;" horiz-adv-x="858" d="M80 555v150h700v-150h-700z" />
<glyph unicode="&#xae;" horiz-adv-x="1613" d="M150 729q0 123 28.5 231.5t75.5 188.5q49 82 114.5 145.5t143.5 106.5q72 39 166 63q82 20 176 21q92 0 174 -21q90 -23 166 -63q82 -45 147 -107q70 -68 117 -145q51 -86 78 -188q29 -109 29 -232q0 -125 -29 -233q-27 -102 -78 -188.5t-117 -145.5q-68 -61 -147 -105 q-70 -37 -166 -61q-82 -20 -174 -21q-94 0 -176 21q-102 25 -166 61q-74 41 -143 105q-61 55 -115 145q-47 80 -75.5 190.5t-28.5 231.5zM274 729q0 -156 49.5 -274.5t129 -198.5t186 -121t215.5 -41q113 0 219 41q100 39 187 121q82 80 131 198.5t49 274.5t-49.5 274.5 t-130.5 198.5q-86 82 -187 121q-113 43 -219 43q-102 0 -215 -43q-106 -41 -186 -121t-129.5 -198.5t-49.5 -274.5zM545 291q8 49 8 100v158v348v166q0 57 -8 106q35 4 69 7q23 2 78 2q14 0 48 1t55 1q76 0 133 -15q59 -14 104 -47q43 -31 67.5 -80t24.5 -112q0 -57 -16 -96 t-49 -72t-66 -49q-41 -20 -73 -29q2 -4 14 -21.5t29 -37.5l57 -74l59 -82l60 -78l47 -61q23 -27 28 -35h-153l-262 377h-123v-119v-158q0 -51 8 -100h-139zM676 768h115q100 0 155 37q53 35 53 110q0 74 -49 117t-159 43h-62q-20 0 -53 -4v-303z" />
<glyph unicode="&#xaf;" horiz-adv-x="708" d="M0 1239v152h711v-152h-711z" />
<glyph unicode="&#xb0;" horiz-adv-x="638" d="M70 1235q0 47 20 98q18 45 53 80q37 37 78 53q46 18 98.5 18.5t98.5 -18.5q45 -18 79.5 -53t53.5 -80q18 -46 18 -98t-18 -98q-18 -45 -53 -80t-80 -53q-46 -18 -98.5 -18.5t-98.5 18.5q-41 16 -78 53q-35 35 -53 80q-20 51 -20 98zM184 1235q0 -27 11 -53q8 -20 30 -43 q20 -20 43 -29q27 -10 51 -10q27 0 54 10q23 8 43 28.5t28 43.5q10 27 10.5 53.5t-10.5 52.5q-8 23 -28.5 43.5t-42.5 28.5q-27 10 -54 10q-25 0 -51 -10q-23 -8 -43 -29q-23 -23 -30 -43q-11 -26 -11 -53z" />
<glyph unicode="&#xb1;" d="M156 201v149h888v-149h-888zM156 836v149h368v381h152v-381h368v-149h-368v-367h-152v367h-368z" />
<glyph unicode="&#xb2;" horiz-adv-x="724" d="M76 711v108q40 28 86 68q2 2 90 84l86 90q41 43 74 96q33 51 49 94q18 47 18 88t-12 70t-35 45q-27 18 -51 25q-29 6 -62 6q-31 0 -57 -8q-37 -10 -57 -23q-43 -25 -55 -35q-25 -20 -46 -45l-28 111q23 31 47 47q33 25 65 37q41 16 74 24q45 10 78 11q53 0 102 -19 q55 -20 86 -49q37 -35 60 -82q23 -49 22 -104q0 -51 -18 -103q-20 -55 -47 -102q-37 -61 -68 -101q-27 -33 -80 -90q-27 -29 -80 -77q-47 -43 -71 -62h143q113 0 158 2q74 4 102 8v-114h-573z" />
<glyph unicode="&#xb3;" horiz-adv-x="720" d="M86 784l14 131q47 -51 103 -75q63 -29 127 -29q41 0 71 8q33 8 58 31q23 18 37 49q14 29 14 76q0 72 -57 117q-55 43 -162 43h-45v110h45q39 0 80 10q35 8 61 29q29 20 39 43q14 29 14 53q0 29 -12 51.5t-29 32.5q-23 14 -45 21q-25 6 -55 6q-16 0 -45 -4q-18 -2 -45 -10 q-18 -6 -49 -21q-8 -4 -55 -37l-25 107q45 35 108 59q53 20 121 21q53 0 103 -17q37 -12 80 -47q31 -25 51 -69q16 -35 16 -89q0 -39 -14 -67q-20 -41 -37 -57q-27 -27 -55 -41q-27 -14 -62 -19q27 -2 66 -20q31 -14 65 -45q31 -27 49 -72q18 -43 19 -98q0 -49 -23 -101 q-22 -49 -61 -86q-45 -41 -96 -61q-57 -23 -119 -23q-25 0 -74 8q-37 6 -67 19q-35 14 -62 29q-18 9 -47 34z" />
<glyph unicode="&#xb4;" horiz-adv-x="0" d="M-750 1169l351 430h229l-420 -430h-160z" />
<glyph unicode="&#xb5;" horiz-adv-x="1183" d="M135 1020h205v-555q0 -78 20 -146q18 -63 50 -102q29 -37 71 -57q45 -20 82 -21q33 0 80 27q29 16 80 67q35 35 70 91q33 51 47 96v280v88q0 51 -2 76l-7 74l-6 42t-6 40h205v-569q0 -123 18 -256q14 -102 48 -195h-170q-10 33 -15 41q-10 27 -16 47q-2 4 -7 24.5 t-8 30.5q-8 35 -10 58q-31 -47 -57 -78q-33 -37 -78 -74q-39 -31 -88 -53q-43 -20 -96 -21q-39 0 -66 9q-35 10 -57 24q-33 20 -47 33q-18 16 -35 39v-230q0 -23 1 -57.5t1 -50.5q0 -37 4 -90t8 -76q2 -10 5 -32.5t6 -32.5h-209v1189q0 16 -1 45t-1 41q0 51 -2 76l-7 76 q-2 14 -10 82z" />
<glyph unicode="&#xb6;" horiz-adv-x="1024" d="M49 1112q0 68 19 121q16 49 49 90q25 33 69 63q41 29 82 44q47 16 88 22q57 8 84 8h525v-114h-115v-1346h-135v1346h-160v-1346h-135v766q-35 0 -76 6q-39 6 -82 23q-35 14 -78 43q-41 29 -69.5 65.5t-46.5 89.5q-19 51 -19 119z" />
<glyph unicode="&#xb7;" horiz-adv-x="677" d="M205 709q0 27 10 53q8 23 29 43q16 16 43 26q33 12 53 13q18 0 51 -13q27 -10 43 -26q20 -20 29 -43q10 -27 10 -53q0 -25 -10 -52q-8 -23 -28.5 -43t-43.5 -28q-27 -10 -51 -11q-27 0 -53 11q-23 8 -43.5 28.5t-28.5 42.5q-10 27 -10 52z" />
<glyph unicode="&#xb8;" horiz-adv-x="389" d="M0 -440l10 100q23 -16 45 -22q29 -8 56 -9q20 0 45 6q29 8 43 17q23 14 32 31q14 23 15 47q0 41 -29 65.5t-70 24.5q-14 0 -47 -8q-23 -6 -41 -17v207h125v-96q6 2 21 2q2 0 12 1t16 1q37 0 64 -12.5t49 -34.5q18 -18 33 -56q10 -25 10 -67q0 -51 -22 -92 q-23 -43 -60 -70q-37 -29 -82 -43q-43 -14 -90 -14q-43 0 -72 10q-38 15 -63 29z" />
<glyph unicode="&#xb9;" horiz-adv-x="894" d="M145 711v104h236v655l-207 -104l-18 109l239 124h115v-784h229v-104h-594z" />
<glyph unicode="&#xba;" horiz-adv-x="679" d="M45 639v100h590v-100h-590zM55 1155q0 76 23 137q20 59 63 101q40 40 92 61q49 20 111 21q66 0 115 -21q51 -20 88 -61q35 -37 57 -101q20 -55 21 -137q0 -74 -23 -137q-20 -57 -63 -100q-40 -40 -93 -62q-49 -20 -110 -20q-66 0 -115 20q-51 20 -88 62q-35 39 -57 100 q-21 59 -21 137zM166 1155q0 -51 12 -94t35 -72q20 -25 55 -43q33 -16 72 -16q35 0 68 16q35 16 57 43q25 27 37 72q12 43 12 94t-12.5 94t-34.5 72q-20 25 -55 43q-33 16 -72 16q-35 0 -68 -16q-35 -16 -57 -43q-25 -27 -37 -72q-12 -43 -12 -94z" />
<glyph unicode="&#xbb;" horiz-adv-x="1298" d="M115 0l391 512l-391 508h184l436 -508l-438 -512h-182zM604 0l391 512l-391 508h187l434 -508l-439 -512h-182z" />
<glyph unicode="&#xbc;" horiz-adv-x="1599" d="M104 1475l211 124h115v-784h180v-104h-495v104h184v655l-174 -104zM229 -49l1082 1648h131l-1082 -1648h-131zM864 260v105l391 526h136v-526h129v-105h-129v-65l4 -72q0 -12 1 -36t3 -34l6 -53h-150v260h-391zM999 365h256v356z" />
<glyph unicode="&#xbd;" horiz-adv-x="1599" d="M70 1475l211 124h114v-784h180v-104h-495v104h184v655l-174 -104zM205 -49l1071 1648h131l-1071 -1648h-131zM975 0v111q40 28 86 67l90 82q16 14 88 92q39 41 72 94q35 57 51 97q18 47 18 88q0 37 -14 69q-12 29 -34.5 45.5t-51.5 22.5q-27 6 -59 6q-37 0 -58 -6 q-41 -12 -59 -23q-31 -16 -53 -36l-45 -43l-31 108q23 31 47 47q33 25 65 37q51 23 74 27q35 8 78 8q53 0 102 -19q57 -23 89 -49q39 -35 59 -80q20 -43 20 -106q0 -55 -16 -102.5t-49 -102.5t-68 -98q-53 -68 -78 -92q-14 -16 -81 -78q-47 -43 -72 -62h145q111 0 156 2 q76 4 104 9v-115h-575z" />
<glyph unicode="&#xbe;" horiz-adv-x="1599" d="M125 784l14 131q47 -49 105 -75q63 -29 127 -29q39 0 69 8q33 8 57.5 30.5t39.5 49.5q14 29 14 76q0 72 -57 117q-55 43 -164 43h-45v110h45q41 0 82 10q35 8 61 29q29 20 39 43q12 25 12 53q0 33 -10 52q-12 20 -31 32q-23 16 -43 21q-25 6 -55 6q-16 0 -45 -4 q-18 -2 -45 -10q-18 -6 -49 -21q-8 -4 -56 -37l-24 107q45 35 108 59q53 20 121 21q53 0 103 -17q35 -12 77 -47q31 -25 52 -69q18 -39 18 -89q0 -39 -14 -67q-18 -37 -39 -57q-27 -27 -55 -41q-27 -14 -62 -19q29 -2 68 -20q27 -12 63 -45q31 -27 49 -72q20 -47 21 -98 q0 -49 -23 -101q-20 -45 -63 -86q-47 -43 -94 -61q-57 -23 -121 -23q-25 0 -74 8q-37 6 -68 19q-29 10 -59 29q-24 14 -49 34zM229 -49l1071 1648h132l-1072 -1648h-131zM860 260v105l389 526h135v-526h132v-105h-132q0 -10 1 -31.5t1 -33.5l3 -72q4 -49 6 -70l6 -53h-152 v260h-389zM995 365h254v356z" />
<glyph unicode="&#xbf;" horiz-adv-x="1048" d="M139 -111q0 41 8 72q10 37 27 68q14 27 49 71q37 49 74 90q29 33 51 64q33 45 39 59q16 33 25 64q6 25 14 78q2 10 6 100q2 39 2 135h176q0 -96 -4 -207q-2 -68 -18 -143q-14 -63 -37 -104t-66 -86q-47 -51 -75 -89q-25 -35 -43 -65q-14 -27 -19 -51q-4 -29 -4 -45 q0 -18 10 -45q10 -25 33 -45q20 -18 59 -31q43 -14 93 -15q63 0 125 27q63 27 120 88l45 -178q-25 -25 -59 -45q-31 -18 -78 -35q-31 -10 -88 -22q-41 -8 -94 -9q-80 0 -147.5 18.5t-116.5 55.5t-78 94t-29 131zM393 979q0 20 13 53q8 23 26 41q20 20 43 29q27 10 53 10 q25 0 52 -10q23 -8 43 -28.5t28 -41.5q10 -27 10.5 -53.5t-10.5 -52.5q-8 -20 -28.5 -41t-42.5 -29q-27 -10 -52 -10q-27 0 -53 10q-23 8 -43 29q-18 18 -26 41q-13 33 -13 53z" />
<glyph unicode="&#xc0;" horiz-adv-x="1394" d="M41 0l27 63l30 74q8 20 16.5 44l18.5 50l47 123l400 1106h215l399 -1106l45 -123q12 -31 22.5 -54t16.5 -40l31 -74l26 -63h-205l-137 385h-614l-133 -385h-205zM432 541h508l-256 725zM297 2029h229l351 -430h-160z" />
<glyph unicode="&#xc1;" horiz-adv-x="1394" d="M41 0l27 63l30 74q8 20 16.5 44l18.5 50l47 123l400 1106h215l399 -1106l45 -123q12 -31 22.5 -54t16.5 -40l31 -74l26 -63h-205l-137 385h-614l-133 -385h-205zM432 541h508l-256 725zM507 1599l351 430h229l-420 -430h-160z" />
<glyph unicode="&#xc2;" horiz-adv-x="1394" d="M41 0l27 63l30 74q8 20 16.5 44l18.5 50l47 123l400 1106h215l399 -1106l45 -123q12 -31 22.5 -54t16.5 -40l31 -74l26 -63h-205l-137 385h-614l-133 -385h-205zM432 541h508l-256 725zM262 1599l340 430h170l340 -430h-150l-274 281l-277 -281h-149z" />
<glyph unicode="&#xc3;" horiz-adv-x="1394" d="M41 0l27 63l30 74q8 20 16.5 44l18.5 50l47 123l400 1106h215l399 -1106l45 -123q12 -31 22.5 -54t16.5 -40l31 -74l26 -63h-205l-137 385h-614l-133 -385h-205zM432 541h508l-256 725zM332 1634q0 41 14 92q12 43 37 80t59.5 57.5t82.5 20.5q12 0 40 -4q10 -2 41 -10 q14 -4 43 -17q2 0 19.5 -8t28.5 -12l27.5 -11.5t21.5 -9.5q14 -6 38.5 -14t35 -10t32.5 -2q37 0 58 24q20 23 26 60h107q0 -39 -15 -92q-10 -41 -39 -80q-27 -37 -61.5 -57.5t-83.5 -20.5q-33 0 -80 14q-53 16 -88 33q-68 33 -92 41q-34 12 -62 12q-39 0 -59 -24 q-25 -27 -27 -62h-104z" />
<glyph unicode="&#xc4;" horiz-adv-x="1394" d="M41 0l27 63l30 74q8 20 16.5 44l18.5 50l47 123l400 1106h215l399 -1106l45 -123q12 -31 22.5 -54t16.5 -40l31 -74l26 -63h-205l-137 385h-614l-133 -385h-205zM432 541h508l-256 725zM350 1776q0 25 10 51t27 43q25 25 39 30q25 10 51 11q25 0 51 -11q16 -6 41 -30 q16 -16 26.5 -43t10.5 -51q0 -27 -10.5 -53.5t-26.5 -43.5q-20 -20 -41 -28q-27 -10 -51 -11q-27 0 -51 11q-18 8 -39 28q-16 16 -26.5 43t-10.5 54zM770 1776q0 25 10 51t26 43q25 25 39 30q25 10 52 11q25 0 51 -11q16 -6 41 -30q16 -16 26.5 -43t10.5 -51 q0 -27 -10.5 -53.5t-26.5 -43.5q-20 -20 -41 -28q-27 -10 -51 -11q-27 0 -52 11q-18 8 -39 28q-16 16 -26 43t-10 54z" />
<glyph unicode="&#xc5;" horiz-adv-x="1394" d="M41 0l27 63l30 74q8 20 16.5 44l18.5 50l47 123l400 1106h215l399 -1106l45 -123q12 -31 22.5 -54t16.5 -40l31 -74l26 -63h-205l-137 385h-614l-133 -385h-205zM432 541h508l-256 725zM471 1814q0 41 16 84q14 37 47 70q31 31 68 45q43 16 84 16t84 -16q37 -14 68 -45 q33 -33 47 -70q16 -43 16 -84t-16 -84q-12 -33 -47 -67.5t-68 -46.5q-43 -16 -84 -16.5t-84 16.5q-33 12 -67.5 47t-47.5 67q-16 43 -16 84zM586 1814q0 -43 28.5 -71.5t71.5 -28.5t71.5 28.5t28.5 71.5q0 45 -28 74q-27 27 -72 27t-72 -27q-28 -29 -28 -74z" />
<glyph unicode="&#xc6;" horiz-adv-x="1804" d="M80 0l61 104q29 49 54 97l23 43.5l28 52.5l49 102l516 1061h844v-166h-545v-448h469v-162h-469v-518h164q182 0 250 2q119 4 162 12v-180h-781q3 18 6 43q4 33 4 68q0 12 1.5 49t1.5 59q0 18 1 74.5t1 91.5h-451l-188 -385h-201zM547 541h373v317v436z" />
<glyph unicode="&#xc7;" horiz-adv-x="1353" d="M94 711q0 188 58 338q53 139 149 241q88 94 215 146q123 49 254 49q55 0 111 -6q41 -4 112 -25q59 -16 113 -43q57 -29 108 -65l-59 -181q-47 45 -96 72q-43 25 -98 45q-51 18 -97 25q-66 8 -94 8q-102 0 -192 -37q-88 -37 -152 -109q-61 -72 -100 -182 q-35 -102 -35 -252q0 -117 31 -223q31 -111 90 -186.5t147 -126.5q86 -49 201 -49q47 0 114 14q59 12 115 37q63 29 109 57q41 27 92 78l41 -197q-41 -39 -105 -71q-53 -29 -122 -52q-63 -20 -132 -30q-72 -10 -122 -11v-69q6 2 20 2q2 0 12.5 1t16.5 1q34 0 61 -12 q29 -12 51 -35q18 -18 33 -56q10 -25 10 -67q0 -51 -22 -92q-23 -43 -60 -70q-37 -29 -81 -43q-43 -14 -91 -14q-43 0 -71 10q-39 14 -64 29l10 100q23 -16 46 -22q29 -8 55 -9q20 0 45 6q29 8 43 17q23 14 33 31q14 23 14 47q0 41 -28.5 65.5t-69.5 24.5q-14 0 -47 -8 q-23 -6 -41 -17v191q-127 23 -222 77q-98 57 -167 154q-68 92 -105 217q-37 126 -37 277z" />
<glyph unicode="&#xc8;" horiz-adv-x="1159" d="M160 0q8 43 12 174q2 76 2 260v590q0 186 -2 262q-4 131 -12 174h850v-166h-645v-448h571v-162h-571v-518h264q182 0 250 2q119 4 161 12v-180h-880zM211 2029h229l351 -430h-160z" />
<glyph unicode="&#xc9;" horiz-adv-x="1159" d="M160 0q8 43 12 174q2 76 2 260v590q0 186 -2 262q-4 131 -12 174h850v-166h-645v-448h571v-162h-571v-518h264q182 0 250 2q119 4 161 12v-180h-880zM419 1599l351 430h229l-420 -430h-160z" />
<glyph unicode="&#xca;" horiz-adv-x="1159" d="M160 0q8 43 12 174q2 76 2 260v590q0 186 -2 262q-4 131 -12 174h850v-166h-645v-448h571v-162h-571v-518h264q182 0 250 2q119 4 161 12v-180h-880zM174 1599l340 430h170l340 -430h-150l-274 281l-277 -281h-149z" />
<glyph unicode="&#xcb;" horiz-adv-x="1159" d="M160 0q8 43 12 174q2 76 2 260v590q0 186 -2 262q-4 131 -12 174h850v-166h-645v-448h571v-162h-571v-518h264q182 0 250 2q119 4 161 12v-180h-880zM262 1776q0 25 10 51t27 43q25 25 39 30q25 10 51 11q25 0 51 -11q16 -6 41 -30q16 -16 26.5 -43t10.5 -51 q0 -27 -10.5 -53.5t-26.5 -43.5q-20 -20 -41 -28q-27 -10 -51 -11q-27 0 -51 11q-18 8 -39 28q-16 16 -26.5 43t-10.5 54zM682 1776q0 25 10 51t26 43q25 25 39 30q25 10 52 11q25 0 51 -11q16 -6 41 -30q16 -16 26.5 -43t10.5 -51q0 -27 -10.5 -53.5t-26.5 -43.5 q-20 -20 -41 -28q-27 -10 -51 -11q-27 0 -52 11q-18 8 -39 28q-16 16 -26 43t-10 54z" />
<glyph unicode="&#xcc;" horiz-adv-x="974" d="M139 0v145h242v1170h-242v145h676v-145h-246v-1170h246v-145h-676zM86 2029h229l351 -430h-160z" />
<glyph unicode="&#xcd;" horiz-adv-x="974" d="M139 0v145h242v1170h-242v145h676v-145h-246v-1170h246v-145h-676zM297 1599l351 430h229l-420 -430h-160z" />
<glyph unicode="&#xce;" horiz-adv-x="974" d="M139 0v145h242v1170h-242v145h676v-145h-246v-1170h246v-145h-676zM52 1599l340 430h170l340 -430h-150l-274 281l-277 -281h-149z" />
<glyph unicode="&#xcf;" horiz-adv-x="974" d="M139 0v145h242v1170h-242v145h676v-145h-246v-1170h246v-145h-676zM140 1776q0 25 10 51t27 43q25 25 39 30q25 10 51 11q25 0 51 -11q16 -6 41 -30q16 -16 26.5 -43t10.5 -51q0 -27 -10.5 -53.5t-26.5 -43.5q-20 -20 -41 -28q-27 -10 -51 -11q-27 0 -51 11q-18 8 -39 28 q-16 16 -26.5 43t-10.5 54zM560 1776q0 25 10 51t26 43q25 25 39 30q25 10 52 11q25 0 51 -11q16 -6 41 -30q16 -16 26.5 -43t10.5 -51q0 -27 -10.5 -53.5t-26.5 -43.5q-20 -20 -41 -28q-27 -10 -51 -11q-27 0 -52 11q-18 8 -39 28q-16 16 -26 43t-10 54z" />
<glyph unicode="&#xd0;" horiz-adv-x="1433" d="M0 690v146h174v307v131q0 43 -4 108q-2 39 -10 78q20 0 53 2q10 0 33.5 1t38.5 1q12 0 40.5 1t43 1t43 1t43.5 1q23 0 44 1t42 1h73q23 0 93 -4q35 -2 108 -18q57 -12 115 -37q61 -27 114 -61q59 -41 107 -93q47 -53 84 -127q39 -76 59 -169q20 -90 21 -222 q0 -152 -33 -262q-35 -117 -88 -196q-57 -84 -129 -140q-78 -57 -154 -90q-72 -31 -161 -47q-78 -14 -154 -14h-57q-10 0 -32 1t-34 1q-10 0 -34.5 1t-37.5 1q-18 0 -36.5 1t-34.5 1q-29 2 -85.5 3t-84.5 1q4 23 8 78q4 61 4 104q0 18 1 61.5t1 67.5v144v235h-174zM365 166 q86 -8 92 -8q37 -2 129 -2q66 0 131 12q63 12 125 41q58 28 110 74q49 43 88 108.5t60 143.5q20 80 20 186q0 168 -43 280q-41 111 -114 181q-70 68 -168 98q-94 31 -205 31q-8 0 -26.5 -1t-28.5 -1h-64q-10 0 -30.5 -1t-28.5 -1q-10 0 -25.5 -1t-21.5 -1v-469h380v-146 h-380v-524z" />
<glyph unicode="&#xd1;" horiz-adv-x="1499" d="M160 0q8 43 12 174q2 76 2 260v590q0 186 -2 262q-4 131 -12 174h180l795 -1157v1157h180q-4 -23 -8 -74q-4 -57 -4 -100q0 -18 -1.5 -58t-1.5 -63v-141v-1024h-165l-795 1151v-1151h-180zM383 1634q0 41 14 92q12 43 37 80t59.5 57.5t82.5 20.5q12 0 40 -4q10 -2 41 -10 q14 -4 43 -17q2 0 19.5 -8t28.5 -12l27.5 -11.5t21.5 -9.5q14 -6 38.5 -14t35 -10t32.5 -2q37 0 58 24q20 23 26 60h107q0 -39 -15 -92q-10 -41 -39 -80q-27 -37 -61.5 -57.5t-83.5 -20.5q-33 0 -80 14q-53 16 -88 33q-68 33 -92 41q-34 12 -62 12q-39 0 -59 -24 q-25 -27 -27 -62h-104z" />
<glyph unicode="&#xd2;" horiz-adv-x="1458" d="M94 721q0 117 25 221q23 92 69 188q47 92 103 152q63 66 130.5 111t149.5 69q74 23 158 23q121 0 232 -49q109 -49 194 -144q86 -95 135 -233t49 -320q0 -178 -53 -321q-52 -141 -141 -240q-90 -100 -203 -151q-111 -51 -231 -52q-123 0 -234 50q-109 49 -194 143 q-84 94 -138 233q-51 136 -51 320zM291 745q0 -145 28 -247q29 -104 89 -187q53 -76 135 -118q80 -43 178 -43q94 0 170 38q82 43 133 111q59 78 88 178q33 111 33 238q0 137 -31 248q-31 113 -86 188q-57 80 -135 119q-82 41 -172 41q-92 0 -174 -41q-80 -39 -137 -113 q-57 -72 -88 -178q-31 -105 -31 -234zM328 2029h229l351 -430h-160z" />
<glyph unicode="&#xd3;" horiz-adv-x="1458" d="M94 721q0 117 25 221q23 92 69 188q47 92 103 152q63 66 130.5 111t149.5 69q74 23 158 23q121 0 232 -49q109 -49 194 -144q86 -95 135 -233t49 -320q0 -178 -53 -321q-52 -141 -141 -240q-90 -100 -203 -151q-111 -51 -231 -52q-123 0 -234 50q-109 49 -194 143 q-84 94 -138 233q-51 136 -51 320zM291 745q0 -145 28 -247q29 -104 89 -187q53 -76 135 -118q80 -43 178 -43q94 0 170 38q82 43 133 111q59 78 88 178q33 111 33 238q0 137 -31 248q-31 113 -86 188q-57 80 -135 119q-82 41 -172 41q-92 0 -174 -41q-80 -39 -137 -113 q-57 -72 -88 -178q-31 -105 -31 -234zM536 1599l351 430h229l-420 -430h-160z" />
<glyph unicode="&#xd4;" horiz-adv-x="1458" d="M94 721q0 117 25 221q23 92 69 188q47 92 103 152q63 66 130.5 111t149.5 69q74 23 158 23q121 0 232 -49q109 -49 194 -144q86 -95 135 -233t49 -320q0 -178 -53 -321q-52 -141 -141 -240q-90 -100 -203 -151q-111 -51 -231 -52q-123 0 -234 50q-109 49 -194 143 q-84 94 -138 233q-51 136 -51 320zM291 745q0 -145 28 -247q29 -104 89 -187q53 -76 135 -118q80 -43 178 -43q94 0 170 38q82 43 133 111q59 78 88 178q33 111 33 238q0 137 -31 248q-31 113 -86 188q-57 80 -135 119q-82 41 -172 41q-92 0 -174 -41q-80 -39 -137 -113 q-57 -72 -88 -178q-31 -105 -31 -234zM291 1599l340 430h170l340 -430h-150l-274 281l-277 -281h-149z" />
<glyph unicode="&#xd5;" horiz-adv-x="1458" d="M94 721q0 117 25 221q23 92 69 188q47 92 103 152q63 66 130.5 111t149.5 69q74 23 158 23q121 0 232 -49q109 -49 194 -144q86 -95 135 -233t49 -320q0 -178 -53 -321q-52 -141 -141 -240q-90 -100 -203 -151q-111 -51 -231 -52q-123 0 -234 50q-109 49 -194 143 q-84 94 -138 233q-51 136 -51 320zM291 745q0 -145 28 -247q29 -104 89 -187q53 -76 135 -118q80 -43 178 -43q94 0 170 38q82 43 133 111q59 78 88 178q33 111 33 238q0 137 -31 248q-31 113 -86 188q-57 80 -135 119q-82 41 -172 41q-92 0 -174 -41q-80 -39 -137 -113 q-57 -72 -88 -178q-31 -105 -31 -234zM362 1634q0 41 14 92q12 43 37 80t59.5 57.5t82.5 20.5q12 0 40 -4q10 -2 41 -10q14 -4 43 -17q2 0 19.5 -8t28.5 -12l27.5 -11.5t21.5 -9.5q14 -6 38.5 -14t35 -10t32.5 -2q37 0 58 24q20 23 26 60h107q0 -39 -15 -92q-10 -41 -39 -80 q-27 -37 -61.5 -57.5t-83.5 -20.5q-33 0 -80 14q-53 16 -88 33q-68 33 -92 41q-34 12 -62 12q-39 0 -59 -24q-25 -27 -27 -62h-104z" />
<glyph unicode="&#xd6;" horiz-adv-x="1458" d="M94 721q0 117 25 221q23 92 69 188q47 92 103 152q63 66 130.5 111t149.5 69q74 23 158 23q121 0 232 -49q109 -49 194 -144q86 -95 135 -233t49 -320q0 -178 -53 -321q-52 -141 -141 -240q-90 -100 -203 -151q-111 -51 -231 -52q-123 0 -234 50q-109 49 -194 143 q-84 94 -138 233q-51 136 -51 320zM291 745q0 -145 28 -247q29 -104 89 -187q53 -76 135 -118q80 -43 178 -43q94 0 170 38q82 43 133 111q59 78 88 178q33 111 33 238q0 137 -31 248q-31 113 -86 188q-57 80 -135 119q-82 41 -172 41q-92 0 -174 -41q-80 -39 -137 -113 q-57 -72 -88 -178q-31 -105 -31 -234zM379 1776q0 25 10 51t27 43q25 25 39 30q25 10 51 11q25 0 51 -11q16 -6 41 -30q16 -16 26.5 -43t10.5 -51q0 -27 -10.5 -53.5t-26.5 -43.5q-20 -20 -41 -28q-27 -10 -51 -11q-27 0 -51 11q-18 8 -39 28q-16 16 -26.5 43t-10.5 54z M799 1776q0 25 10 51t26 43q25 25 39 30q25 10 52 11q25 0 51 -11q16 -6 41 -30q16 -16 26.5 -43t10.5 -51q0 -27 -10.5 -53.5t-26.5 -43.5q-20 -20 -41 -28q-27 -10 -51 -11q-27 0 -52 11q-18 8 -39 28q-16 16 -26 43t-10 54z" />
<glyph unicode="&#xd7;" d="M199 1022l104 104l299 -299l295 295l104 -106l-292 -293l288 -289l-106 -106l-289 288l-293 -292l-106 104l293 295z" />
<glyph unicode="&#xd8;" horiz-adv-x="1458" d="M94 721q0 117 25 221q23 92 69 188q47 92 103 152q63 66 130.5 111t149.5 69q74 23 158 23q80 0 139 -17q63 -18 129 -53l64 115h145l-100 -189q47 -43 94 -108q45 -66 76 -137q27 -63 47 -164q16 -80 16 -193q0 -178 -53 -321q-52 -141 -141 -240q-90 -100 -203 -151 q-111 -51 -231 -52q-160 0 -297 82l-72 -133h-147l114 213q-98 94 -155 242q-60 149 -60 342zM291 745q0 -145 28 -245q31 -111 87 -187l507 944q-88 53 -192 54q-92 0 -174 -41q-80 -39 -137 -113q-57 -72 -88 -178q-31 -105 -31 -234zM500 217q95 -68 221 -67q94 0 170 38 q82 43 133 111q59 78 88 178q33 111 33 238q0 145 -35 262q-37 121 -96 192z" />
<glyph unicode="&#xd9;" horiz-adv-x="1439" d="M160 1460h205v-901q0 -96 18 -176q18 -84 55 -133q39 -53 107 -86q59 -29 166 -29q102 0 161 29q65 31 105 86q37 49 55 133q18 80 19 176v901h204q-10 -61 -12 -170q-4 -147 -4 -266v-510q0 -123 -31 -221q-29 -94 -98 -170q-61 -68 -166 -109q-98 -39 -233 -39 q-139 0 -238 39q-106 43 -168 109q-63 70 -98 170q-33 96 -33 221v510q0 186 -2 262q-2 113 -12 174zM317 2029h229l351 -430h-160z" />
<glyph unicode="&#xda;" horiz-adv-x="1439" d="M160 1460h205v-901q0 -96 18 -176q18 -84 55 -133q39 -53 107 -86q59 -29 166 -29q102 0 161 29q65 31 105 86q37 49 55 133q18 80 19 176v901h204q-10 -61 -12 -170q-4 -147 -4 -266v-510q0 -123 -31 -221q-29 -94 -98 -170q-61 -68 -166 -109q-98 -39 -233 -39 q-139 0 -238 39q-106 43 -168 109q-63 70 -98 170q-33 96 -33 221v510q0 186 -2 262q-2 113 -12 174zM528 1599l351 430h229l-420 -430h-160z" />
<glyph unicode="&#xdb;" horiz-adv-x="1439" d="M160 1460h205v-901q0 -96 18 -176q18 -84 55 -133q39 -53 107 -86q59 -29 166 -29q102 0 161 29q65 31 105 86q37 49 55 133q18 80 19 176v901h204q-10 -61 -12 -170q-4 -147 -4 -266v-510q0 -123 -31 -221q-29 -94 -98 -170q-61 -68 -166 -109q-98 -39 -233 -39 q-139 0 -238 39q-106 43 -168 109q-63 70 -98 170q-33 96 -33 221v510q0 186 -2 262q-2 113 -12 174zM283 1599l340 430h170l340 -430h-150l-274 281l-277 -281h-149z" />
<glyph unicode="&#xdc;" horiz-adv-x="1439" d="M160 1460h205v-901q0 -96 18 -176q18 -84 55 -133q39 -53 107 -86q59 -29 166 -29q102 0 161 29q65 31 105 86q37 49 55 133q18 80 19 176v901h204q-10 -61 -12 -170q-4 -147 -4 -266v-510q0 -123 -31 -221q-29 -94 -98 -170q-61 -68 -166 -109q-98 -39 -233 -39 q-139 0 -238 39q-106 43 -168 109q-63 70 -98 170q-33 96 -33 221v510q0 186 -2 262q-2 113 -12 174zM371 1776q0 25 10 51t27 43q25 25 39 30q25 10 51 11q25 0 51 -11q16 -6 41 -30q16 -16 26.5 -43t10.5 -51q0 -27 -10.5 -53.5t-26.5 -43.5q-20 -20 -41 -28 q-27 -10 -51 -11q-27 0 -51 11q-18 8 -39 28q-16 16 -26.5 43t-10.5 54zM791 1776q0 25 10 51t26 43q25 25 39 30q25 10 52 11q25 0 51 -11q16 -6 41 -30q16 -16 26.5 -43t10.5 -51q0 -27 -10.5 -53.5t-26.5 -43.5q-20 -20 -41 -28q-27 -10 -51 -11q-27 0 -52 11 q-18 8 -39 28q-16 16 -26 43t-10 54z" />
<glyph unicode="&#xdd;" horiz-adv-x="1318" d="M35 1460h229l395 -661l375 661h232l-78 -114q-14 -20 -64 -99l-55 -90q-12 -18 -18.5 -30.5t-15.5 -28l-19 -33.5l-271 -463v-168q0 -184 3 -260q4 -131 12 -174h-219q8 43 12 174q2 76 2 260v176l-264 455q-12 23 -27.5 47.5l-30.5 48.5q-27 47 -57 94q-20 33 -65 99 q-72 102 -76 106zM471 1599l351 430h229l-420 -430h-160z" />
<glyph unicode="&#xde;" horiz-adv-x="1193" d="M160 0q8 43 12 174q2 76 2 260v709v131q0 43 -4 108q-2 39 -10 78h205v-264q25 0 51 1t55 1q18 0 56 1t59 1q125 0 219 -26q100 -29 168 -84q72 -59 106 -138q37 -84 37 -192.5t-37 -198.5q-37 -88 -104 -149q-66 -59 -168 -95q-96 -33 -221 -32q-74 0 -113 2 q-74 4 -108 8q0 -82 2 -119q0 -12 1 -24.5t1 -24.5q0 -8 1 -23.5t1 -23.5q0 -16 4 -45q2 -14 6 -35h-221zM365 451q33 -4 98 -9q33 -2 106 -2q106 0 174 25q72 27 109 65q45 47 57 95q16 59 17 114q0 59 -19 115q-18 59 -57 96q-41 41 -108.5 65.5t-166.5 24.5h-63 q-10 0 -26.5 -1t-24.5 -1t-24.5 -1t-22.5 -1q-10 0 -23.5 -1t-25.5 -1v-583z" />
<glyph unicode="&#xdf;" horiz-adv-x="1236" d="M129 0q8 33 14 94q8 72 11 119q4 86 4 137q0 23 1 71t1 73v626q0 137 39 230q41 96 102 155q63 59 148 88q80 27 169 27q113 0 203 -29q84 -27 145.5 -76t88.5 -106q29 -63 28 -125q0 -80 -24 -131q-27 -55 -60 -86q-45 -41 -77 -57q-14 -6 -76 -43q-33 -18 -60 -49 q-25 -29 -24 -72q0 -40 18 -68q18 -29 43 -47q23 -18 62 -39l67 -37q25 -14 78 -51q41 -29 76 -69.5t55 -90.5q23 -55 23 -116q0 -76 -31 -148q-29 -68 -80 -112q-47 -41 -123 -68q-70 -25 -157 -25q-35 0 -74 7q-31 4 -74 16q-29 8 -65 22q-33 12 -50 27l52 180 q16 -16 41 -34q16 -12 53 -29q23 -10 57 -21q27 -8 60 -8q46 0 86 12.5t67 36.5q33 29 45 58q16 37 17 77q0 35 -15 64q-16 33 -39 55q-29 29 -55 47q-12 10 -68 39q-37 18 -88 51q-43 28 -79 68q-39 43 -60 88q-23 51 -22 115q0 59 24 102q29 49 58 74q25 20 77 53 q27 16 76 49q35 23 60 58q23 31 22 82q0 41 -22.5 79.5t-57.5 61.5q-43 29 -78 41q-41 14 -86 14q-55 0 -106 -14q-49 -14 -100 -51q-46 -34 -74 -92q-31 -66 -31 -144v-1159h-215z" />
<glyph unicode="&#xe0;" horiz-adv-x="1148" d="M104 410q0 109 27 208q23 86 70 166q41 66 82 113t96 80t117 47q70 16 139 16q37 0 84 -6q68 -8 96 -14q45 -8 96 -25l88 -30v-435q0 -182 23 -317q23 -139 53 -213h-176l-12 37q-10 25 -19 51q-12 41 -18 63.5t-14 67.5q-35 -43 -84 -92q-57 -57 -90 -80 q-53 -37 -101 -53q-53 -18 -106 -19q-66 0 -125 27q-66 31 -113 82q-55 61 -82 135q-31 85 -31 191zM291 461q0 -88 14 -143.5t41 -98.5q20 -35 60 -55q33 -18 63 -19q43 0 92 25q47 23 96 70q43 41 91 100q39 49 67 115v374l-39 15q-33 8 -51 12q-35 8 -63 10q-45 4 -66 4 t-66 -8q-33 -6 -63.5 -24.5t-60.5 -49.5q-35 -35 -56 -73q-27 -45 -43 -115q-16 -71 -16 -139zM225 1599h229l351 -430h-160z" />
<glyph unicode="&#xe1;" horiz-adv-x="1148" d="M104 410q0 109 27 208q23 86 70 166q41 66 82 113t96 80t117 47q70 16 139 16q37 0 84 -6q68 -8 96 -14q45 -8 96 -25l88 -30v-435q0 -182 23 -317q23 -139 53 -213h-176l-12 37q-10 25 -19 51q-12 41 -18 63.5t-14 67.5q-35 -43 -84 -92q-57 -57 -90 -80 q-53 -37 -101 -53q-53 -18 -106 -19q-66 0 -125 27q-66 31 -113 82q-55 61 -82 135q-31 85 -31 191zM291 461q0 -88 14 -143.5t41 -98.5q20 -35 60 -55q33 -18 63 -19q43 0 92 25q47 23 96 70q43 41 91 100q39 49 67 115v374l-39 15q-33 8 -51 12q-35 8 -63 10q-45 4 -66 4 t-66 -8q-33 -6 -63.5 -24.5t-60.5 -49.5q-35 -35 -56 -73q-27 -45 -43 -115q-16 -71 -16 -139zM436 1169l351 430h229l-420 -430h-160z" />
<glyph unicode="&#xe2;" horiz-adv-x="1148" d="M104 410q0 109 27 208q23 86 70 166q41 66 82 113t96 80t117 47q70 16 139 16q37 0 84 -6q68 -8 96 -14q45 -8 96 -25l88 -30v-435q0 -182 23 -317q23 -139 53 -213h-176l-12 37q-10 25 -19 51q-12 41 -18 63.5t-14 67.5q-35 -43 -84 -92q-57 -57 -90 -80 q-53 -37 -101 -53q-53 -18 -106 -19q-66 0 -125 27q-66 31 -113 82q-55 61 -82 135q-31 85 -31 191zM291 461q0 -88 14 -143.5t41 -98.5q20 -35 60 -55q33 -18 63 -19q43 0 92 25q47 23 96 70q43 41 91 100q39 49 67 115v374l-39 15q-33 8 -51 12q-35 8 -63 10q-45 4 -66 4 t-66 -8q-33 -6 -63.5 -24.5t-60.5 -49.5q-35 -35 -56 -73q-27 -45 -43 -115q-16 -71 -16 -139zM191 1169l340 430h170l340 -430h-150l-274 281l-277 -281h-149z" />
<glyph unicode="&#xe3;" horiz-adv-x="1148" d="M104 410q0 109 27 208q23 86 70 166q41 66 82 113t96 80t117 47q70 16 139 16q37 0 84 -6q68 -8 96 -14q45 -8 96 -25l88 -30v-435q0 -182 23 -317q23 -139 53 -213h-176l-12 37q-10 25 -19 51q-12 41 -18 63.5t-14 67.5q-35 -43 -84 -92q-57 -57 -90 -80 q-53 -37 -101 -53q-53 -18 -106 -19q-66 0 -125 27q-66 31 -113 82q-55 61 -82 135q-31 85 -31 191zM291 461q0 -88 14 -143.5t41 -98.5q20 -35 60 -55q33 -18 63 -19q43 0 92 25q47 23 96 70q43 41 91 100q39 49 67 115v374l-39 15q-33 8 -51 12q-35 8 -63 10q-45 4 -66 4 t-66 -8q-33 -6 -63.5 -24.5t-60.5 -49.5q-35 -35 -56 -73q-27 -45 -43 -115q-16 -71 -16 -139zM260 1204q0 41 14 92q12 43 37 80t59.5 57.5t82.5 20.5q12 0 40 -4q10 -2 41 -10q14 -4 43 -17q2 0 19.5 -8t28.5 -12l27.5 -11.5t21.5 -9.5q14 -6 38.5 -14t35 -10t32.5 -2 q37 0 58 24q20 23 26 60h107q0 -39 -15 -92q-10 -41 -39 -80q-27 -37 -61.5 -57.5t-83.5 -20.5q-33 0 -80 14q-53 16 -88 33q-68 33 -92 41q-34 12 -62 12q-39 0 -59 -24q-25 -27 -27 -62h-104z" />
<glyph unicode="&#xe4;" horiz-adv-x="1148" d="M104 410q0 109 27 208q23 86 70 166q41 66 82 113t96 80t117 47q70 16 139 16q37 0 84 -6q68 -8 96 -14q45 -8 96 -25l88 -30v-435q0 -182 23 -317q23 -139 53 -213h-176l-12 37q-10 25 -19 51q-12 41 -18 63.5t-14 67.5q-35 -43 -84 -92q-57 -57 -90 -80 q-53 -37 -101 -53q-53 -18 -106 -19q-66 0 -125 27q-66 31 -113 82q-55 61 -82 135q-31 85 -31 191zM291 461q0 -88 14 -143.5t41 -98.5q20 -35 60 -55q33 -18 63 -19q43 0 92 25q47 23 96 70q43 41 91 100q39 49 67 115v374l-39 15q-33 8 -51 12q-35 8 -63 10q-45 4 -66 4 t-66 -8q-33 -6 -63.5 -24.5t-60.5 -49.5q-35 -35 -56 -73q-27 -45 -43 -115q-16 -71 -16 -139zM279 1346q0 25 10 51t27 43q25 25 39 30q25 10 51 11q25 0 51 -11q16 -6 41 -30q16 -16 26.5 -43t10.5 -51q0 -27 -10.5 -53.5t-26.5 -43.5q-20 -20 -41 -28q-27 -10 -51 -11 q-27 0 -51 11q-18 8 -39 28q-16 16 -26.5 43t-10.5 54zM699 1346q0 25 10 51t26 43q25 25 39 30q25 10 52 11q25 0 51 -11q16 -6 41 -30q16 -16 26.5 -43t10.5 -51q0 -27 -10.5 -53.5t-26.5 -43.5q-20 -20 -41 -28q-27 -10 -51 -11q-27 0 -52 11q-18 8 -39 28q-16 16 -26 43 t-10 54z" />
<glyph unicode="&#xe5;" horiz-adv-x="1148" d="M104 410q0 109 27 208q23 86 70 166q41 66 82 113t96 80t117 47q70 16 139 16q37 0 84 -6q68 -8 96 -14q45 -8 96 -25l88 -30v-435q0 -182 23 -317q23 -139 53 -213h-176l-12 37q-10 25 -19 51q-12 41 -18 63.5t-14 67.5q-35 -43 -84 -92q-57 -57 -90 -80 q-53 -37 -101 -53q-53 -18 -106 -19q-66 0 -125 27q-66 31 -113 82q-55 61 -82 135q-31 85 -31 191zM291 461q0 -88 14 -143.5t41 -98.5q20 -35 60 -55q33 -18 63 -19q43 0 92 25q47 23 96 70q43 41 91 100q39 49 67 115v374l-39 15q-33 8 -51 12q-35 8 -63 10q-45 4 -66 4 t-66 -8q-33 -6 -63.5 -24.5t-60.5 -49.5q-35 -35 -56 -73q-27 -45 -43 -115q-16 -71 -16 -139zM399 1384q0 41 16 84q14 37 47 70q31 31 68 45q43 16 84 16t84 -16q37 -14 68 -45q33 -33 47 -70q16 -43 16 -84t-16 -84q-12 -33 -47 -67.5t-68 -46.5q-43 -16 -84 -16.5 t-84 16.5q-33 12 -67.5 47t-47.5 67q-16 43 -16 84zM514 1384q0 -43 28.5 -71.5t71.5 -28.5t71.5 28.5t28.5 71.5q0 45 -28 74q-27 27 -72 27t-72 -27q-28 -29 -28 -74z" />
<glyph unicode="&#xe6;" horiz-adv-x="1744" d="M94 256q0 47 21 113q18 59 63 106q41 45 121 84q70 35 186 51l66 6q27 2 80 2q14 0 38.5 2.5t35.5 2.5q12 0 29.5 1t21.5 1v86q0 41 -21 77q-14 27 -53 52q-33 20 -84 30q-55 10 -102 11q-45 0 -76 -9q-34 -9 -68 -24q-23 -10 -71 -39q-29 -16 -80 -53v41q0 12 1 26.5 t1 28.5q0 18 4 55q0 8 1 22.5t3 20.5q10 4 74 33q39 18 71 29q25 8 82 20q39 8 103 8q51 0 100 -12q66 -16 94 -31q47 -25 82 -55q39 -37 64 -78q68 84 161 129q98 47 203 47q72 0 137 -20q57 -18 103 -53q43 -34 74 -80q27 -39 47 -99q20 -61 26 -110q8 -78 8 -113v-80 h-710q3 -89 31 -153q27 -66 69 -107q41 -41 102.5 -63.5t127.5 -22.5q47 0 94 6q61 8 92 17q43 12 88 31q41 16 90 47l21 -164q-57 -31 -103 -47q-49 -18 -98 -30.5t-101 -18.5q-35 -4 -108 -5q-66 0 -121 15q-66 16 -110 41q-57 31 -97 69q-49 49 -78 97q-20 -25 -22 -27 q-12 -12 -23 -25q-45 -49 -88 -79q-39 -29 -92 -54q-39 -18 -92 -28q-41 -8 -92 -9q-70 0 -131 23q-59 23 -102.5 61.5t-67.5 90.5q-25 49 -25 106zM281 281q0 -31 12 -56q14 -27 35 -45q16 -14 53 -28q31 -12 70 -13q25 0 73 8q37 6 74 25q31 14 76 57q41 39 82 97 q6 6 8 10q4 8 6 14q-8 39 -10 66q-4 45 -4 69q-4 0 -22.5 -1t-31.5 -1q-10 0 -34.5 -1t-36.5 -1q-27 0 -76 -4l-34.5 -5t-24.5 -3q-72 -14 -105 -29q-41 -18 -65 -43q-27 -27 -35 -53q-10 -34 -10 -63zM940 625h520q0 66 -18 114q-16 43 -51 82q-31 33 -72 51q-43 18 -88 19 q-111 0 -188.5 -65.5t-102.5 -200.5z" />
<glyph unicode="&#xe7;" horiz-adv-x="1019" d="M94 489q0 113 37 213q37 102 105 177q70 76 163 118q95 43 215 43q100 0 174 -24q70 -23 127 -62l-34 -180q-74 53 -136 76q-68 25 -145 24q-68 0 -125 -24.5t-100 -73.5q-41 -45 -66 -119q-25 -72 -24 -157q0 -80 22 -148q20 -63 64 -112q45 -51 98 -74q63 -27 131 -27 q92 0 166 31t139 90l21 -174q-41 -31 -76 -51q-31 -16 -80 -32.5t-88 -20.5q-47 -6 -102 -7h-11h-10v-69q6 2 21 2q2 0 12 1t16 1q35 0 64 -12q27 -12 49 -35q18 -18 33 -56q12 -31 12 -67q0 -47 -25 -92q-23 -43 -59 -70q-37 -29 -82 -43q-43 -14 -90 -14q-43 0 -72 10 q-39 14 -63 29l10 100q23 -16 45 -22q29 -8 55 -9q20 0 45 6q29 8 43 17q23 14 33 31q14 23 15 47q0 41 -29 65q-27 25 -70 25q-14 0 -47 -8q-23 -6 -41 -17v201q-72 20 -135 65q-66 45 -109 107q-47 66 -69 143q-27 90 -27 178z" />
<glyph unicode="&#xe8;" horiz-adv-x="1093" d="M94 496q0 119 35 223q35 102 94 172q61 70 152 110q86 39 200 39q74 0 146 -20q59 -16 108 -53q45 -33 76 -80q33 -51 51 -101q12 -37 25 -110q8 -51 8 -113v-39v-39h-708q4 -92 26 -153q25 -63 68 -107q43 -41 100 -63q61 -23 125 -23q94 0 191 23q90 20 184 78l20 -164 q-57 -31 -104 -47q-55 -20 -103 -31q-55 -12 -102 -18q-35 -4 -111 -5q-100 0 -184 33q-88 35 -151 98q-68 68 -107 164.5t-39 225.5zM289 625h522q0 59 -20 114q-18 49 -51 82t-81 51q-45 18 -100 19q-106 0 -178 -66q-69 -63 -92 -200zM178 1599h229l351 -430h-160z" />
<glyph unicode="&#xe9;" horiz-adv-x="1093" d="M94 496q0 119 35 223q35 102 94 172q61 70 152 110q86 39 200 39q74 0 146 -20q59 -16 108 -53q45 -33 76 -80q33 -51 51 -101q12 -37 25 -110q8 -51 8 -113v-39v-39h-708q4 -92 26 -153q25 -63 68 -107q43 -41 100 -63q61 -23 125 -23q94 0 191 23q90 20 184 78l20 -164 q-57 -31 -104 -47q-55 -20 -103 -31q-55 -12 -102 -18q-35 -4 -111 -5q-100 0 -184 33q-88 35 -151 98q-68 68 -107 164.5t-39 225.5zM289 625h522q0 59 -20 114q-18 49 -51 82t-81 51q-45 18 -100 19q-106 0 -178 -66q-69 -63 -92 -200zM389 1169l351 430h229l-420 -430 h-160z" />
<glyph unicode="&#xea;" horiz-adv-x="1093" d="M94 496q0 119 35 223q35 102 94 172q61 70 152 110q86 39 200 39q74 0 146 -20q59 -16 108 -53q45 -33 76 -80q33 -51 51 -101q12 -37 25 -110q8 -51 8 -113v-39v-39h-708q4 -92 26 -153q25 -63 68 -107q43 -41 100 -63q61 -23 125 -23q94 0 191 23q90 20 184 78l20 -164 q-57 -31 -104 -47q-55 -20 -103 -31q-55 -12 -102 -18q-35 -4 -111 -5q-100 0 -184 33q-88 35 -151 98q-68 68 -107 164.5t-39 225.5zM289 625h522q0 59 -20 114q-18 49 -51 82t-81 51q-45 18 -100 19q-106 0 -178 -66q-69 -63 -92 -200zM144 1169l340 430h170l340 -430 h-150l-274 281l-277 -281h-149z" />
<glyph unicode="&#xeb;" horiz-adv-x="1093" d="M94 496q0 119 35 223q35 102 94 172q61 70 152 110q86 39 200 39q74 0 146 -20q59 -16 108 -53q45 -33 76 -80q33 -51 51 -101q12 -37 25 -110q8 -51 8 -113v-39v-39h-708q4 -92 26 -153q25 -63 68 -107q43 -41 100 -63q61 -23 125 -23q94 0 191 23q90 20 184 78l20 -164 q-57 -31 -104 -47q-55 -20 -103 -31q-55 -12 -102 -18q-35 -4 -111 -5q-100 0 -184 33q-88 35 -151 98q-68 68 -107 164.5t-39 225.5zM289 625h522q0 59 -20 114q-18 49 -51 82t-81 51q-45 18 -100 19q-106 0 -178 -66q-69 -63 -92 -200zM232 1346q0 25 10 51t27 43 q25 25 39 30q25 10 51 11q25 0 51 -11q16 -6 41 -30q16 -16 26.5 -43t10.5 -51q0 -27 -10.5 -53.5t-26.5 -43.5q-20 -20 -41 -28q-27 -10 -51 -11q-27 0 -51 11q-18 8 -39 28q-16 16 -26.5 43t-10.5 54zM652 1346q0 25 10 51t26 43q25 25 39 30q25 10 52 11q25 0 51 -11 q16 -6 41 -30q16 -16 26.5 -43t10.5 -51q0 -27 -10.5 -53.5t-26.5 -43.5q-20 -20 -41 -28q-27 -10 -51 -11q-27 0 -52 11q-18 8 -39 28q-16 16 -26 43t-10 54z" />
<glyph unicode="&#xec;" horiz-adv-x="528" d="M156 1020h198v-545q0 -14 1 -52t1 -61q0 -43 4 -133l7 -129q4 -70 8 -100h-205v530v144q0 25 -1 69.5t-1 65.5q0 43 -4 117q-4 63 -8 94zM-125 1599h229l351 -430h-160z" />
<glyph unicode="&#xed;" horiz-adv-x="528" d="M156 1020h198v-545q0 -14 1 -52t1 -61q0 -43 4 -133l7 -129q4 -70 8 -100h-205v530v144q0 25 -1 69.5t-1 65.5q0 43 -4 117q-4 63 -8 94zM86 1169l351 430h229l-420 -430h-160z" />
<glyph unicode="&#xee;" horiz-adv-x="528" d="M156 1020h198v-545q0 -14 1 -52t1 -61q0 -43 4 -133l7 -129q4 -70 8 -100h-205v530v144q0 25 -1 69.5t-1 65.5q0 43 -4 117q-4 63 -8 94zM-159 1169l340 430h170l340 -430h-150l-274 281l-277 -281h-149z" />
<glyph unicode="&#xef;" horiz-adv-x="528" d="M156 1020h198v-545q0 -14 1 -52t1 -61q0 -43 4 -133l7 -129q4 -70 8 -100h-205v530v144q0 25 -1 69.5t-1 65.5q0 43 -4 117q-4 63 -8 94zM-71 1346q0 25 10 51t27 43q25 25 39 30q25 10 51 11q25 0 51 -11q16 -6 41 -30q16 -16 26.5 -43t10.5 -51q0 -27 -10.5 -53.5 t-26.5 -43.5q-20 -20 -41 -28q-27 -10 -51 -11q-27 0 -51 11q-18 8 -39 28q-16 16 -26.5 43t-10.5 54zM349 1346q0 25 10 51t26 43q25 25 39 30q25 10 52 11q25 0 51 -11q16 -6 41 -30q16 -16 26.5 -43t10.5 -51q0 -27 -10.5 -53.5t-26.5 -43.5q-20 -20 -41 -28 q-27 -10 -51 -11q-27 0 -52 11q-18 8 -39 28q-16 16 -26 43t-10 54z" />
<glyph unicode="&#xf0;" horiz-adv-x="1159" d="M94 487q0 78 19 150q14 59 51 127q29 55 74 100q47 47 90 74q55 35 98 47q49 14 100 14q63 0 105 -8q47 -10 84 -24q31 -12 69 -41q23 -16 68 -58q-31 101 -86 203q-45 84 -129 193l-234 -146l-81 109l225 139q-51 51 -113 96q-57 43 -115 70l175 88q55 -33 100 -72 q43 -37 96 -94l221 137l84 -104l-217 -135q66 -88 109 -164q49 -89 86 -184q35 -92 57 -195q20 -96 21 -203q0 -154 -35 -276q-33 -119 -96 -197q-66 -80 -154 -119q-90 -39 -207 -39q-104 0 -188 33q-82 33 -145.5 98.5t-96.5 159.5q-35 98 -35 221zM281 487q0 -88 20 -149 q23 -68 59 -111q39 -45 93 -69q47 -23 116.5 -23t122.5 24.5t90 71.5q35 43 58 111q20 61 20 145q0 88 -20 150q-23 68 -60 111q-39 45 -92 69q-47 23 -119 23q-66 0 -120 -25q-53 -25 -93 -72q-41 -49 -57 -110q-18 -64 -18 -146z" />
<glyph unicode="&#xf1;" horiz-adv-x="1183" d="M104 1020h181q6 -14 12 -41q2 -8 5 -26.5t5 -26.5q4 -18 8 -56l9 -45q98 117 192 164q102 51 203 51q160 0 246 -104q84 -102 84 -311v-625h-185v551q0 92 -12 154q-12 59 -37 96q-23 35 -63 51q-29 12 -88 12q-53 0 -105 -24q-47 -23 -94 -66q-45 -43 -78 -92 q-31 -47 -47 -102v-580h-186v614q0 143 -17 252q-17 107 -33 154zM244 1204q0 41 14 92q12 43 37 80t59.5 57.5t82.5 20.5q12 0 40 -4q10 -2 41 -10q14 -4 43 -17q2 0 19.5 -8t28.5 -12l27.5 -11.5t21.5 -9.5q14 -6 38.5 -14t35 -10t32.5 -2q37 0 58 24q20 23 26 60h107 q0 -39 -15 -92q-10 -41 -39 -80q-27 -37 -61.5 -57.5t-83.5 -20.5q-33 0 -80 14q-53 16 -88 33q-68 33 -92 41q-34 12 -62 12q-39 0 -59 -24q-25 -27 -27 -62h-104z" />
<glyph unicode="&#xf2;" horiz-adv-x="1138" d="M94 506q0 131 39 227q39 98 107 168q70 72 153 105q92 35 187 34q100 0 188 -34q82 -33 147 -105q61 -68 97 -168q33 -96 32 -227q0 -133 -38 -230q-40 -98 -105 -165q-63 -66 -153 -101q-92 -35 -189 -35q-100 0 -188 35q-84 33 -146 101q-63 70 -96 165 q-35 101 -35 230zM281 506q0 -94 20 -158q23 -74 59 -115q45 -51 93 -73q52 -25 116 -25q61 0 112.5 24.5t94.5 73.5q39 45 62 115q23 72 22 158q0 88 -20 156q-23 74 -60 118q-40 49 -92 74q-57 27 -119 27q-55 0 -112 -27q-52 -25 -92 -74q-41 -49 -62 -118 q-22 -74 -22 -156zM180 1599h229l351 -430h-160z" />
<glyph unicode="&#xf3;" horiz-adv-x="1138" d="M94 506q0 131 39 227q39 98 107 168q70 72 153 105q92 35 187 34q100 0 188 -34q82 -33 147 -105q61 -68 97 -168q33 -96 32 -227q0 -133 -38 -230q-40 -98 -105 -165q-63 -66 -153 -101q-92 -35 -189 -35q-100 0 -188 35q-84 33 -146 101q-63 70 -96 165 q-35 101 -35 230zM281 506q0 -94 20 -158q23 -74 59 -115q45 -51 93 -73q52 -25 116 -25q61 0 112.5 24.5t94.5 73.5q39 45 62 115q23 72 22 158q0 88 -20 156q-23 74 -60 118q-40 49 -92 74q-57 27 -119 27q-55 0 -112 -27q-52 -25 -92 -74q-41 -49 -62 -118 q-22 -74 -22 -156zM391 1169l351 430h229l-420 -430h-160z" />
<glyph unicode="&#xf4;" horiz-adv-x="1138" d="M94 506q0 131 39 227q39 98 107 168q70 72 153 105q92 35 187 34q100 0 188 -34q82 -33 147 -105q61 -68 97 -168q33 -96 32 -227q0 -133 -38 -230q-40 -98 -105 -165q-63 -66 -153 -101q-92 -35 -189 -35q-100 0 -188 35q-84 33 -146 101q-63 70 -96 165 q-35 101 -35 230zM281 506q0 -94 20 -158q23 -74 59 -115q45 -51 93 -73q52 -25 116 -25q61 0 112.5 24.5t94.5 73.5q39 45 62 115q23 72 22 158q0 88 -20 156q-23 74 -60 118q-40 49 -92 74q-57 27 -119 27q-55 0 -112 -27q-52 -25 -92 -74q-41 -49 -62 -118 q-22 -74 -22 -156zM146 1169l340 430h170l340 -430h-150l-274 281l-277 -281h-149z" />
<glyph unicode="&#xf5;" horiz-adv-x="1138" d="M94 506q0 131 39 227q39 98 107 168q70 72 153 105q92 35 187 34q100 0 188 -34q82 -33 147 -105q61 -68 97 -168q33 -96 32 -227q0 -133 -38 -230q-40 -98 -105 -165q-63 -66 -153 -101q-92 -35 -189 -35q-100 0 -188 35q-84 33 -146 101q-63 70 -96 165 q-35 101 -35 230zM281 506q0 -94 20 -158q23 -74 59 -115q45 -51 93 -73q52 -25 116 -25q61 0 112.5 24.5t94.5 73.5q39 45 62 115q23 72 22 158q0 88 -20 156q-23 74 -60 118q-40 49 -92 74q-57 27 -119 27q-55 0 -112 -27q-52 -25 -92 -74q-41 -49 -62 -118 q-22 -74 -22 -156zM215 1204q0 41 14 92q12 43 37 80t59.5 57.5t82.5 20.5q12 0 40 -4q10 -2 41 -10q14 -4 43 -17q2 0 19.5 -8t28.5 -12l27.5 -11.5t21.5 -9.5q14 -6 38.5 -14t35 -10t32.5 -2q37 0 58 24q20 23 26 60h107q0 -39 -15 -92q-10 -41 -39 -80 q-27 -37 -61.5 -57.5t-83.5 -20.5q-33 0 -80 14q-53 16 -88 33q-68 33 -92 41q-34 12 -62 12q-39 0 -59 -24q-25 -27 -27 -62h-104z" />
<glyph unicode="&#xf6;" horiz-adv-x="1138" d="M94 506q0 131 39 227q39 98 107 168q70 72 153 105q92 35 187 34q100 0 188 -34q82 -33 147 -105q61 -68 97 -168q33 -96 32 -227q0 -133 -38 -230q-40 -98 -105 -165q-63 -66 -153 -101q-92 -35 -189 -35q-100 0 -188 35q-84 33 -146 101q-63 70 -96 165 q-35 101 -35 230zM281 506q0 -94 20 -158q23 -74 59 -115q45 -51 93 -73q52 -25 116 -25q61 0 112.5 24.5t94.5 73.5q39 45 62 115q23 72 22 158q0 88 -20 156q-23 74 -60 118q-40 49 -92 74q-57 27 -119 27q-55 0 -112 -27q-52 -25 -92 -74q-41 -49 -62 -118 q-22 -74 -22 -156zM234 1346q0 25 10 51t27 43q25 25 39 30q25 10 51 11q25 0 51 -11q16 -6 41 -30q16 -16 26.5 -43t10.5 -51q0 -27 -10.5 -53.5t-26.5 -43.5q-20 -20 -41 -28q-27 -10 -51 -11q-27 0 -51 11q-18 8 -39 28q-16 16 -26.5 43t-10.5 54zM654 1346q0 25 10 51 t26 43q25 25 39 30q25 10 52 11q25 0 51 -11q16 -6 41 -30q16 -16 26.5 -43t10.5 -51q0 -27 -10.5 -53.5t-26.5 -43.5q-20 -20 -41 -28q-27 -10 -51 -11q-27 0 -52 11q-18 8 -39 28q-16 16 -26 43t-10 54z" />
<glyph unicode="&#xf7;" d="M156 649v152h888v-152h-888zM459 408q0 33 10 53q12 25 31 43q16 16 45 31q20 10 55 10q33 0 53 -10q25 -12 43 -31q23 -23 31 -43q10 -27 10 -53q0 -29 -10 -56q-8 -20 -31 -43q-18 -18 -42.5 -30.5t-53.5 -12.5q-31 0 -55 13q-29 14 -45 30q-18 18 -31 43 q-10 21 -10 56zM459 1044.5q0 32.5 10 53.5q14 29 30.5 45t45.5 31q20 10 55 10q33 0 53 -10q25 -12 43 -31q23 -23 31 -45q10 -27 10 -53.5t-10 -53.5q-8 -23 -31 -45q-14 -14 -43 -28q-25 -12 -53 -13q-31 0 -55 13q-33 16 -45 28q-16 16 -31 45q-10 21 -10 53.5z" />
<glyph unicode="&#xf8;" horiz-adv-x="1138" d="M94 508q0 131 39 227q39 98 107 168q66 70 153 103q92 35 187 34q90 0 172 -28l51 94h145l-84 -156q82 -61 133 -178q47 -106 47 -264q0 -133 -38 -229q-41 -102 -104.5 -168t-153.5 -101q-92 -35 -189 -35q-49 0 -104 11q-43 8 -95 28l-47 -90h-147l86 162 q-78 72 -117 172q-41 107 -41 250zM281 508q0 -76 16 -141q14 -59 47 -111l326 606q-47 18 -101 19q-55 0 -112 -27q-52 -25 -92 -74t-62 -116q-22 -72 -22 -156zM442 166q55 -31 127 -31q61 0 113 25q55 27 94 73q40 49 62 117q23 72 22.5 158t-22.5 160q-20 66 -62 116z " />
<glyph unicode="&#xf9;" horiz-adv-x="1183" d="M135 1020h205v-555q0 -90 8 -146q10 -68 29 -102q23 -41 53 -57q37 -20 80 -21q47 0 94 27q51 29 96 67q41 35 82 91q33 43 58 96v280v88q0 51 -2 76l-7 74l-6 42t-6 40h205v-569q0 -123 18 -256q14 -102 48 -195h-170q-10 33 -15 41q-10 27 -16 47q-2 4 -7 24.5t-8 30.5 q-8 35 -10 58q-92 -111 -186 -168.5t-203 -57.5q-319 0 -319 431v294q0 16 -1 45t-1 41q0 51 -2 76l-7 76q-2 14 -10 82zM199 1599h229l351 -430h-160z" />
<glyph unicode="&#xfa;" horiz-adv-x="1183" d="M135 1020h205v-555q0 -90 8 -146q10 -68 29 -102q23 -41 53 -57q37 -20 80 -21q47 0 94 27q51 29 96 67q41 35 82 91q33 43 58 96v280v88q0 51 -2 76l-7 74l-6 42t-6 40h205v-569q0 -123 18 -256q14 -102 48 -195h-170q-10 33 -15 41q-10 27 -16 47q-2 4 -7 24.5t-8 30.5 q-8 35 -10 58q-92 -111 -186 -168.5t-203 -57.5q-319 0 -319 431v294q0 16 -1 45t-1 41q0 51 -2 76l-7 76q-2 14 -10 82zM409 1169l351 430h229l-420 -430h-160z" />
<glyph unicode="&#xfb;" horiz-adv-x="1183" d="M135 1020h205v-555q0 -90 8 -146q10 -68 29 -102q23 -41 53 -57q37 -20 80 -21q47 0 94 27q51 29 96 67q41 35 82 91q33 43 58 96v280v88q0 51 -2 76l-7 74l-6 42t-6 40h205v-569q0 -123 18 -256q14 -102 48 -195h-170q-10 33 -15 41q-10 27 -16 47q-2 4 -7 24.5t-8 30.5 q-8 35 -10 58q-92 -111 -186 -168.5t-203 -57.5q-319 0 -319 431v294q0 16 -1 45t-1 41q0 51 -2 76l-7 76q-2 14 -10 82zM164 1169l340 430h170l340 -430h-150l-274 281l-277 -281h-149z" />
<glyph unicode="&#xfc;" horiz-adv-x="1183" d="M135 1020h205v-555q0 -90 8 -146q10 -68 29 -102q23 -41 53 -57q37 -20 80 -21q47 0 94 27q51 29 96 67q41 35 82 91q33 43 58 96v280v88q0 51 -2 76l-7 74l-6 42t-6 40h205v-569q0 -123 18 -256q14 -102 48 -195h-170q-10 33 -15 41q-10 27 -16 47q-2 4 -7 24.5t-8 30.5 q-8 35 -10 58q-92 -111 -186 -168.5t-203 -57.5q-319 0 -319 431v294q0 16 -1 45t-1 41q0 51 -2 76l-7 76q-2 14 -10 82zM252 1346q0 25 10 51t27 43q25 25 39 30q25 10 51 11q25 0 51 -11q16 -6 41 -30q16 -16 26.5 -43t10.5 -51q0 -27 -10.5 -53.5t-26.5 -43.5 q-20 -20 -41 -28q-27 -10 -51 -11q-27 0 -51 11q-18 8 -39 28q-16 16 -26.5 43t-10.5 54zM672 1346q0 25 10 51t26 43q25 25 39 30q25 10 52 11q25 0 51 -11q16 -6 41 -30q16 -16 26.5 -43t10.5 -51q0 -27 -10.5 -53.5t-26.5 -43.5q-20 -20 -41 -28q-27 -10 -51 -11 q-27 0 -52 11q-18 8 -39 28q-16 16 -26 43t-10 54z" />
<glyph unicode="&#xfd;" horiz-adv-x="1058" d="M-20 -385l61 160q25 -20 37 -27q39 -23 45 -24l51 -17q25 -6 51 -6q29 0 60 10q27 10 57 39q29 29 61.5 84t65.5 139l-279 693l-65 151q-43 100 -94 203h198l324 -817l41 116l47 132l23.5 67.5l23.5 69.5l47 131l105 301h200q-27 -57 -47 -107l-39 -94q-18 -43 -32 -82 l-27 -71l-240 -666q-49 -135 -102 -236q-47 -88 -102 -143q-53 -55 -107 -72q-55 -18 -119 -18q-70 0 -129 20q-55 21 -116 64zM356 1169l351 430h229l-420 -430h-160z" />
<glyph unicode="&#xfe;" horiz-adv-x="1169" d="M135 1599h205v-749q18 25 68 70q35 33 84 61q47 29 96 43q55 16 106 16q84 0 156 -36q70 -37 121 -107q47 -66 76 -160q29 -96 28 -202q0 -127 -37 -231.5t-96 -176.5t-145 -113q-80 -39 -176 -39q-43 0 -76 9q-55 14 -70 20q-37 16 -65 35l-37 24.5t-33 22.5v-236 q0 -23 1 -57.5t1 -50.5q0 -37 4 -90t8 -76q2 -10 5 -32.5t6 -32.5h-209v1619q0 143 -6 265q-7 134 -15 204zM340 260l88 -59q35 -23 70 -37q29 -12 59 -19q29 -6 64 -6q47 0 100 27q47 25 86 72q41 51 61 114q23 72 23 154q0 78 -16.5 149.5t-45.5 114.5q-35 51 -73 74 q-47 27 -97 26q-41 0 -88 -18q-35 -14 -86 -57q-43 -37 -79 -93q-39 -57 -66 -127v-315z" />
<glyph unicode="&#xff;" horiz-adv-x="1058" d="M-20 -385l61 160q25 -20 37 -27q39 -23 45 -24l51 -17q25 -6 51 -6q29 0 60 10q27 10 57 39q29 29 61.5 84t65.5 139l-279 693l-65 151q-43 100 -94 203h198l324 -817l41 116l47 132l23.5 67.5l23.5 69.5l47 131l105 301h200q-27 -57 -47 -107l-39 -94q-18 -43 -32 -82 l-27 -71l-240 -666q-49 -135 -102 -236q-47 -88 -102 -143q-53 -55 -107 -72q-55 -18 -119 -18q-70 0 -129 20q-55 21 -116 64zM199 1346q0 25 10 51t27 43q25 25 39 30q25 10 51 11q25 0 51 -11q16 -6 41 -30q16 -16 26.5 -43t10.5 -51q0 -27 -10.5 -53.5t-26.5 -43.5 q-20 -20 -41 -28q-27 -10 -51 -11q-27 0 -51 11q-18 8 -39 28q-16 16 -26.5 43t-10.5 54zM619 1346q0 25 10 51t26 43q25 25 39 30q25 10 52 11q25 0 51 -11q16 -6 41 -30q16 -16 26.5 -43t10.5 -51q0 -27 -10.5 -53.5t-26.5 -43.5q-20 -20 -41 -28q-27 -10 -51 -11 q-27 0 -52 11q-18 8 -39 28q-16 16 -26 43t-10 54z" />
<glyph unicode="&#x100;" horiz-adv-x="1394" d="M41 0l27 63l30 74q8 20 16.5 44l18.5 50l47 123l400 1106h215l399 -1106l45 -123q12 -31 22.5 -54t16.5 -40l31 -74l26 -63h-205l-137 385h-614l-133 -385h-205zM432 541h508l-256 725zM313 1669v152h749v-152h-749z" />
<glyph unicode="&#x101;" horiz-adv-x="1148" d="M104 410q0 109 27 208q23 86 70 166q41 66 82 113t96 80t117 47q70 16 139 16q37 0 84 -6q68 -8 96 -14q45 -8 96 -25l88 -30v-435q0 -182 23 -317q23 -139 53 -213h-176l-12 37q-10 25 -19 51q-12 41 -18 63.5t-14 67.5q-35 -43 -84 -92q-57 -57 -90 -80 q-53 -37 -101 -53q-53 -18 -106 -19q-66 0 -125 27q-66 31 -113 82q-55 61 -82 135q-31 85 -31 191zM291 461q0 -88 14 -143.5t41 -98.5q20 -35 60 -55q33 -18 63 -19q43 0 92 25q47 23 96 70q43 41 91 100q39 49 67 115v374l-39 15q-33 8 -51 12q-35 8 -63 10q-45 4 -66 4 t-66 -8q-33 -6 -63.5 -24.5t-60.5 -49.5q-35 -35 -56 -73q-27 -45 -43 -115q-16 -71 -16 -139zM242 1239v152h749v-152h-749z" />
<glyph unicode="&#x102;" horiz-adv-x="1394" d="M41 0l27 63l30 74q8 20 16.5 44l18.5 50l47 123l400 1106h215l399 -1106l45 -123q12 -31 22.5 -54t16.5 -40l31 -74l26 -63h-205l-137 385h-614l-133 -385h-205zM432 541h508l-256 725zM313 1980h119q6 -47 28 -96q20 -43 58 -80q29 -29 77 -53q41 -20 92.5 -20.5 t92.5 20.5q45 23 76 53q34 34 55 80q18 41 29 96h122q0 -70 -26 -145q-23 -68 -74 -127q-49 -59 -119 -92q-74 -35 -155 -35q-84 0 -158 35q-70 33 -119 92q-51 59 -74 127q-24 69 -24 145z" />
<glyph unicode="&#x103;" horiz-adv-x="1148" d="M104 410q0 109 27 208q23 86 70 166q41 66 82 113t96 80t117 47q70 16 139 16q37 0 84 -6q68 -8 96 -14q45 -8 96 -25l88 -30v-435q0 -182 23 -317q23 -139 53 -213h-176l-12 37q-10 25 -19 51q-12 41 -18 63.5t-14 67.5q-35 -43 -84 -92q-57 -57 -90 -80 q-53 -37 -101 -53q-53 -18 -106 -19q-66 0 -125 27q-66 31 -113 82q-55 61 -82 135q-31 85 -31 191zM291 461q0 -88 14 -143.5t41 -98.5q20 -35 60 -55q33 -18 63 -19q43 0 92 25q47 23 96 70q43 41 91 100q39 49 67 115v374l-39 15q-33 8 -51 12q-35 8 -63 10q-45 4 -66 4 t-66 -8q-33 -6 -63.5 -24.5t-60.5 -49.5q-35 -35 -56 -73q-27 -45 -43 -115q-16 -71 -16 -139zM242 1550h119q6 -47 28 -96q20 -43 58 -80q29 -29 77 -53q41 -20 92.5 -20.5t92.5 20.5q45 23 76 53q34 34 55 80q18 41 29 96h122q0 -70 -26 -145q-23 -68 -74 -127 q-49 -59 -119 -92q-74 -35 -155 -35q-84 0 -158 35q-70 33 -119 92q-51 59 -74 127q-24 69 -24 145z" />
<glyph unicode="&#x106;" horiz-adv-x="1353" d="M94 711q0 188 58 338q53 139 149 241q88 94 215 146q123 49 254 49q55 0 111 -6q41 -4 112 -25q59 -16 113 -43q57 -29 108 -65l-59 -181q-47 45 -96 72q-43 25 -98 45q-51 18 -97 25q-66 8 -94 8q-102 0 -192 -37q-88 -37 -152 -109q-61 -72 -100 -182 q-35 -102 -35 -252q0 -117 31 -223q31 -111 90 -186.5t147 -126.5q86 -49 201 -49q47 0 114 14q59 12 115 37q63 29 109 57q41 27 92 78l41 -197q-41 -39 -105 -71q-53 -29 -122 -52q-63 -20 -132 -30q-72 -10 -122 -11q-156 0 -273 52q-121 53 -207 147q-80 90 -129 232 q-47 137 -47 305zM571 1599l351 430h229l-420 -430h-160z" />
<glyph unicode="&#x107;" horiz-adv-x="1019" d="M94 489q0 113 37 213q37 102 105 177q70 76 163 118q95 43 215 43q100 0 174 -24q70 -23 127 -62l-34 -180q-74 53 -136 76q-68 25 -145 24q-68 0 -125 -24.5t-100 -73.5q-41 -45 -66 -119q-25 -72 -24 -157q0 -80 22 -148q20 -63 64 -112q45 -51 98 -74q63 -27 131 -27 q92 0 166 31t139 90l21 -174q-41 -31 -76 -51q-31 -16 -80 -32.5t-88 -20.5q-47 -6 -102 -7q-104 0 -189 35q-92 39 -153 103q-70 74 -105 161q-39 100 -39 215zM391 1169l351 430h229l-420 -430h-160z" />
<glyph unicode="&#x108;" horiz-adv-x="1353" d="M94 711q0 188 58 338q53 139 149 241q88 94 215 146q123 49 254 49q55 0 111 -6q41 -4 112 -25q59 -16 113 -43q57 -29 108 -65l-59 -181q-47 45 -96 72q-43 25 -98 45q-51 18 -97 25q-66 8 -94 8q-102 0 -192 -37q-88 -37 -152 -109q-61 -72 -100 -182 q-35 -102 -35 -252q0 -117 31 -223q31 -111 90 -186.5t147 -126.5q86 -49 201 -49q47 0 114 14q59 12 115 37q63 29 109 57q41 27 92 78l41 -197q-41 -39 -105 -71q-53 -29 -122 -52q-63 -20 -132 -30q-72 -10 -122 -11q-156 0 -273 52q-121 53 -207 147q-80 90 -129 232 q-47 137 -47 305zM326 1599l340 430h170l340 -430h-150l-274 281l-277 -281h-149z" />
<glyph unicode="&#x109;" horiz-adv-x="1019" d="M94 489q0 113 37 213q37 102 105 177q70 76 163 118q95 43 215 43q100 0 174 -24q70 -23 127 -62l-34 -180q-74 53 -136 76q-68 25 -145 24q-68 0 -125 -24.5t-100 -73.5q-41 -45 -66 -119q-25 -72 -24 -157q0 -80 22 -148q20 -63 64 -112q45 -51 98 -74q63 -27 131 -27 q92 0 166 31t139 90l21 -174q-41 -31 -76 -51q-31 -16 -80 -32.5t-88 -20.5q-47 -6 -102 -7q-104 0 -189 35q-92 39 -153 103q-70 74 -105 161q-39 100 -39 215zM146 1169l340 430h170l340 -430h-150l-274 281l-277 -281h-149z" />
<glyph unicode="&#x10a;" horiz-adv-x="1353" d="M94 711q0 188 58 338q53 139 149 241q88 94 215 146q123 49 254 49q55 0 111 -6q41 -4 112 -25q59 -16 113 -43q57 -29 108 -65l-59 -181q-47 45 -96 72q-43 25 -98 45q-51 18 -97 25q-66 8 -94 8q-102 0 -192 -37q-88 -37 -152 -109q-61 -72 -100 -182 q-35 -102 -35 -252q0 -117 31 -223q31 -111 90 -186.5t147 -126.5q86 -49 201 -49q47 0 114 14q59 12 115 37q63 29 109 57q41 27 92 78l41 -197q-41 -39 -105 -71q-53 -29 -122 -52q-63 -20 -132 -30q-72 -10 -122 -11q-156 0 -273 52q-121 53 -207 147q-80 90 -129 232 q-47 137 -47 305zM614 1776q0 25 10 51q8 23 29 43q23 23 43 30q27 10 53.5 10.5t52.5 -10.5q20 -8 43 -30q20 -20 29 -43q10 -27 10 -51q0 -27 -10 -54q-8 -23 -28.5 -43t-43.5 -28q-27 -10 -53 -10.5t-53 10.5q-23 8 -43.5 28.5t-28.5 42.5q-10 27 -10 54z" />
<glyph unicode="&#x10b;" horiz-adv-x="1019" d="M94 489q0 113 37 213q37 102 105 177q70 76 163 118q95 43 215 43q100 0 174 -24q70 -23 127 -62l-34 -180q-74 53 -136 76q-68 25 -145 24q-68 0 -125 -24.5t-100 -73.5q-41 -45 -66 -119q-25 -72 -24 -157q0 -80 22 -148q20 -63 64 -112q45 -51 98 -74q63 -27 131 -27 q92 0 166 31t139 90l21 -174q-41 -31 -76 -51q-31 -16 -80 -32.5t-88 -20.5q-47 -6 -102 -7q-104 0 -189 35q-92 39 -153 103q-70 74 -105 161q-39 100 -39 215zM434 1346q0 25 10 51q8 23 29 43q23 23 43 30q27 10 53.5 10.5t52.5 -10.5q20 -8 43 -30q20 -20 29 -43 q10 -27 10 -51q0 -27 -10 -54q-8 -23 -28.5 -43t-43.5 -28q-27 -10 -53 -10.5t-53 10.5q-23 8 -43.5 28.5t-28.5 42.5q-10 27 -10 54z" />
<glyph unicode="&#x10c;" horiz-adv-x="1353" d="M94 711q0 188 58 338q53 139 149 241q88 94 215 146q123 49 254 49q55 0 111 -6q41 -4 112 -25q59 -16 113 -43q57 -29 108 -65l-59 -181q-47 45 -96 72q-43 25 -98 45q-51 18 -97 25q-66 8 -94 8q-102 0 -192 -37q-88 -37 -152 -109q-61 -72 -100 -182 q-35 -102 -35 -252q0 -117 31 -223q31 -111 90 -186.5t147 -126.5q86 -49 201 -49q47 0 114 14q59 12 115 37q63 29 109 57q41 27 92 78l41 -197q-41 -39 -105 -71q-53 -29 -122 -52q-63 -20 -132 -30q-72 -10 -122 -11q-156 0 -273 52q-121 53 -207 147q-80 90 -129 232 q-47 137 -47 305zM326 2029h149l277 -278l274 278h150l-340 -430h-170z" />
<glyph unicode="&#x10d;" horiz-adv-x="1019" d="M94 489q0 113 37 213q37 102 105 177q70 76 163 118q95 43 215 43q100 0 174 -24q70 -23 127 -62l-34 -180q-74 53 -136 76q-68 25 -145 24q-68 0 -125 -24.5t-100 -73.5q-41 -45 -66 -119q-25 -72 -24 -157q0 -80 22 -148q20 -63 64 -112q45 -51 98 -74q63 -27 131 -27 q92 0 166 31t139 90l21 -174q-41 -31 -76 -51q-31 -16 -80 -32.5t-88 -20.5q-47 -6 -102 -7q-104 0 -189 35q-92 39 -153 103q-70 74 -105 161q-39 100 -39 215zM146 1599h149l277 -278l274 278h150l-340 -430h-170z" />
<glyph unicode="&#x10e;" horiz-adv-x="1433" d="M160 0q4 23 8 78q4 61 4 104q0 18 1 61.5t1 67.5v144v688v131q0 43 -4 108q-2 39 -10 78q20 0 53 2q10 0 33.5 1t38.5 1q12 0 40.5 1t43 1t43 1t43.5 1q23 0 44 1t42 1h73q23 0 93 -4q35 -2 108 -18q57 -12 115 -37q61 -27 114 -61q59 -41 107 -93q47 -53 84 -127 q39 -76 59 -169q20 -90 21 -222q0 -152 -33 -262q-35 -117 -88 -196q-57 -84 -129 -140q-78 -57 -154 -90q-72 -31 -161 -47q-78 -14 -154 -14h-57q-10 0 -32 1t-34 1q-10 0 -34.5 1t-37.5 1q-18 0 -36.5 1t-34.5 1q-29 2 -85 3t-85 1zM365 166q86 -8 92 -8q37 -2 129 -2 q66 0 131 12q63 12 125 41q58 28 110 74q49 43 88 108.5t60 143.5q20 80 20 186q0 168 -43 280q-41 111 -114 181q-70 68 -168 98q-94 31 -205 31q-8 0 -26.5 -1t-28.5 -1h-64q-10 0 -30.5 -1t-28.5 -1q-10 0 -25.5 -1t-21.5 -1v-1139zM289 2029h149l277 -278l274 278h150 l-340 -430h-170z" />
<glyph unicode="&#x110;" horiz-adv-x="1433" d="M0 690v146h174v307v131q0 43 -4 108q-2 39 -10 78q20 0 53 2q10 0 33.5 1t38.5 1q12 0 40.5 1t43 1t43 1t43.5 1q23 0 44 1t42 1h73q23 0 93 -4q35 -2 108 -18q57 -12 115 -37q61 -27 114 -61q59 -41 107 -93q47 -53 84 -127q39 -76 59 -169q20 -90 21 -222 q0 -152 -33 -262q-35 -117 -88 -196q-57 -84 -129 -140q-78 -57 -154 -90q-72 -31 -161 -47q-78 -14 -154 -14h-57q-10 0 -32 1t-34 1q-10 0 -34.5 1t-37.5 1q-18 0 -36.5 1t-34.5 1q-29 2 -85.5 3t-84.5 1q4 23 8 78q4 61 4 104q0 18 1 61.5t1 67.5v144v235h-174zM365 166 q86 -8 92 -8q37 -2 129 -2q66 0 131 12q63 12 125 41q58 28 110 74q49 43 88 108.5t60 143.5q20 80 20 186q0 168 -43 280q-41 111 -114 181q-70 68 -168 98q-94 31 -205 31q-8 0 -26.5 -1t-28.5 -1h-64q-10 0 -30.5 -1t-28.5 -1q-10 0 -25.5 -1t-21.5 -1v-469h380v-146 h-380v-524z" />
<glyph unicode="&#x111;" horiz-adv-x="1189" d="M104 461q0 132 37 239q37 106 100.5 182t151.5 117t187 41q23 0 67 -8q34 -6 68 -18q45 -16 67 -27q25 -12 64 -33v222h-281v135h279q-4 152 -6 164q-6 70 -19 124h211v-288h160v-135h-160v-646q0 -195 21 -317q18 -117 55 -213h-180q-8 18 -27 78q-20 70 -29 106 q-70 -98 -163 -155q-88 -53 -201 -54q-90 0 -166 35q-78 35 -127 96q-52 65 -80 154q-29 92 -29 201zM291 489q0 -174 59.5 -264t190.5 -90q41 0 90 23q43 20 86 59q33 31 74 86q33 45 55 96v396l-70 34q-18 8 -63 23q-41 12 -64 14q-41 4 -69 4q-51 0 -109 -26 q-49 -23 -92 -76q-43 -51 -66 -119q-22 -66 -22 -160z" />
<glyph unicode="&#x112;" horiz-adv-x="1159" d="M160 0q8 43 12 174q2 76 2 260v590q0 186 -2 262q-4 131 -12 174h850v-166h-645v-448h571v-162h-571v-518h264q182 0 250 2q119 4 161 12v-180h-880zM225 1669v152h749v-152h-749z" />
<glyph unicode="&#x113;" horiz-adv-x="1093" d="M94 496q0 119 35 223q35 102 94 172q61 70 152 110q86 39 200 39q74 0 146 -20q59 -16 108 -53q45 -33 76 -80q33 -51 51 -101q12 -37 25 -110q8 -51 8 -113v-39v-39h-708q4 -92 26 -153q25 -63 68 -107q43 -41 100 -63q61 -23 125 -23q94 0 191 23q90 20 184 78l20 -164 q-57 -31 -104 -47q-55 -20 -103 -31q-55 -12 -102 -18q-35 -4 -111 -5q-100 0 -184 33q-88 35 -151 98q-68 68 -107 164.5t-39 225.5zM289 625h522q0 59 -20 114q-18 49 -51 82t-81 51q-45 18 -100 19q-106 0 -178 -66q-69 -63 -92 -200zM195 1239v152h749v-152h-749z" />
<glyph unicode="&#x114;" horiz-adv-x="1159" d="M160 0q8 43 12 174q2 76 2 260v590q0 186 -2 262q-4 131 -12 174h850v-166h-645v-448h571v-162h-571v-518h264q182 0 250 2q119 4 161 12v-180h-880zM225 1980h119q6 -47 28 -96q20 -43 58 -80q29 -29 77 -53q41 -20 92.5 -20.5t92.5 20.5q45 23 76 53q34 34 55 80 q18 41 29 96h122q0 -70 -26 -145q-23 -68 -74 -127q-49 -59 -119 -92q-74 -35 -155 -35q-84 0 -158 35q-70 33 -119 92q-51 59 -74 127q-24 69 -24 145z" />
<glyph unicode="&#x115;" horiz-adv-x="1093" d="M94 496q0 119 35 223q35 102 94 172q61 70 152 110q86 39 200 39q74 0 146 -20q59 -16 108 -53q45 -33 76 -80q33 -51 51 -101q12 -37 25 -110q8 -51 8 -113v-39v-39h-708q4 -92 26 -153q25 -63 68 -107q43 -41 100 -63q61 -23 125 -23q94 0 191 23q90 20 184 78l20 -164 q-57 -31 -104 -47q-55 -20 -103 -31q-55 -12 -102 -18q-35 -4 -111 -5q-100 0 -184 33q-88 35 -151 98q-68 68 -107 164.5t-39 225.5zM289 625h522q0 59 -20 114q-18 49 -51 82t-81 51q-45 18 -100 19q-106 0 -178 -66q-69 -63 -92 -200zM195 1550h119q6 -47 28 -96 q20 -43 58 -80q29 -29 77 -53q41 -20 92.5 -20.5t92.5 20.5q45 23 76 53q34 34 55 80q18 41 29 96h122q0 -70 -26 -145q-23 -68 -74 -127q-49 -59 -119 -92q-74 -35 -155 -35q-84 0 -158 35q-70 33 -119 92q-51 59 -74 127q-24 69 -24 145z" />
<glyph unicode="&#x116;" horiz-adv-x="1159" d="M160 0q8 43 12 174q2 76 2 260v590q0 186 -2 262q-4 131 -12 174h850v-166h-645v-448h571v-162h-571v-518h264q182 0 250 2q119 4 161 12v-180h-880zM465 1776q0 25 10 51q8 23 29 43q23 23 43 30q27 10 53.5 10.5t52.5 -10.5q20 -8 43 -30q20 -20 29 -43q10 -27 10 -51 q0 -27 -10 -54q-8 -23 -28.5 -43t-43.5 -28q-27 -10 -53 -10.5t-53 10.5q-23 8 -43.5 28.5t-28.5 42.5q-10 27 -10 54z" />
<glyph unicode="&#x117;" horiz-adv-x="1093" d="M94 496q0 119 35 223q35 102 94 172q61 70 152 110q86 39 200 39q74 0 146 -20q59 -16 108 -53q45 -33 76 -80q33 -51 51 -101q12 -37 25 -110q8 -51 8 -113v-39v-39h-708q4 -92 26 -153q25 -63 68 -107q43 -41 100 -63q61 -23 125 -23q94 0 191 23q90 20 184 78l20 -164 q-57 -31 -104 -47q-55 -20 -103 -31q-55 -12 -102 -18q-35 -4 -111 -5q-100 0 -184 33q-88 35 -151 98q-68 68 -107 164.5t-39 225.5zM289 625h522q0 59 -20 114q-18 49 -51 82t-81 51q-45 18 -100 19q-106 0 -178 -66q-69 -63 -92 -200zM434 1346q0 25 10 51q8 23 29 43 q23 23 43 30q27 10 53.5 10.5t52.5 -10.5q20 -8 43 -30q20 -20 29 -43q10 -27 10 -51q0 -27 -10 -54q-8 -23 -28.5 -43t-43.5 -28q-27 -10 -53 -10.5t-53 10.5q-23 8 -43.5 28.5t-28.5 42.5q-10 27 -10 54z" />
<glyph unicode="&#x11a;" horiz-adv-x="1159" d="M160 0q8 43 12 174q2 76 2 260v590q0 186 -2 262q-4 131 -12 174h850v-166h-645v-448h571v-162h-571v-518h264q182 0 250 2q119 4 161 12v-180h-880zM174 2029h149l277 -278l274 278h150l-340 -430h-170z" />
<glyph unicode="&#x11b;" horiz-adv-x="1093" d="M94 496q0 119 35 223q35 102 94 172q61 70 152 110q86 39 200 39q74 0 146 -20q59 -16 108 -53q45 -33 76 -80q33 -51 51 -101q12 -37 25 -110q8 -51 8 -113v-39v-39h-708q4 -92 26 -153q25 -63 68 -107q43 -41 100 -63q61 -23 125 -23q94 0 191 23q90 20 184 78l20 -164 q-57 -31 -104 -47q-55 -20 -103 -31q-55 -12 -102 -18q-35 -4 -111 -5q-100 0 -184 33q-88 35 -151 98q-68 68 -107 164.5t-39 225.5zM289 625h522q0 59 -20 114q-18 49 -51 82t-81 51q-45 18 -100 19q-106 0 -178 -66q-69 -63 -92 -200zM144 1599h149l277 -278l274 278h150 l-340 -430h-170z" />
<glyph unicode="&#x11c;" horiz-adv-x="1419" d="M94 721q0 172 56 321q51 139 145 240q92 98 219 152q123 51 268 51q61 0 119 -6q61 -6 115 -21q68 -18 119 -41q53 -25 125 -71l-66 -181q-45 37 -107 74q-55 33 -104 47q-59 16 -100 23q-49 6 -101 6q-115 0 -204 -39q-88 -39 -156 -115q-63 -72 -98 -180 q-33 -100 -33 -236q0 -147 31 -247q35 -115 94 -189q63 -80 147 -119q88 -41 195 -40q31 0 84 4q33 2 78 16q53 16 79 29q33 14 86 47v334h-350v165h541v-589q-80 -57 -145.5 -90t-133.5 -56q-43 -14 -125 -26q-55 -8 -127 -9q-143 0 -261.5 49.5t-204.5 143.5 q-86 95 -135.5 233.5t-49.5 319.5zM320 1599l340 430h170l340 -430h-150l-274 281l-277 -281h-149z" />
<glyph unicode="&#x11d;" horiz-adv-x="1124" d="M104 434q0 119 31 225q33 113 92 193q63 86 162 137q96 51 236 51q46 0 92 -6q49 -6 94 -18l92 -25l86 -26v-940q0 -137 -37 -226q-39 -94 -102 -153q-66 -61 -141 -88q-78 -27 -164 -27q-98 0 -191 33q-102 37 -174 86l66 155q74 -55 141 -84q72 -31 148 -30q49 0 86 12 q49 16 88 49q43 37 69.5 92.5t26.5 145.5v184q-39 -49 -82 -82q-47 -37 -88 -57.5t-90 -30.5q-39 -8 -84 -8q-74 0 -133 22q-66 25 -115 78q-45 49 -78 135q-31 83 -31 203zM291 485q0 -98 14 -155q14 -61 39 -97q25 -37 62 -53q31 -14 73 -14q41 0 82 14q37 12 86 45 q43 29 84 72q40 43 74 98v434q-33 12 -51 17l-56 12q-20 4 -53 8q-37 4 -49 4q-82 0 -141 -34q-57 -33 -95 -88q-33 -49 -53 -123q-16 -60 -16 -140zM170 1169l340 430h170l340 -430h-150l-274 281l-277 -281h-149z" />
<glyph unicode="&#x11e;" horiz-adv-x="1419" d="M94 721q0 172 56 321q51 139 145 240q92 98 219 152q123 51 268 51q61 0 119 -6q61 -6 115 -21q68 -18 119 -41q53 -25 125 -71l-66 -181q-45 37 -107 74q-55 33 -104 47q-59 16 -100 23q-49 6 -101 6q-115 0 -204 -39q-88 -39 -156 -115q-63 -72 -98 -180 q-33 -100 -33 -236q0 -147 31 -247q35 -115 94 -189q63 -80 147 -119q88 -41 195 -40q31 0 84 4q33 2 78 16q53 16 79 29q33 14 86 47v334h-350v165h541v-589q-80 -57 -145.5 -90t-133.5 -56q-43 -14 -125 -26q-55 -8 -127 -9q-143 0 -261.5 49.5t-204.5 143.5 q-86 95 -135.5 233.5t-49.5 319.5zM371 1980h119q6 -47 28 -96q20 -43 58 -80q29 -29 77 -53q41 -20 92.5 -20.5t92.5 20.5q45 23 76 53q34 34 55 80q18 41 29 96h122q0 -70 -26 -145q-23 -68 -74 -127q-49 -59 -119 -92q-74 -35 -155 -35q-84 0 -158 35q-70 33 -119 92 q-51 59 -74 127q-24 69 -24 145z" />
<glyph unicode="&#x11f;" horiz-adv-x="1124" d="M104 434q0 119 31 225q33 113 92 193q63 86 162 137q96 51 236 51q46 0 92 -6q49 -6 94 -18l92 -25l86 -26v-940q0 -137 -37 -226q-39 -94 -102 -153q-66 -61 -141 -88q-78 -27 -164 -27q-98 0 -191 33q-102 37 -174 86l66 155q74 -55 141 -84q72 -31 148 -30q49 0 86 12 q49 16 88 49q43 37 69.5 92.5t26.5 145.5v184q-39 -49 -82 -82q-47 -37 -88 -57.5t-90 -30.5q-39 -8 -84 -8q-74 0 -133 22q-66 25 -115 78q-45 49 -78 135q-31 83 -31 203zM291 485q0 -98 14 -155q14 -61 39 -97q25 -37 62 -53q31 -14 73 -14q41 0 82 14q37 12 86 45 q43 29 84 72q40 43 74 98v434q-33 12 -51 17l-56 12q-20 4 -53 8q-37 4 -49 4q-82 0 -141 -34q-57 -33 -95 -88q-33 -49 -53 -123q-16 -60 -16 -140zM221 1550h119q6 -47 28 -96q20 -43 58 -80q29 -29 77 -53q41 -20 92.5 -20.5t92.5 20.5q45 23 76 53q34 34 55 80 q18 41 29 96h122q0 -70 -26 -145q-23 -68 -74 -127q-49 -59 -119 -92q-74 -35 -155 -35q-84 0 -158 35q-70 33 -119 92q-51 59 -74 127q-24 69 -24 145z" />
<glyph unicode="&#x120;" horiz-adv-x="1419" d="M94 721q0 172 56 321q51 139 145 240q92 98 219 152q123 51 268 51q61 0 119 -6q61 -6 115 -21q68 -18 119 -41q53 -25 125 -71l-66 -181q-45 37 -107 74q-55 33 -104 47q-59 16 -100 23q-49 6 -101 6q-115 0 -204 -39q-88 -39 -156 -115q-63 -72 -98 -180 q-33 -100 -33 -236q0 -147 31 -247q35 -115 94 -189q63 -80 147 -119q88 -41 195 -40q31 0 84 4q33 2 78 16q53 16 79 29q33 14 86 47v334h-350v165h541v-589q-80 -57 -145.5 -90t-133.5 -56q-43 -14 -125 -26q-55 -8 -127 -9q-143 0 -261.5 49.5t-204.5 143.5 q-86 95 -135.5 233.5t-49.5 319.5zM610 1776q0 25 10 51q8 23 29 43q23 23 43 30q27 10 53.5 10.5t52.5 -10.5q20 -8 43 -30q20 -20 29 -43q10 -27 10 -51q0 -27 -10 -54q-8 -23 -28.5 -43t-43.5 -28q-27 -10 -53 -10.5t-53 10.5q-23 8 -43.5 28.5t-28.5 42.5q-10 27 -10 54 z" />
<glyph unicode="&#x121;" horiz-adv-x="1124" d="M104 434q0 119 31 225q33 113 92 193q63 86 162 137q96 51 236 51q46 0 92 -6q49 -6 94 -18l92 -25l86 -26v-940q0 -137 -37 -226q-39 -94 -102 -153q-66 -61 -141 -88q-78 -27 -164 -27q-98 0 -191 33q-102 37 -174 86l66 155q74 -55 141 -84q72 -31 148 -30q49 0 86 12 q49 16 88 49q43 37 69.5 92.5t26.5 145.5v184q-39 -49 -82 -82q-47 -37 -88 -57.5t-90 -30.5q-39 -8 -84 -8q-74 0 -133 22q-66 25 -115 78q-45 49 -78 135q-31 83 -31 203zM291 485q0 -98 14 -155q14 -61 39 -97q25 -37 62 -53q31 -14 73 -14q41 0 82 14q37 12 86 45 q43 29 84 72q40 43 74 98v434q-33 12 -51 17l-56 12q-20 4 -53 8q-37 4 -49 4q-82 0 -141 -34q-57 -33 -95 -88q-33 -49 -53 -123q-16 -60 -16 -140zM461 1346q0 25 10 51q8 23 29 43q23 23 43 30q27 10 53.5 10.5t52.5 -10.5q20 -8 43 -30q20 -20 29 -43q10 -27 10 -51 q0 -27 -10 -54q-8 -23 -28.5 -43t-43.5 -28q-27 -10 -53 -10.5t-53 10.5q-23 8 -43.5 28.5t-28.5 42.5q-10 27 -10 54z" />
<glyph unicode="&#x124;" horiz-adv-x="1474" d="M160 0q8 43 12 174q2 76 2 260v590q0 186 -2 262q-4 131 -12 174h205v-624h720v624h205q-8 -43 -12 -174q-2 -76 -2 -262v-590q0 -184 2 -260q4 -131 12 -174h-205v676h-720v-676h-205zM299 1599l340 430h170l340 -430h-150l-274 281l-277 -281h-149z" />
<glyph unicode="&#x125;" horiz-adv-x="1173" d="M129 1599h201v-770q76 106 174 158q102 53 207 53q158 0 243.5 -104.5t85.5 -310.5v-625h-186v551q0 92 -12 154q-12 59 -37 96q-25 35 -62 51q-29 12 -88 12q-53 0 -106 -24q-47 -23 -94 -66q-41 -37 -76 -92q-35 -53 -49 -102v-580h-185v1130q0 201 -2 283 q-4 127 -14 186zM160 1704l340 430h170l340 -430h-150l-274 281l-277 -281h-149z" />
<glyph unicode="&#x128;" horiz-adv-x="974" d="M139 0v145h242v1170h-242v145h676v-145h-246v-1170h246v-145h-676zM123 1634q0 41 14 92q12 43 37 80t59.5 57.5t82.5 20.5q12 0 40 -4q10 -2 41 -10q14 -4 43 -17q2 0 19.5 -8t28.5 -12l27.5 -11.5t21.5 -9.5q14 -6 38.5 -14t35 -10t32.5 -2q37 0 58 24q20 23 26 60h107 q0 -39 -15 -92q-10 -41 -39 -80q-27 -37 -61.5 -57.5t-83.5 -20.5q-33 0 -80 14q-53 16 -88 33q-68 33 -92 41q-34 12 -62 12q-39 0 -59 -24q-25 -27 -27 -62h-104z" />
<glyph unicode="&#x129;" horiz-adv-x="528" d="M156 1020h198v-545q0 -14 1 -52t1 -61q0 -43 4 -133l7 -129q4 -70 8 -100h-205v530v144q0 25 -1 69.5t-1 65.5q0 43 -4 117q-4 63 -8 94zM-88 1204q0 41 14 92q12 43 37 80t59.5 57.5t82.5 20.5q12 0 40 -4q10 -2 41 -10q14 -4 43 -17q2 0 19.5 -8t28.5 -12l27.5 -11.5 t21.5 -9.5q14 -6 38.5 -14t35 -10t32.5 -2q37 0 58 24q20 23 26 60h107q0 -39 -15 -92q-10 -41 -39 -80q-27 -37 -61.5 -57.5t-83.5 -20.5q-33 0 -80 14q-53 16 -88 33q-68 33 -92 41q-34 12 -62 12q-39 0 -59 -24q-25 -27 -27 -62h-104z" />
<glyph unicode="&#x12a;" horiz-adv-x="974" d="M139 0v145h242v1170h-242v145h676v-145h-246v-1170h246v-145h-676zM213 1669v152h530v-152h-530z" />
<glyph unicode="&#x12b;" horiz-adv-x="528" d="M156 1020h198v-545q0 -14 1 -52t1 -61q0 -43 4 -133l7 -129q4 -70 8 -100h-205v530v144q0 25 -1 69.5t-1 65.5q0 43 -4 117q-4 63 -8 94zM0 1239v152h530v-152h-530z" />
<glyph unicode="&#x12c;" horiz-adv-x="974" d="M139 0v145h242v1170h-242v145h676v-145h-246v-1170h246v-145h-676zM103 1980h119q6 -47 28 -96q20 -43 58 -80q29 -29 77 -53q41 -20 92.5 -20.5t92.5 20.5q45 23 76 53q34 34 55 80q18 41 29 96h122q0 -70 -26 -145q-23 -68 -74 -127q-49 -59 -119 -92q-74 -35 -155 -35 q-84 0 -158 35q-70 33 -119 92q-51 59 -74 127q-24 69 -24 145z" />
<glyph unicode="&#x12d;" horiz-adv-x="528" d="M156 1020h198v-545q0 -14 1 -52t1 -61q0 -43 4 -133l7 -129q4 -70 8 -100h-205v530v144q0 25 -1 69.5t-1 65.5q0 43 -4 117q-4 63 -8 94zM-108 1550h119q6 -47 28 -96q20 -43 58 -80q29 -29 77 -53q41 -20 92.5 -20.5t92.5 20.5q45 23 76 53q34 34 55 80q18 41 29 96h122 q0 -70 -26 -145q-23 -68 -74 -127q-49 -59 -119 -92q-74 -35 -155 -35q-84 0 -158 35q-70 33 -119 92q-51 59 -74 127q-24 69 -24 145z" />
<glyph unicode="&#x130;" horiz-adv-x="974" d="M139 0v145h242v1170h-242v145h676v-145h-246v-1170h246v-145h-676zM342 1776q0 25 10 51q8 23 29 43q23 23 43 30q27 10 53.5 10.5t52.5 -10.5q20 -8 43 -30q20 -20 29 -43q10 -27 10 -51q0 -27 -10 -54q-8 -23 -28.5 -43t-43.5 -28q-27 -10 -53 -10.5t-53 10.5 q-23 8 -43.5 28.5t-28.5 42.5q-10 27 -10 54z" />
<glyph unicode="&#x131;" horiz-adv-x="528" d="M156 1020h198v-545q0 -14 1 -52t1 -61q0 -43 4 -133l7 -129q4 -70 8 -100h-205v530v144q0 25 -1 69.5t-1 65.5q0 43 -4 117q-4 63 -8 94z" />
<glyph unicode="&#x132;" horiz-adv-x="1939" d="M139 0v145h242v1170h-242v145h676v-145h-246v-1170h246v-145h-676zM1010 90l45 184q29 -33 55 -51q29 -20 66 -37q25 -12 69 -22q33 -8 70 -8q53 0 100 18q43 16 80 62q31 37 51 102q18 61 19 147v496v141q0 25 -1 68t-1 63q0 45 -4 115q-4 63 -9 92h205v-925 q0 -147 -32 -263q-33 -113 -89 -174q-61 -68 -139 -94q-82 -29 -176 -29q-35 0 -78 7q-47 6 -86 20q-43 15 -80 37q-40 24 -65 51z" />
<glyph unicode="&#x133;" horiz-adv-x="1159" d="M156 1346q0 29 8 51q8 20 26.5 42.5t38.5 30.5q25 10 52 11q25 0 51 -11q16 -6 41 -30q16 -16 26.5 -43t10.5 -51q0 -27 -10.5 -53.5t-26.5 -43.5q-20 -20 -41 -28q-27 -10 -51 -11q-27 0 -52 11q-23 10 -39 28q-18 23 -26 43q-8 23 -8 54zM174 1020h201v-545 q0 -14 1 -52t1 -61q0 -43 4 -133l6 -129q4 -70 8 -100h-205v530v144q0 25 -1 69.5t-1 65.5q0 6 -6 117q-4 63 -8 94zM375 -406l34 166q6 -6 41 -22q16 -8 54 -21q29 -10 53 -12q37 -4 49 -4q41 0 72 14q33 14 57.5 49t36.5 84q12 53 12 127v555v144q0 25 -1 69.5t-1 65.5 q0 43 -4 117q-4 63 -8 94h201v-995q0 -143 -27 -236q-27 -94 -76 -151.5t-118.5 -82t-153.5 -24.5q-14 0 -51 4q-27 2 -58 12q-41 12 -61 21q-31 12 -51 26zM749 1346q0 25 11 51q9 25 24 43q18 23 39 30q25 10 51.5 10.5t52.5 -10.5q16 -6 41 -30q16 -16 26.5 -43t10.5 -51 q0 -27 -10 -53.5t-27 -43.5q-20 -20 -41 -28q-27 -10 -53 -10.5t-51 10.5q-23 10 -39 28q-15 18 -24 43q-11 27 -11 54z" />
<glyph unicode="&#x139;" horiz-adv-x="1079" d="M160 0q8 43 12 174q2 76 2 260v590q0 186 -2 262q-4 131 -12 174h205v-1294h225h139q23 0 64 1t59 1q41 0 98 4q51 4 74 8v-180h-864zM411 1599l351 430h229l-420 -430h-160z" />
<glyph unicode="&#x13a;" horiz-adv-x="563" d="M170 1599h205v-1124q0 -14 1 -52t1 -61q0 -43 4 -133q2 -45 6 -127q4 -74 8 -102h-205v1130q0 143 -6 265q-6 134 -14 204zM102 1704l351 430h229l-420 -430h-160z" />
<glyph unicode="&#x141;" horiz-adv-x="1128" d="M49 635l176 108v281q0 186 -2 262q-4 131 -12 174h205v-598l313 199l62 -146l-375 -235v-514h223h139q23 0 64 1t59 1q43 0 100 4q51 4 74 8v-180h-864q8 43 12 174q2 76 2 260v127l-114 -72z" />
<glyph unicode="&#x142;" horiz-adv-x="858" d="M100 655l240 166v309q0 184 -4 265q-4 100 -17 204h205v-651l176 121l60 -143l-236 -164v-287q0 -14 1 -52t1 -61q0 -43 4 -133q2 -45 7 -127q4 -74 8 -102h-205v635l-180 -125z" />
<glyph unicode="&#x143;" horiz-adv-x="1499" d="M160 0q8 43 12 174q2 76 2 260v590q0 186 -2 262q-4 131 -12 174h180l795 -1157v1157h180q-4 -23 -8 -74q-4 -57 -4 -100q0 -18 -1.5 -58t-1.5 -63v-141v-1024h-165l-795 1151v-1151h-180zM557 1599l351 430h229l-420 -430h-160z" />
<glyph unicode="&#x144;" horiz-adv-x="1183" d="M104 1020h181q6 -14 12 -41q2 -8 5 -26.5t5 -26.5q4 -18 8 -56l9 -45q98 117 192 164q102 51 203 51q160 0 246 -104q84 -102 84 -311v-625h-185v551q0 92 -12 154q-12 59 -37 96q-23 35 -63 51q-29 12 -88 12q-53 0 -105 -24q-47 -23 -94 -66q-45 -43 -78 -92 q-31 -47 -47 -102v-580h-186v614q0 143 -17 252q-17 107 -33 154zM419 1169l351 430h229l-420 -430h-160z" />
<glyph unicode="&#x147;" horiz-adv-x="1499" d="M160 0q8 43 12 174q2 76 2 260v590q0 186 -2 262q-4 131 -12 174h180l795 -1157v1157h180q-4 -23 -8 -74q-4 -57 -4 -100q0 -18 -1.5 -58t-1.5 -63v-141v-1024h-165l-795 1151v-1151h-180zM312 2029h149l277 -278l274 278h150l-340 -430h-170z" />
<glyph unicode="&#x148;" horiz-adv-x="1183" d="M104 1020h181q6 -14 12 -41q2 -8 5 -26.5t5 -26.5q4 -18 8 -56l9 -45q98 117 192 164q102 51 203 51q160 0 246 -104q84 -102 84 -311v-625h-185v551q0 92 -12 154q-12 59 -37 96q-23 35 -63 51q-29 12 -88 12q-53 0 -105 -24q-47 -23 -94 -66q-45 -43 -78 -92 q-31 -47 -47 -102v-580h-186v614q0 143 -17 252q-17 107 -33 154zM174 1599h149l277 -278l274 278h150l-340 -430h-170z" />
<glyph unicode="&#x14a;" horiz-adv-x="1464" d="M135 1454h184q12 -41 15 -57l7 -36t7 -40l4 -27.5t4 -23.5t4 -27q8 -55 11 -63q70 90 121 139q57 55 126 94q65 37 130 55q57 16 133 17q92 0 166 -37q76 -37 124 -113q47 -72 76 -184q29 -115 29 -258v-748q0 -158 -31 -274q-31 -115 -86 -193q-53 -76 -135 -112 q-76 -35 -178 -35q-41 0 -62 4q-31 6 -55 12q-20 6 -47 17q-25 10 -33 16l66 156q27 -20 67 -29q29 -6 88 -6q39 0 78 20.5t70 67.5q31 46 49 117q18 70 18 174v704q0 133 -12 230q-12 94 -43 155.5t-82 88t-133 26.5q-49 0 -94 -18q-41 -16 -88 -54q-35 -29 -82 -77 q-37 -39 -70 -93q-20 -33 -53 -102q-23 -47 -39 -100v-840h-205q10 55 15 170q2 74 2 260v451q0 102 -6 192q-6 76 -17 162q-8 61 -22 127z" />
<glyph unicode="&#x14b;" horiz-adv-x="1183" d="M104 1020h181q6 -14 12 -41q2 -8 5 -26.5t5 -26.5q8 -37 10 -56l9 -45q98 117 192 164q102 51 203 51q82 0 141 -26q61 -27 102.5 -84.5t63.5 -149.5q23 -96 23 -221v-448q0 -170 -31 -281q-31 -113 -82 -178.5t-127 -93.5q-72 -27 -166 -27q-47 0 -96 14q-53 16 -94 39 l65 152q18 -14 62 -29q41 -12 77 -12q47 0 86 16q41 16 66 53q25 35 41 109q12 53 12 172v440q0 121 -12 195q-12 72 -37 115q-23 41 -63 57q-29 12 -86 12q-55 0 -107 -24q-47 -23 -94 -66q-41 -37 -76 -92q-35 -53 -49 -102v-580h-184v614q0 152 -19 252q-21 111 -33 154z " />
<glyph unicode="&#x14c;" horiz-adv-x="1458" d="M94 721q0 117 25 221q23 92 69 188q47 92 103 152q63 66 130.5 111t149.5 69q74 23 158 23q121 0 232 -49q109 -49 194 -144q86 -95 135 -233t49 -320q0 -178 -53 -321q-52 -141 -141 -240q-90 -100 -203 -151q-111 -51 -231 -52q-123 0 -234 50q-109 49 -194 143 q-84 94 -138 233q-51 136 -51 320zM291 745q0 -145 28 -247q29 -104 89 -187q53 -76 135 -118q80 -43 178 -43q94 0 170 38q82 43 133 111q59 78 88 178q33 111 33 238q0 137 -31 248q-31 113 -86 188q-57 80 -135 119q-82 41 -172 41q-92 0 -174 -41q-80 -39 -137 -113 q-57 -72 -88 -178q-31 -105 -31 -234zM342 1669v152h749v-152h-749z" />
<glyph unicode="&#x14d;" horiz-adv-x="1138" d="M94 506q0 131 39 227q39 98 107 168q70 72 153 105q92 35 187 34q100 0 188 -34q82 -33 147 -105q61 -68 97 -168q33 -96 32 -227q0 -133 -38 -230q-40 -98 -105 -165q-63 -66 -153 -101q-92 -35 -189 -35q-100 0 -188 35q-84 33 -146 101q-63 70 -96 165 q-35 101 -35 230zM281 506q0 -94 20 -158q23 -74 59 -115q45 -51 93 -73q52 -25 116 -25q61 0 112.5 24.5t94.5 73.5q39 45 62 115q23 72 22 158q0 88 -20 156q-23 74 -60 118q-40 49 -92 74q-57 27 -119 27q-55 0 -112 -27q-52 -25 -92 -74q-41 -49 -62 -118 q-22 -74 -22 -156zM197 1239v152h749v-152h-749z" />
<glyph unicode="&#x14e;" horiz-adv-x="1458" d="M94 721q0 117 25 221q23 92 69 188q47 92 103 152q63 66 130.5 111t149.5 69q74 23 158 23q121 0 232 -49q109 -49 194 -144q86 -95 135 -233t49 -320q0 -178 -53 -321q-52 -141 -141 -240q-90 -100 -203 -151q-111 -51 -231 -52q-123 0 -234 50q-109 49 -194 143 q-84 94 -138 233q-51 136 -51 320zM291 745q0 -145 28 -247q29 -104 89 -187q53 -76 135 -118q80 -43 178 -43q94 0 170 38q82 43 133 111q59 78 88 178q33 111 33 238q0 137 -31 248q-31 113 -86 188q-57 80 -135 119q-82 41 -172 41q-92 0 -174 -41q-80 -39 -137 -113 q-57 -72 -88 -178q-31 -105 -31 -234zM342 1980h119q6 -47 28 -96q20 -43 58 -80q29 -29 77 -53q41 -20 92.5 -20.5t92.5 20.5q45 23 76 53q34 34 55 80q18 41 29 96h122q0 -70 -26 -145q-23 -68 -74 -127q-49 -59 -119 -92q-74 -35 -155 -35q-84 0 -158 35q-70 33 -119 92 q-51 59 -74 127q-24 69 -24 145z" />
<glyph unicode="&#x14f;" horiz-adv-x="1138" d="M94 506q0 131 39 227q39 98 107 168q70 72 153 105q92 35 187 34q100 0 188 -34q82 -33 147 -105q61 -68 97 -168q33 -96 32 -227q0 -133 -38 -230q-40 -98 -105 -165q-63 -66 -153 -101q-92 -35 -189 -35q-100 0 -188 35q-84 33 -146 101q-63 70 -96 165 q-35 101 -35 230zM281 506q0 -94 20 -158q23 -74 59 -115q45 -51 93 -73q52 -25 116 -25q61 0 112.5 24.5t94.5 73.5q39 45 62 115q23 72 22 158q0 88 -20 156q-23 74 -60 118q-40 49 -92 74q-57 27 -119 27q-55 0 -112 -27q-52 -25 -92 -74q-41 -49 -62 -118 q-22 -74 -22 -156zM197 1550h119q6 -47 28 -96q20 -43 58 -80q29 -29 77 -53q41 -20 92.5 -20.5t92.5 20.5q45 23 76 53q34 34 55 80q18 41 29 96h122q0 -70 -26 -145q-23 -68 -74 -127q-49 -59 -119 -92q-74 -35 -155 -35q-84 0 -158 35q-70 33 -119 92q-51 59 -74 127 q-24 69 -24 145z" />
<glyph unicode="&#x150;" horiz-adv-x="1458" d="M94 721q0 117 25 221q23 92 69 188q47 92 103 152q63 66 130.5 111t149.5 69q74 23 158 23q121 0 232 -49q109 -49 194 -144q86 -95 135 -233t49 -320q0 -178 -53 -321q-52 -141 -141 -240q-90 -100 -203 -151q-111 -51 -231 -52q-123 0 -234 50q-109 49 -194 143 q-84 94 -138 233q-51 136 -51 320zM291 745q0 -145 28 -247q29 -104 89 -187q53 -76 135 -118q80 -43 178 -43q94 0 170 38q82 43 133 111q59 78 88 178q33 111 33 238q0 137 -31 248q-31 113 -86 188q-57 80 -135 119q-82 41 -172 41q-92 0 -174 -41q-80 -39 -137 -113 q-57 -72 -88 -178q-31 -105 -31 -234zM408 1581l240 448h211l-312 -448h-139zM748 1581l240 448h211l-312 -448h-139z" />
<glyph unicode="&#x151;" horiz-adv-x="1138" d="M94 506q0 131 39 227q39 98 107 168q70 72 153 105q92 35 187 34q100 0 188 -34q82 -33 147 -105q61 -68 97 -168q33 -96 32 -227q0 -133 -38 -230q-40 -98 -105 -165q-63 -66 -153 -101q-92 -35 -189 -35q-100 0 -188 35q-84 33 -146 101q-63 70 -96 165 q-35 101 -35 230zM281 506q0 -94 20 -158q23 -74 59 -115q45 -51 93 -73q52 -25 116 -25q61 0 112.5 24.5t94.5 73.5q39 45 62 115q23 72 22 158q0 88 -20 156q-23 74 -60 118q-40 49 -92 74q-57 27 -119 27q-55 0 -112 -27q-52 -25 -92 -74q-41 -49 -62 -118 q-22 -74 -22 -156zM260 1151l240 448h211l-312 -448h-139zM600 1151l240 448h211l-312 -448h-139z" />
<glyph unicode="&#x152;" horiz-adv-x="1949" d="M94 721q0 180 49 321q49 143 131 240q84 100 191 152q104 51 225 51q66 0 115 -15q61 -18 100 -38q43 -23 86 -60q37 -31 72 -76q0 6 -1 20.5t-1 22.5q0 33 -2 47q0 6 -1 21.5t-3 22.5q0 6 -1 16t-3 14h749v-166h-545v-448h469v-162h-469v-518h164q182 0 250 2 q119 4 162 12v-180h-780q4 23 8 72q2 16 3 47t1 47q-53 -57 -84 -80q-49 -35 -96 -59q-55 -29 -103 -39q-51 -12 -110 -13q-117 0 -221 50q-102 49 -183 143q-78 94 -125 233q-47 142 -47 320zM291 745q0 -141 26 -247q29 -115 78 -187q51 -76 123 -118.5t162 -42.5 q94 0 166 38.5t123 110.5q49 70 77.5 178.5t28.5 237.5t-26 248q-25 106 -76 188q-49 78 -125 119t-168 41q-88 0 -159.5 -41t-123.5 -113q-52 -74 -80 -178q-26 -101 -26 -234z" />
<glyph unicode="&#x153;" horiz-adv-x="1859" d="M94 508q0 131 39 227q39 98 107 168q66 70 153 103q92 35 187 34q125 0 219 -49q100 -51 157 -141q61 88 159.5 139t223.5 51q74 0 146 -20q59 -16 108 -53q47 -35 78 -80q29 -43 49 -101q16 -47 27 -110q8 -51 8 -113v-39q0 -8 -1 -21.5t-1 -17.5h-709q2 -86 29 -153 q25 -66 66 -107t100 -63q61 -23 127 -23q92 0 188 23q92 23 187 78l18 -164q-61 -33 -102 -47q-55 -20 -103 -31q-52 -12 -104 -18q-35 -4 -111 -5q-59 0 -114.5 12.5t-104.5 37.5q-53 27 -94 61.5t-76 85.5q-68 -98 -170 -147q-101 -49 -221 -50q-100 0 -188 35 q-84 33 -145.5 100.5t-96.5 168t-35 229.5zM281 508q0 -94 20 -158q23 -72 59 -117q40 -49 92.5 -73.5t116.5 -24.5q61 0 113 25q55 27 94 73q40 49 62 117q23 72 22 158q0 92 -20 156q-23 72 -60 116q-40 49 -92 74q-57 27 -119 27q-55 0 -112 -27q-52 -25 -92 -74 t-62 -116q-22 -72 -22 -156zM1053 625h522q0 66 -18.5 114.5t-51 81.5t-80.5 51q-45 18 -100 19q-109 0 -180 -66q-69 -63 -92 -200z" />
<glyph unicode="&#x154;" horiz-adv-x="1304" d="M160 0q8 43 12 174q2 76 2 260v709v131q0 43 -4 108q-2 39 -10 78q18 2 56 3t58 1q74 4 129 4q23 0 77.5 1t84.5 1q119 0 213 -24q104 -27 166 -72q63 -47 107 -129q39 -76 39 -184q0 -88 -29 -162q-29 -72 -74 -121t-106 -84q-49 -29 -119 -49l72 -100l94 -127l100 -135 l94 -125l76 -101l47 -57h-256l-422 625h-202v-191v-139q0 -23 1 -64t1 -59q0 -12 6 -98q4 -55 8 -74h-221zM365 780h190q174 0 258 70q86 72 86 194q0 66 -18 115q-18 47 -62 82q-41 33 -106.5 51.5t-157.5 18.5q-18 0 -52 -1t-50 -1q-35 0 -88 -4v-525zM430 1599l351 430 h229l-420 -430h-160z" />
<glyph unicode="&#x155;" horiz-adv-x="888" d="M104 1020h181q14 -33 22 -70q6 -31 15 -96q8 -68 10 -111q4 -78 4 -118v-66q59 160 98 234q49 92 98 147q51 57 99 78q51 23 98 22q31 0 72 -8q25 -4 63 -22l-28 -185q-31 14 -52 17q-29 4 -55 4q-39 0 -86 -35q-43 -33 -88 -92q-39 -53 -82 -129q-29 -51 -67 -148 q-25 -61 -48 -147q-18 -70 -18 -127v-47q0 -16 4 -41q0 -6 2 -19.5t4 -19.5q2 -12 10 -41h-204v614q0 143 -17 252q-15 97 -35 154zM274 1169l351 430h229l-420 -430h-160z" />
<glyph unicode="&#x158;" horiz-adv-x="1304" d="M160 0q8 43 12 174q2 76 2 260v709v131q0 43 -4 108q-2 39 -10 78q18 2 56 3t58 1q74 4 129 4q23 0 77.5 1t84.5 1q119 0 213 -24q104 -27 166 -72q63 -47 107 -129q39 -76 39 -184q0 -88 -29 -162q-29 -72 -74 -121t-106 -84q-49 -29 -119 -49l72 -100l94 -127l100 -135 l94 -125l76 -101l47 -57h-256l-422 625h-202v-191v-139q0 -23 1 -64t1 -59q0 -12 6 -98q4 -55 8 -74h-221zM365 780h190q174 0 258 70q86 72 86 194q0 66 -18 115q-18 47 -62 82q-41 33 -106.5 51.5t-157.5 18.5q-18 0 -52 -1t-50 -1q-35 0 -88 -4v-525zM185 2029h149 l277 -278l274 278h150l-340 -430h-170z" />
<glyph unicode="&#x159;" horiz-adv-x="888" d="M104 1020h181q14 -33 22 -70q6 -31 15 -96q8 -68 10 -111q4 -78 4 -118v-66q59 160 98 234q49 92 98 147q51 57 99 78q51 23 98 22q31 0 72 -8q25 -4 63 -22l-28 -185q-31 14 -52 17q-29 4 -55 4q-39 0 -86 -35q-43 -33 -88 -92q-39 -53 -82 -129q-29 -51 -67 -148 q-25 -61 -48 -147q-18 -70 -18 -127v-47q0 -16 4 -41q0 -6 2 -19.5t4 -19.5q2 -12 10 -41h-204v614q0 143 -17 252q-15 97 -35 154zM29 1599h149l277 -278l274 278h150l-340 -430h-170z" />
<glyph unicode="&#x15a;" horiz-adv-x="1173" d="M94 111l45 204q104 -90 207 -127q104 -39 219 -38q61 0 117 18q61 20 98 49q47 37 70 80q25 47 24 109q0 37 -12 73q-10 33 -51 70q-35 33 -109 67q-70 33 -188 68q-113 33 -190 78q-70 41 -115 92q-43 49 -59 107q-14 51 -14.5 118.5t26.5 134.5q29 72 84 132 q57 61 145 100q86 39 213 39q76 0 109 -4q70 -8 98 -17q68 -18 94 -28q61 -25 94 -41l-38 -195q-49 27 -101 51q-43 20 -88 33q-57 16 -86 21q-43 6 -90 6q-61 0 -110.5 -18.5t-86.5 -49.5q-39 -33 -55 -67q-18 -40 -18 -80q0 -47 10 -76t47 -62q35 -31 100 -59 q72 -31 172.5 -59.5t175.5 -67.5q74 -39 127 -88q51 -49 80 -115q27 -61 27 -143q0 -104 -39 -184q-39 -82 -108 -142q-68 -58 -160 -92q-90 -33 -193 -33q-66 0 -141 11q-74 10 -129 26q-53 16 -111 43q-55 27 -90 56zM401 1599l351 430h229l-420 -430h-160z" />
<glyph unicode="&#x15b;" horiz-adv-x="964" d="M111 90l49 180q35 -33 76 -55q45 -27 88 -43t90 -27q51 -10 86 -10q43 0 80 12q41 14 63 29q25 16 41 43t16 51q0 27 -12 52q-14 29 -41 47q-37 25 -84 45q-35 14 -137 41q-86 20 -150 53q-57 31 -90 65q-33 37 -45 78q-12 43 -12 88q0 14 8 56q6 29 25 63q12 25 47 66 q29 35 72 59q47 27 100 41q61 16 133 16q41 0 102 -8q49 -6 89 -18q55 -16 71 -25l60 -28l-35 -177q-33 20 -58 33q-20 10 -69 31q-27 10 -80 22q-47 10 -88 11q-57 0 -94 -13q-39 -12 -60 -30q-25 -20 -33 -43q-10 -27 -10 -45q0 -27 8 -45q6 -16 35 -37q20 -16 72 -33 q53 -18 127 -35q70 -16 127 -39q59 -25 104 -59q47 -39 72 -86q27 -53 27 -121q0 -66 -31 -125q-33 -61 -82 -102q-52 -43 -123 -68q-72 -25 -149 -25q-70 0 -119 9q-55 9 -105 24q-57 18 -92 37q-22 12 -69 45zM315 1169l351 430h229l-420 -430h-160z" />
<glyph unicode="&#x15c;" horiz-adv-x="1173" d="M94 111l45 204q104 -90 207 -127q104 -39 219 -38q61 0 117 18q61 20 98 49q47 37 70 80q25 47 24 109q0 37 -12 73q-10 33 -51 70q-35 33 -109 67q-70 33 -188 68q-113 33 -190 78q-70 41 -115 92q-43 49 -59 107q-14 51 -14.5 118.5t26.5 134.5q29 72 84 132 q57 61 145 100q86 39 213 39q76 0 109 -4q70 -8 98 -17q68 -18 94 -28q61 -25 94 -41l-38 -195q-49 27 -101 51q-43 20 -88 33q-57 16 -86 21q-43 6 -90 6q-61 0 -110.5 -18.5t-86.5 -49.5q-39 -33 -55 -67q-18 -40 -18 -80q0 -47 10 -76t47 -62q35 -31 100 -59 q72 -31 172.5 -59.5t175.5 -67.5q74 -39 127 -88q51 -49 80 -115q27 -61 27 -143q0 -104 -39 -184q-39 -82 -108 -142q-68 -58 -160 -92q-90 -33 -193 -33q-66 0 -141 11q-74 10 -129 26q-53 16 -111 43q-55 27 -90 56zM156 1599l340 430h170l340 -430h-150l-274 281 l-277 -281h-149z" />
<glyph unicode="&#x15d;" horiz-adv-x="964" d="M111 90l49 180q35 -33 76 -55q45 -27 88 -43t90 -27q51 -10 86 -10q43 0 80 12q41 14 63 29q25 16 41 43t16 51q0 27 -12 52q-14 29 -41 47q-37 25 -84 45q-35 14 -137 41q-86 20 -150 53q-57 31 -90 65q-33 37 -45 78q-12 43 -12 88q0 14 8 56q6 29 25 63q12 25 47 66 q29 35 72 59q47 27 100 41q61 16 133 16q41 0 102 -8q49 -6 89 -18q55 -16 71 -25l60 -28l-35 -177q-33 20 -58 33q-20 10 -69 31q-27 10 -80 22q-47 10 -88 11q-57 0 -94 -13q-39 -12 -60 -30q-25 -20 -33 -43q-10 -27 -10 -45q0 -27 8 -45q6 -16 35 -37q20 -16 72 -33 q53 -18 127 -35q70 -16 127 -39q59 -25 104 -59q47 -39 72 -86q27 -53 27 -121q0 -66 -31 -125q-33 -61 -82 -102q-52 -43 -123 -68q-72 -25 -149 -25q-70 0 -119 9q-55 9 -105 24q-57 18 -92 37q-22 12 -69 45zM70 1169l340 430h170l340 -430h-150l-274 281l-277 -281h-149 z" />
<glyph unicode="&#x160;" horiz-adv-x="1173" d="M94 111l45 204q104 -90 207 -127q104 -39 219 -38q61 0 117 18q61 20 98 49q47 37 70 80q25 47 24 109q0 37 -12 73q-10 33 -51 70q-35 33 -109 67q-70 33 -188 68q-113 33 -190 78q-70 41 -115 92q-43 49 -59 107q-14 51 -14.5 118.5t26.5 134.5q29 72 84 132 q57 61 145 100q86 39 213 39q76 0 109 -4q70 -8 98 -17q68 -18 94 -28q61 -25 94 -41l-38 -195q-49 27 -101 51q-43 20 -88 33q-57 16 -86 21q-43 6 -90 6q-61 0 -110.5 -18.5t-86.5 -49.5q-39 -33 -55 -67q-18 -40 -18 -80q0 -47 10 -76t47 -62q35 -31 100 -59 q72 -31 172.5 -59.5t175.5 -67.5q74 -39 127 -88q51 -49 80 -115q27 -61 27 -143q0 -104 -39 -184q-39 -82 -108 -142q-68 -58 -160 -92q-90 -33 -193 -33q-66 0 -141 11q-74 10 -129 26q-53 16 -111 43q-55 27 -90 56zM156 2029h149l277 -278l274 278h150l-340 -430h-170z " />
<glyph unicode="&#x161;" horiz-adv-x="964" d="M111 90l49 180q35 -33 76 -55q45 -27 88 -43t90 -27q51 -10 86 -10q43 0 80 12q41 14 63 29q25 16 41 43t16 51q0 27 -12 52q-14 29 -41 47q-37 25 -84 45q-35 14 -137 41q-86 20 -150 53q-57 31 -90 65q-33 37 -45 78q-12 43 -12 88q0 14 8 56q6 29 25 63q12 25 47 66 q29 35 72 59q47 27 100 41q61 16 133 16q41 0 102 -8q49 -6 89 -18q55 -16 71 -25l60 -28l-35 -177q-33 20 -58 33q-20 10 -69 31q-27 10 -80 22q-47 10 -88 11q-57 0 -94 -13q-39 -12 -60 -30q-25 -20 -33 -43q-10 -27 -10 -45q0 -27 8 -45q6 -16 35 -37q20 -16 72 -33 q53 -18 127 -35q70 -16 127 -39q59 -25 104 -59q47 -39 72 -86q27 -53 27 -121q0 -66 -31 -125q-33 -61 -82 -102q-52 -43 -123 -68q-72 -25 -149 -25q-70 0 -119 9q-55 9 -105 24q-57 18 -92 37q-22 12 -69 45zM70 1599h149l277 -278l274 278h150l-340 -430h-170z" />
<glyph unicode="&#x164;" horiz-adv-x="1263" d="M45 1276v184h1155v-184q-70 14 -119 16q-39 2 -127 2h-239v-860q0 -109 4 -260q2 -106 16 -174h-229q14 68 16 174q2 76 2 260v860h-233q-88 0 -127 -2q-49 -2 -119 -16zM197 2029h149l277 -278l274 278h150l-340 -430h-170z" />
<glyph unicode="&#x168;" horiz-adv-x="1439" d="M160 1460h205v-901q0 -96 18 -176q18 -84 55 -133q39 -53 107 -86q59 -29 166 -29q102 0 161 29q65 31 105 86q37 49 55 133q18 80 19 176v901h204q-10 -61 -12 -170q-4 -147 -4 -266v-510q0 -123 -31 -221q-29 -94 -98 -170q-61 -68 -166 -109q-98 -39 -233 -39 q-139 0 -238 39q-106 43 -168 109q-63 70 -98 170q-33 96 -33 221v510q0 186 -2 262q-2 113 -12 174zM352 1634q0 41 14 92q12 43 37 80t59.5 57.5t82.5 20.5q12 0 40 -4q10 -2 41 -10q14 -4 43 -17q2 0 19.5 -8t28.5 -12l27.5 -11.5t21.5 -9.5q14 -6 38.5 -14t35 -10 t32.5 -2q37 0 58 24q20 23 26 60h107q0 -39 -15 -92q-10 -41 -39 -80q-27 -37 -61.5 -57.5t-83.5 -20.5q-33 0 -80 14q-53 16 -88 33q-68 33 -92 41q-34 12 -62 12q-39 0 -59 -24q-25 -27 -27 -62h-104z" />
<glyph unicode="&#x169;" horiz-adv-x="1183" d="M135 1020h205v-555q0 -90 8 -146q10 -68 29 -102q23 -41 53 -57q37 -20 80 -21q47 0 94 27q51 29 96 67q41 35 82 91q33 43 58 96v280v88q0 51 -2 76l-7 74l-6 42t-6 40h205v-569q0 -123 18 -256q14 -102 48 -195h-170q-10 33 -15 41q-10 27 -16 47q-2 4 -7 24.5t-8 30.5 q-8 35 -10 58q-92 -111 -186 -168.5t-203 -57.5q-319 0 -319 431v294q0 16 -1 45t-1 41q0 51 -2 76l-7 76q-2 14 -10 82zM233 1204q0 41 14 92q12 43 37 80t59.5 57.5t82.5 20.5q12 0 40 -4q10 -2 41 -10q14 -4 43 -17q2 0 19.5 -8t28.5 -12l27.5 -11.5t21.5 -9.5 q14 -6 38.5 -14t35 -10t32.5 -2q37 0 58 24q20 23 26 60h107q0 -39 -15 -92q-10 -41 -39 -80q-27 -37 -61.5 -57.5t-83.5 -20.5q-33 0 -80 14q-53 16 -88 33q-68 33 -92 41q-34 12 -62 12q-39 0 -59 -24q-25 -27 -27 -62h-104z" />
<glyph unicode="&#x16a;" horiz-adv-x="1439" d="M160 1460h205v-901q0 -96 18 -176q18 -84 55 -133q39 -53 107 -86q59 -29 166 -29q102 0 161 29q65 31 105 86q37 49 55 133q18 80 19 176v901h204q-10 -61 -12 -170q-4 -147 -4 -266v-510q0 -123 -31 -221q-29 -94 -98 -170q-61 -68 -166 -109q-98 -39 -233 -39 q-139 0 -238 39q-106 43 -168 109q-63 70 -98 170q-33 96 -33 221v510q0 186 -2 262q-2 113 -12 174zM334 1669v152h749v-152h-749z" />
<glyph unicode="&#x16b;" horiz-adv-x="1183" d="M135 1020h205v-555q0 -90 8 -146q10 -68 29 -102q23 -41 53 -57q37 -20 80 -21q47 0 94 27q51 29 96 67q41 35 82 91q33 43 58 96v280v88q0 51 -2 76l-7 74l-6 42t-6 40h205v-569q0 -123 18 -256q14 -102 48 -195h-170q-10 33 -15 41q-10 27 -16 47q-2 4 -7 24.5t-8 30.5 q-8 35 -10 58q-92 -111 -186 -168.5t-203 -57.5q-319 0 -319 431v294q0 16 -1 45t-1 41q0 51 -2 76l-7 76q-2 14 -10 82zM215 1239v152h749v-152h-749z" />
<glyph unicode="&#x16c;" horiz-adv-x="1439" d="M160 1460h205v-901q0 -96 18 -176q18 -84 55 -133q39 -53 107 -86q59 -29 166 -29q102 0 161 29q65 31 105 86q37 49 55 133q18 80 19 176v901h204q-10 -61 -12 -170q-4 -147 -4 -266v-510q0 -123 -31 -221q-29 -94 -98 -170q-61 -68 -166 -109q-98 -39 -233 -39 q-139 0 -238 39q-106 43 -168 109q-63 70 -98 170q-33 96 -33 221v510q0 186 -2 262q-2 113 -12 174zM334 1980h119q6 -47 28 -96q20 -43 58 -80q29 -29 77 -53q41 -20 92.5 -20.5t92.5 20.5q45 23 76 53q34 34 55 80q18 41 29 96h122q0 -70 -26 -145q-23 -68 -74 -127 q-49 -59 -119 -92q-74 -35 -155 -35q-84 0 -158 35q-70 33 -119 92q-51 59 -74 127q-24 69 -24 145z" />
<glyph unicode="&#x16d;" horiz-adv-x="1183" d="M135 1020h205v-555q0 -90 8 -146q10 -68 29 -102q23 -41 53 -57q37 -20 80 -21q47 0 94 27q51 29 96 67q41 35 82 91q33 43 58 96v280v88q0 51 -2 76l-7 74l-6 42t-6 40h205v-569q0 -123 18 -256q14 -102 48 -195h-170q-10 33 -15 41q-10 27 -16 47q-2 4 -7 24.5t-8 30.5 q-8 35 -10 58q-92 -111 -186 -168.5t-203 -57.5q-319 0 -319 431v294q0 16 -1 45t-1 41q0 51 -2 76l-7 76q-2 14 -10 82zM215 1550h119q6 -47 28 -96q20 -43 58 -80q29 -29 77 -53q41 -20 92.5 -20.5t92.5 20.5q45 23 76 53q34 34 55 80q18 41 29 96h122q0 -70 -26 -145 q-23 -68 -74 -127q-49 -59 -119 -92q-74 -35 -155 -35q-84 0 -158 35q-70 33 -119 92q-51 59 -74 127q-24 69 -24 145z" />
<glyph unicode="&#x16e;" horiz-adv-x="1439" d="M160 1460h205v-901q0 -96 18 -176q18 -84 55 -133q39 -53 107 -86q59 -29 166 -29q102 0 161 29q65 31 105 86q37 49 55 133q18 80 19 176v901h204q-10 -61 -12 -170q-4 -147 -4 -266v-510q0 -123 -31 -221q-29 -94 -98 -170q-61 -68 -166 -109q-98 -39 -233 -39 q-139 0 -238 39q-106 43 -168 109q-63 70 -98 170q-33 96 -33 221v510q0 186 -2 262q-2 113 -12 174zM492 1814q0 41 16 84q14 37 47 70q31 31 68 45q43 16 84 16t84 -16q37 -14 68 -45q33 -33 47 -70q16 -43 16 -84t-16 -84q-12 -33 -47 -67.5t-68 -46.5q-43 -16 -84 -16.5 t-84 16.5q-33 12 -67.5 47t-47.5 67q-16 43 -16 84zM607 1814q0 -43 28.5 -71.5t71.5 -28.5t71.5 28.5t28.5 71.5q0 45 -28 74q-27 27 -72 27t-72 -27q-28 -29 -28 -74z" />
<glyph unicode="&#x16f;" horiz-adv-x="1183" d="M135 1020h205v-555q0 -90 8 -146q10 -68 29 -102q23 -41 53 -57q37 -20 80 -21q47 0 94 27q51 29 96 67q41 35 82 91q33 43 58 96v280v88q0 51 -2 76l-7 74l-6 42t-6 40h205v-569q0 -123 18 -256q14 -102 48 -195h-170q-10 33 -15 41q-10 27 -16 47q-2 4 -7 24.5t-8 30.5 q-8 35 -10 58q-92 -111 -186 -168.5t-203 -57.5q-319 0 -319 431v294q0 16 -1 45t-1 41q0 51 -2 76l-7 76q-2 14 -10 82zM375 1384q0 41 16 84q14 37 47 70q31 31 68 45q43 16 84 16t84 -16q37 -14 68 -45q33 -33 47 -70q16 -43 16 -84t-16 -84q-12 -33 -47 -67.5t-68 -46.5 q-43 -16 -84 -16.5t-84 16.5q-33 12 -67.5 47t-47.5 67q-16 43 -16 84zM490 1384q0 -43 28.5 -71.5t71.5 -28.5t71.5 28.5t28.5 71.5q0 45 -28 74q-27 27 -72 27t-72 -27q-28 -29 -28 -74z" />
<glyph unicode="&#x170;" horiz-adv-x="1439" d="M160 1460h205v-901q0 -96 18 -176q18 -84 55 -133q39 -53 107 -86q59 -29 166 -29q102 0 161 29q65 31 105 86q37 49 55 133q18 80 19 176v901h204q-10 -61 -12 -170q-4 -147 -4 -266v-510q0 -123 -31 -221q-29 -94 -98 -170q-61 -68 -166 -109q-98 -39 -233 -39 q-139 0 -238 39q-106 43 -168 109q-63 70 -98 170q-33 96 -33 221v510q0 186 -2 262q-2 113 -12 174zM397 1581l240 448h211l-312 -448h-139zM737 1581l240 448h211l-312 -448h-139z" />
<glyph unicode="&#x171;" horiz-adv-x="1183" d="M135 1020h205v-555q0 -90 8 -146q10 -68 29 -102q23 -41 53 -57q37 -20 80 -21q47 0 94 27q51 29 96 67q41 35 82 91q33 43 58 96v280v88q0 51 -2 76l-7 74l-6 42t-6 40h205v-569q0 -123 18 -256q14 -102 48 -195h-170q-10 33 -15 41q-10 27 -16 47q-2 4 -7 24.5t-8 30.5 q-8 35 -10 58q-92 -111 -186 -168.5t-203 -57.5q-319 0 -319 431v294q0 16 -1 45t-1 41q0 51 -2 76l-7 76q-2 14 -10 82zM279 1151l240 448h211l-312 -448h-139zM619 1151l240 448h211l-312 -448h-139z" />
<glyph unicode="&#x174;" horiz-adv-x="2078" d="M41 1460h219l315 -1274l361 1274h184l365 -1274l309 1274h221l-24 -65q-14 -37 -25 -76q-20 -59 -31 -96q-6 -25 -10 -39.5l-10 -37l-14 -50.5l-306 -1096h-225l-344 1176l-342 -1176h-223l-305 1096l-37 125q-6 23 -11.5 39t-8.5 28t-9 31q-6 20 -27 78q-2 8 -10 29.5 t-12 33.5zM602 1599l340 430h170l340 -430h-150l-274 281l-277 -281h-149z" />
<glyph unicode="&#x175;" horiz-adv-x="1548" d="M45 1020h184l211 -805l260 805h150l260 -805l211 805h184l-32 -102q-8 -25 -13.5 -47.5t-11.5 -39.5q-6 -18 -11 -39.5t-12 -41.5q-12 -39 -24 -84l-187 -666h-190l-250 784l-250 -784h-188l-186 666q-8 31 -23 77q-6 20 -11 42t-12 40l-26 90zM351 1169l340 430h170 l340 -430h-150l-274 281l-277 -281h-149z" />
<glyph unicode="&#x176;" horiz-adv-x="1318" d="M35 1460h229l395 -661l375 661h232l-78 -114q-14 -20 -64 -99l-55 -90q-12 -18 -18.5 -30.5t-15.5 -28l-19 -33.5l-271 -463v-168q0 -184 3 -260q4 -131 12 -174h-219q8 43 12 174q2 76 2 260v176l-264 455q-12 23 -27.5 47.5l-30.5 48.5q-27 47 -57 94q-20 33 -65 99 q-72 102 -76 106zM226 1599l340 430h170l340 -430h-150l-274 281l-277 -281h-149z" />
<glyph unicode="&#x177;" horiz-adv-x="1058" d="M-20 -385l61 160q25 -20 37 -27q39 -23 45 -24l51 -17q25 -6 51 -6q29 0 60 10q27 10 57 39q29 29 61.5 84t65.5 139l-279 693l-65 151q-43 100 -94 203h198l324 -817l41 116l47 132l23.5 67.5l23.5 69.5l47 131l105 301h200q-27 -57 -47 -107l-39 -94q-18 -43 -32 -82 l-27 -71l-240 -666q-49 -135 -102 -236q-47 -88 -102 -143q-53 -55 -107 -72q-55 -18 -119 -18q-70 0 -129 20q-55 21 -116 64zM111 1169l340 430h170l340 -430h-150l-274 281l-277 -281h-149z" />
<glyph unicode="&#x178;" horiz-adv-x="1318" d="M35 1460h229l395 -661l375 661h232l-78 -114q-14 -20 -64 -99l-55 -90q-12 -18 -18.5 -30.5t-15.5 -28l-19 -33.5l-271 -463v-168q0 -184 3 -260q4 -131 12 -174h-219q8 43 12 174q2 76 2 260v176l-264 455q-12 23 -27.5 47.5l-30.5 48.5q-27 47 -57 94q-20 33 -65 99 q-72 102 -76 106zM314 1776q0 25 10 51t27 43q25 25 39 30q25 10 51 11q25 0 51 -11q16 -6 41 -30q16 -16 26.5 -43t10.5 -51q0 -27 -10.5 -53.5t-26.5 -43.5q-20 -20 -41 -28q-27 -10 -51 -11q-27 0 -51 11q-18 8 -39 28q-16 16 -26.5 43t-10.5 54zM734 1776q0 25 10 51 t26 43q25 25 39 30q25 10 52 11q25 0 51 -11q16 -6 41 -30q16 -16 26.5 -43t10.5 -51q0 -27 -10.5 -53.5t-26.5 -43.5q-20 -20 -41 -28q-27 -10 -51 -11q-27 0 -52 11q-18 8 -39 28q-16 16 -26 43t-10 54z" />
<glyph unicode="&#x179;" horiz-adv-x="1228" d="M76 0v125l794 1169h-340h-133q-76 0 -108 -2q-18 -2 -48 -5t-38 -3q-45 -4 -68 -8v184h971v-131l-797 -1163h391q109 0 261 4q119 4 174 14v-184h-1059zM426 1599l351 430h229l-420 -430h-160z" />
<glyph unicode="&#x17a;" horiz-adv-x="1038" d="M104 0v111l576 759h-389q-59 0 -86 -2q-45 -4 -70 -14v166h795v-94l-594 -776h430q57 0 88 2q49 4 90 14v-166h-840zM346 1169l351 430h229l-420 -430h-160z" />
<glyph unicode="&#x17b;" horiz-adv-x="1228" d="M76 0v125l794 1169h-340h-133q-76 0 -108 -2q-18 -2 -48 -5t-38 -3q-45 -4 -68 -8v184h971v-131l-797 -1163h391q109 0 261 4q119 4 174 14v-184h-1059zM469 1776q0 25 10 51q8 23 29 43q23 23 43 30q27 10 53.5 10.5t52.5 -10.5q20 -8 43 -30q20 -20 29 -43 q10 -27 10 -51q0 -27 -10 -54q-8 -23 -28.5 -43t-43.5 -28q-27 -10 -53 -10.5t-53 10.5q-23 8 -43.5 28.5t-28.5 42.5q-10 27 -10 54z" />
<glyph unicode="&#x17c;" horiz-adv-x="1038" d="M104 0v111l576 759h-389q-59 0 -86 -2q-45 -4 -70 -14v166h795v-94l-594 -776h430q57 0 88 2q49 4 90 14v-166h-840zM389 1346q0 25 10 51q8 23 29 43q23 23 43 30q27 10 53.5 10.5t52.5 -10.5q20 -8 43 -30q20 -20 29 -43q10 -27 10 -51q0 -27 -10 -54q-8 -23 -28.5 -43 t-43.5 -28q-27 -10 -53 -10.5t-53 10.5q-23 8 -43.5 28.5t-28.5 42.5q-10 27 -10 54z" />
<glyph unicode="&#x17d;" horiz-adv-x="1228" d="M76 0v125l794 1169h-340h-133q-76 0 -108 -2q-18 -2 -48 -5t-38 -3q-45 -4 -68 -8v184h971v-131l-797 -1163h391q109 0 261 4q119 4 174 14v-184h-1059zM181 2029h149l277 -278l274 278h150l-340 -430h-170z" />
<glyph unicode="&#x17e;" horiz-adv-x="1038" d="M104 0v111l576 759h-389q-59 0 -86 -2q-45 -4 -70 -14v166h795v-94l-594 -776h430q57 0 88 2q49 4 90 14v-166h-840zM101 1599h149l277 -278l274 278h150l-340 -430h-170z" />
<glyph unicode="&#x181;" horiz-adv-x="1615" d="M0 1065q0 102 41 180q39 76 117 125q82 53 184 76q109 25 238 24h274q281 0 410 -84q133 -86 133 -266q0 -63 -18.5 -112.5t-53.5 -89.5q-33 -39 -78 -68q-53 -33 -96 -49q68 -18 117 -41q51 -25 102 -72q45 -43 74 -108q29 -68 29 -158q0 -92 -33 -170 q-33 -80 -101 -137q-63 -55 -172 -90q-100 -33 -249 -33h-152q-55 0 -137 4q-23 0 -69 1t-68 3q8 37 10 78q4 61 4 106q0 18 1 61.5t1 65.5v1004q-68 0 -123 -15q-58 -15 -104 -43q-43 -27 -74 -73q-27 -41 -27 -105q0 -39 2 -55t11 -45q10 -39 12 -41q16 -33 20 -39 l-170 -39q-14 29 -20 45l-17 53l-7 27t-7 29q-4 18 -4 51zM696 156q37 -4 84 -4q16 0 63.5 -1t78.5 -1q51 0 127 14q66 12 114 43q51 33 82 84q33 55 33 129q0 137 -96.5 208.5t-270.5 71.5h-215v-544zM696 856h176q86 0 142 16q57 16 102 50q41 29 63.5 73.5t22.5 96.5 q0 57 -18 100q-16 37 -64 68q-45 29 -116 40q-86 14 -179 15h-129v-459z" />
<glyph unicode="&#x186;" horiz-adv-x="1318" d="M94 188l105 162q29 -43 73 -82q39 -35 93 -63q41 -25 104 -41q51 -14 111 -14q84 0 159 38q82 43 135 111q57 72 95 178q37 104 37 237.5t-35 248.5q-35 113 -92 188q-55 72 -142 117q-83 43 -178 43q-113 0 -207 -56q-92 -53 -172 -155l-41 215q37 41 90 71 q57 35 113 54q53 18 127 33q63 12 121 12q72 0 149 -23q76 -23 142 -63q68 -43 125 -107q66 -72 102 -143q43 -83 68 -184q25 -100 24 -220q0 -184 -51 -325q-53 -147 -139 -242q-92 -100 -205 -151q-115 -51 -246 -52q-63 0 -131 12.5t-127 39.5q-63 29 -115 67 q-59 45 -92 94z" />
<glyph unicode="&#x189;" horiz-adv-x="1433" d="M0 690v146h174v307v131q0 43 -4 108q-2 39 -10 78q20 0 53 2q10 0 33.5 1t38.5 1q12 0 40.5 1t43 1t43 1t43.5 1q23 0 44 1t42 1h73q23 0 93 -4q35 -2 108 -18q57 -12 115 -37q61 -27 114 -61q59 -41 107 -93q47 -53 84 -127q39 -76 59 -169q20 -90 21 -222 q0 -152 -33 -262q-35 -117 -88 -196q-57 -84 -129 -140q-78 -57 -154 -90q-72 -31 -161 -47q-78 -14 -154 -14h-57q-10 0 -32 1t-34 1q-10 0 -34.5 1t-37.5 1q-18 0 -36.5 1t-34.5 1q-29 2 -85.5 3t-84.5 1q4 23 8 78q4 61 4 104q0 18 1 61.5t1 67.5v144v235h-174zM365 166 q86 -8 92 -8q37 -2 129 -2q66 0 131 12q63 12 125 41q58 28 110 74q49 43 88 108.5t60 143.5q20 80 20 186q0 168 -43 280q-41 111 -114 181q-70 68 -168 98q-94 31 -205 31q-8 0 -26.5 -1t-28.5 -1h-64q-10 0 -30.5 -1t-28.5 -1q-10 0 -25.5 -1t-21.5 -1v-469h380v-146 h-380v-524z" />
<glyph unicode="&#x18a;" horiz-adv-x="1763" d="M0 1065q0 102 41 180q39 76 117 125q82 53 184 76q109 25 238 24h305q29 0 110 -4q35 -2 123 -18q61 -12 127 -37q65 -25 123 -61q61 -39 109 -93q55 -63 88 -127q39 -76 59 -169q20 -90 21 -222q0 -152 -33 -262q-35 -117 -88 -196q-57 -84 -129 -140q-78 -57 -154 -90 q-72 -31 -162 -47q-78 -14 -153 -14h-56q-10 0 -32.5 1t-34.5 1q-10 0 -35 1t-37 1q-18 0 -36.5 1t-35.5 1q-29 2 -85 3t-85 1q8 37 11 78q4 61 4 104q0 18 1 62.5t1 66.5v1000q-55 0 -123 -15q-51 -10 -104 -43q-41 -25 -72 -71q-27 -41 -27 -103q0 -39 2 -55t11 -45 q10 -39 12 -41q16 -33 20 -39l-170 -39q-14 29 -20 45l-17 53l-7 27t-7 29q-4 18 -4 51zM694 166q86 -8 92 -8q37 -2 129 -2q68 0 132 12q68 12 127 41q53 25 108 74q49 43 88 108.5t60 143.5q20 80 20 186q0 162 -45 280q-43 113 -123 180.5t-186 98.5q-109 31 -236 31 h-166v-1145z" />
<glyph unicode="&#x18e;" horiz-adv-x="1159" d="M121 0v180q43 -8 160 -12q68 -2 249 -2h265v518h-570v162h570v448h-645v166h849q-8 -43 -12 -174q-2 -76 -2 -262v-590q0 -184 2 -260q4 -131 12 -174h-878z" />
<glyph unicode="&#x190;" horiz-adv-x="1183" d="M125 385q0 72 22 135q20 57 64 111q39 47 92 82q45 29 113 47q-47 18 -92 53q-43 34 -74 80q-27 39 -47 98q-18 53 -19 109q0 61 29 131q28 68 86 123q61 59 147 94q89 37 209 37q61 0 111 -6q61 -8 92 -17q63 -18 82 -26q27 -12 80 -41l-39 -191q-61 41 -90 56 q-37 18 -84 32q-37 12 -82 19q-27 4 -80 4q-57 0 -110 -17q-49 -15 -86 -43q-37 -27 -58 -63q-20 -35 -20 -78q0 -70 34.5 -123t90.5 -86q59 -35 129 -49q78 -16 149 -16v-160q-63 0 -98 -4q-66 -8 -103 -17q-61 -14 -100 -32q-51 -25 -84 -52q-37 -31 -57 -71 q-23 -45 -23 -98q0 -65 25 -111q27 -49 65 -80q45 -35 95 -49q55 -16 110 -16q47 0 115 14q57 12 112 37q63 29 109 57q47 31 94 78l41 -197q-45 -41 -102 -71q-49 -27 -125 -52q-63 -20 -131 -30q-72 -10 -121 -11q-131 0 -215 35t-145 96q-55 55 -84 132q-27 71 -27 147z " />
<glyph unicode="&#x192;" horiz-adv-x="729" d="M-190 -406l34 166q6 -6 41 -22q20 -10 52 -21q29 -10 53 -12q37 -4 49 -4q41 0 72 14q35 16 59 49q25 35 37 84q12 53 12 127v875h-199v145h199v174q0 224 92 338q92 113 254 113q58 0 117 -18q57 -18 102 -52l-45 -149q-37 27 -84 43q-49 16 -90 16q-33 0 -69 -14 q-27 -10 -50 -43q-20 -31 -30 -78q-10 -51 -10 -115v-215h270v-145h-270v-356q0 -51 -1.5 -140.5t-1.5 -126.5v-202q0 -143 -26 -236q-27 -94 -76 -151q-49 -59 -117 -82q-70 -25 -155 -25q-12 0 -49 4q-29 4 -60 12q-33 10 -59 21q-31 12 -51 26z" />
<glyph unicode="&#x197;" horiz-adv-x="1034" d="M150 690v146h260v479h-240v145h676v-145h-246v-479h264v-146h-264v-545h246v-145h-676v145h240v545h-260z" />
<glyph unicode="&#x198;" horiz-adv-x="1234" d="M160 0q8 43 12 174q2 76 2 260v590q0 186 -2 262q-4 131 -12 174h205v-672l360 437q61 76 102 118q43 47 91 80q43 31 88 47q41 14 94 15q59 0 112 -21q59 -23 109 -69l-72 -150q-27 29 -45 43l-39 25q-12 6 -37 10q-12 2 -38 2q-37 0 -70 -20q-31 -20 -68 -60 q-39 -43 -71 -86l-86 -104l-236 -281l672 -774h-246l-620 717v-717h-205z" />
<glyph unicode="&#x199;" horiz-adv-x="1019" d="M129 0v1100q0 129 27 223q29 102 82 164q53 63 143 98q88 35 209 35q57 0 127 -16q72 -16 137 -60l-80 -139q-52 31 -98 43q-45 12 -101 12q-66 0 -116 -22q-49 -20 -82 -67.5t-47 -102.5q-14 -57 -15 -138v-530l406 420h250l-496 -447l524 -573h-243l-441 520v-520h-186 z" />
<glyph unicode="&#x19a;" horiz-adv-x="823" d="M100 735v146h219v249q0 184 -4 265q-4 100 -16 204h207v-718h219v-146h-219v-260v-113q0 -43 4 -133q2 -45 6 -127q4 -74 8 -102h-205v735h-219z" />
<glyph unicode="&#x19d;" horiz-adv-x="1546" d="M-225 -395l35 166q14 -12 43 -27q16 -8 53 -25q29 -12 57 -18q31 -6 62 -6q41 0 77.5 18.5t63.5 51t43 88.5q14 49 14 122v1049q0 186 -2 262q-4 131 -12 174h178l797 -1157v1157h180q-4 -23 -8 -74q-6 -86 -6 -100q0 -18 -1 -58t-1 -63v-141v-1024h-164l-797 1151v-1126 q0 -139 -25 -236q-23 -88 -75 -151q-47 -57 -117 -82q-68 -25 -156 -25q-39 0 -59 4q-53 10 -66 14q-31 9 -61 25q-41 21 -53 31z" />
<glyph unicode="&#x19f;" horiz-adv-x="1458" d="M94 721q0 117 25 221q23 92 69 188q47 92 103 152q63 66 130.5 111t149.5 69q74 23 158 23q121 0 232 -49q109 -49 194 -144q86 -95 135 -233t49 -320q0 -178 -53 -321q-52 -141 -141 -240q-90 -100 -203 -151q-111 -51 -231 -52q-123 0 -234 50q-109 49 -194 143 q-84 94 -138 233q-51 136 -51 320zM293 670q10 -129 41 -217q33 -94 90 -164q51 -61 131 -103q74 -37 166 -36q86 0 161.5 34.5t131.5 102.5q57 70 90 164q35 98 41 219h-852zM293 815h848q-12 113 -47 209q-33 88 -88 154q-57 66 -127 98q-76 35 -158 35q-88 0 -164 -35 q-78 -35 -131 -98q-57 -68 -90 -156q-33 -92 -43 -207z" />
<glyph unicode="&#x1a0;" horiz-adv-x="1519" d="M94 721q0 117 25 221q23 92 69 188q47 92 103 152q63 66 130.5 111t149.5 69q74 23 158 23q127 0 236 -51q117 -55 198 -152q20 14 58 51q18 18 47 64q16 25 30 73q12 40 13 80h-181v119q23 53 60 76q40 25 104 24q35 0 66 -12q27 -10 51 -39q27 -31 37 -57 q12 -35 12 -76q0 -63 -18 -119q-16 -51 -49 -102q-27 -43 -74 -90q-39 -39 -96 -76q55 -88 86 -205q31 -113 30 -254q0 -178 -53 -321q-52 -141 -141 -240q-90 -100 -203 -151q-111 -51 -231 -52q-123 0 -234 50q-109 49 -194 143q-84 94 -138 233q-51 136 -51 320zM291 745 q0 -145 28 -247q29 -104 89 -187q53 -76 135 -118q80 -43 178 -43q94 0 170 38q82 43 133 111q59 78 88 178q33 111 33 238q0 137 -31 248q-31 113 -86 188q-57 80 -135 119q-82 41 -172 41q-92 0 -174 -41q-80 -39 -137 -113q-57 -72 -88 -178q-31 -105 -31 -234z" />
<glyph unicode="&#x1a1;" horiz-adv-x="1298" d="M94 506q0 131 39 227q39 98 107 168q70 72 153 105q92 35 187 34q121 0 223 -51q94 -47 158 -149q31 16 65 43q27 23 53 55q20 25 33 61q12 33 12 70h-149v100q8 20 22 43q14 20 27 31q16 14 41 21q22 6 55 6t56 -10q29 -12 47 -35t30 -51q12 -31 13 -68q0 -55 -19 -105 q-18 -47 -53 -92q-31 -37 -84 -82q-49 -41 -106 -71q14 -39 30 -117q10 -51 10 -133q0 -133 -38 -230q-40 -98 -105 -165q-63 -66 -153 -101q-92 -35 -189 -35q-100 0 -188 35q-84 33 -146 101q-63 70 -96 165q-35 101 -35 230zM281 506q0 -94 20 -158q23 -74 59 -115 q45 -51 93 -73q52 -25 116 -25q61 0 112.5 24.5t94.5 73.5q39 45 62 115q23 72 22 158q0 88 -20 156q-23 74 -60 118q-40 49 -92 74q-57 27 -119 27q-55 0 -112 -27q-52 -25 -92 -74q-41 -49 -62 -118q-22 -74 -22 -156z" />
<glyph unicode="&#x1a9;" horiz-adv-x="1228" d="M76 0v129l426 621l-398 579v131h971v-184q-23 4 -67 8q-8 0 -38 3t-48 5q-33 2 -109 2h-133h-340l371 -542l-430 -586h419h127q45 0 123 4q51 2 107 6q53 4 78 8v-184h-1059z" />
<glyph unicode="&#x1aa;" horiz-adv-x="944" d="M0 1200q0 92 28.5 172t75.5 133q47 51 117 84q68 31 144 31q82 0 145 -24.5t113 -82.5q47 -57 75 -153q27 -92 27 -236q0 -39 -4 -202q-4 -143 -6 -267q0 -6 -1 -32.5t-1 -47.5q-2 -55 -4 -124q-2 -25 -3 -73t-1 -75t-1.5 -77t-3.5 -74q-2 -72 -4 -129q0 -20 -1 -48 t-1 -34q0 -51 15 -101q12 -47 36 -76q27 -35 56 -47q37 -16 73 -16q47 0 82 14q31 12 74 45l45 -159q-43 -33 -104 -52q-58 -18 -117 -18q-170 0 -256 111q-88 113 -88 338l1 20q1 20 1 41q0 74 2 121q2 63 6 162q0 43 2 90l4 96q0 47 2 96l4 99q3 98 7 184q-39 -27 -90 -49 q-47 -20 -105 -21q-61 0 -125 29q-59 27 -110 78q-47 47 -78 118q-31 70 -31 156zM166 1221q0 -61 12 -97q18 -49 39 -75q25 -31 62 -52q31 -16 75 -16q46 0 80 18q39 20 60 48q25 31 36 69q16 53 19 78v16v11q0 55 -16.5 100t-40.5 76q-27 33 -62 47q-39 16 -76 16 q-43 0 -78 -18q-37 -20 -61 -53q-25 -35 -37 -76q-12 -43 -12 -92z" />
<glyph unicode="&#x1af;" horiz-adv-x="1644" d="M160 1460h205v-901q0 -96 18 -176q18 -84 55 -133q39 -53 107 -86q59 -29 166 -29q102 0 161 29q65 31 105 86q37 49 55 133q18 80 19 176v901h188v-223q37 27 68 63q27 31 59 86q27 45 43 97q16 53 16 96h-180v121q23 51 60 74q43 27 104 26q29 0 66 -14q29 -12 51 -37 q27 -31 37 -57q12 -33 12 -76q0 -74 -27 -146q-27 -70 -76 -139t-106 -120.5t-127 -88.5v-608q0 -123 -31 -221q-29 -94 -98 -170q-61 -68 -166 -109q-98 -39 -233 -39q-139 0 -238 39q-106 43 -168 109q-63 70 -98 170q-33 96 -33 221v510q0 186 -2 262q-2 113 -12 174z " />
<glyph unicode="&#x1b0;" horiz-adv-x="1439" d="M162 1020h205v-555q0 -90 8 -146q10 -68 28 -102q23 -41 52 -57q37 -20 82 -21q47 0 94 27t94 67.5t84 90.5q33 43 57 96v280v88q0 27 -4 76l-6 74q-2 14 -10 82h205v-203q33 14 65 39q29 20 60 55q27 31 43 72q18 47 18 86h-152v100q8 20 23 43q14 20 27 31q16 14 41 21 q22 6 55 6q35 0 57 -10q25 -10 45 -35q18 -23 31 -51q12 -31 12 -68q0 -82 -24 -139q-25 -58 -68 -105q-41 -43 -104 -84q-66 -41 -129 -71v-256q0 -137 16 -256q12 -92 49 -195h-170q-12 33 -14 41l-17 47q-2 4 -7 24.5t-7 30.5q-8 35 -10 58q-92 -111 -186.5 -168.5 t-202.5 -57.5q-322 0 -322 431v294v86q0 51 -2 76l-6 76q-2 14 -10 82z" />
<glyph unicode="&#x1b3;" horiz-adv-x="1333" d="M35 1460h229l398 -661l210 364q49 86 93 148q41 59 86 100q39 37 86 55q46 18 98 19q31 0 61 -6q29 -6 58 -19q31 -14 49 -26q25 -16 37 -33l-99 -135q-16 25 -41 41q-23 14 -61 14q-23 0 -51 -14q-20 -10 -51 -47q-29 -35 -66 -97l-92 -155l-234 -406v-168 q0 -184 3 -260q4 -131 12 -174h-219q8 43 12 174q2 76 2 260v176l-264 455q-12 23 -27.5 47.5l-30.5 48.5q-27 47 -57 94q-20 33 -65 99q-72 102 -76 106z" />
<glyph unicode="&#x1b4;" horiz-adv-x="1222" d="M-20 -385l61 160q25 -20 37 -27q39 -23 45 -24l51 -17q25 -6 51 -6q29 0 60 10q27 10 57 39q29 29 61.5 84t65.5 139l-279 693l-65 151q-43 100 -94 203h198l322 -809l39 131l41 145q10 37 21.5 74t21.5 74q20 74 41 139l37 121l28 90q27 80 70 154q39 68 78 104 q41 37 90 57q51 20 100 21q25 0 62 -8q29 -6 53 -19q16 -8 47 -34q33 -29 49 -48l-76 -157q-35 53 -71 73q-41 23 -68 23q-35 0 -59 -16q-31 -20 -54 -58q-33 -51 -51 -102q-31 -82 -51 -160l-70 -242l-29.5 -108.5l-35.5 -124.5q-41 -137 -62 -199q-35 -109 -47 -141 q-53 -141 -104 -236q-49 -92 -100 -143q-53 -55 -107 -72q-55 -18 -119 -18q-70 0 -129 20q-55 21 -116 64z" />
<glyph unicode="&#x1b7;" horiz-adv-x="1310" d="M115 -104l112 -70q58 -34 123 -62q66 -29 131 -43q72 -16 140 -16q49 0 104 16q45 14 98 46q46 28 86 67.5t68 85.5t43 98q14 49 14 107q0 90 -30 164q-31 76 -89 129q-61 57 -137 86q-82 31 -182 31q-61 0 -96 -3q-52 -3 -105 -12v154l545 620h-371h-133q-74 0 -106 -2 q-18 -2 -48 -5t-38 -3q-49 -4 -70 -8v184h981v-170l-522 -594q150 0 252 -41q109 -43 176 -110q29 -29 57 -70q35 -51 51 -90q22 -52 37 -117q14 -59 15 -143q0 -135 -52 -240q-51 -106 -137 -186q-88 -82 -198.5 -125t-233.5 -43q-72 0 -139 12q-78 14 -131 33 q-76 27 -117 47.5t-98 57.5v215z" />
<glyph unicode="&#x1cd;" horiz-adv-x="1394" d="M41 0l27 63l30 74q8 20 16.5 44l18.5 50l47 123l400 1106h215l399 -1106l45 -123q12 -31 22.5 -54t16.5 -40l31 -74l26 -63h-205l-137 385h-614l-133 -385h-205zM432 541h508l-256 725zM262 2029h149l277 -278l274 278h150l-340 -430h-170z" />
<glyph unicode="&#x1ce;" horiz-adv-x="1148" d="M104 410q0 109 27 208q23 86 70 166q41 66 82 113t96 80t117 47q70 16 139 16q37 0 84 -6q68 -8 96 -14q45 -8 96 -25l88 -30v-435q0 -182 23 -317q23 -139 53 -213h-176l-12 37q-10 25 -19 51q-12 41 -18 63.5t-14 67.5q-35 -43 -84 -92q-57 -57 -90 -80 q-53 -37 -101 -53q-53 -18 -106 -19q-66 0 -125 27q-66 31 -113 82q-55 61 -82 135q-31 85 -31 191zM291 461q0 -88 14 -143.5t41 -98.5q20 -35 60 -55q33 -18 63 -19q43 0 92 25q47 23 96 70q43 41 91 100q39 49 67 115v374l-39 15q-33 8 -51 12q-35 8 -63 10q-45 4 -66 4 t-66 -8q-33 -6 -63.5 -24.5t-60.5 -49.5q-35 -35 -56 -73q-27 -45 -43 -115q-16 -71 -16 -139zM191 1599h149l277 -278l274 278h150l-340 -430h-170z" />
<glyph unicode="&#x1cf;" horiz-adv-x="974" d="M139 0v145h242v1170h-242v145h676v-145h-246v-1170h246v-145h-676zM52 2029h149l277 -278l274 278h150l-340 -430h-170z" />
<glyph unicode="&#x1d0;" horiz-adv-x="528" d="M156 1020h198v-545q0 -14 1 -52t1 -61q0 -43 4 -133l7 -129q4 -70 8 -100h-205v530v144q0 25 -1 69.5t-1 65.5q0 43 -4 117q-4 63 -8 94zM-159 1599h149l277 -278l274 278h150l-340 -430h-170z" />
<glyph unicode="&#x1d1;" horiz-adv-x="1458" d="M94 721q0 117 25 221q23 92 69 188q47 92 103 152q63 66 130.5 111t149.5 69q74 23 158 23q121 0 232 -49q109 -49 194 -144q86 -95 135 -233t49 -320q0 -178 -53 -321q-52 -141 -141 -240q-90 -100 -203 -151q-111 -51 -231 -52q-123 0 -234 50q-109 49 -194 143 q-84 94 -138 233q-51 136 -51 320zM291 745q0 -145 28 -247q29 -104 89 -187q53 -76 135 -118q80 -43 178 -43q94 0 170 38q82 43 133 111q59 78 88 178q33 111 33 238q0 137 -31 248q-31 113 -86 188q-57 80 -135 119q-82 41 -172 41q-92 0 -174 -41q-80 -39 -137 -113 q-57 -72 -88 -178q-31 -105 -31 -234zM291 2029h149l277 -278l274 278h150l-340 -430h-170z" />
<glyph unicode="&#x1d2;" horiz-adv-x="1138" d="M94 506q0 131 39 227q39 98 107 168q70 72 153 105q92 35 187 34q100 0 188 -34q82 -33 147 -105q61 -68 97 -168q33 -96 32 -227q0 -133 -38 -230q-40 -98 -105 -165q-63 -66 -153 -101q-92 -35 -189 -35q-100 0 -188 35q-84 33 -146 101q-63 70 -96 165 q-35 101 -35 230zM281 506q0 -94 20 -158q23 -74 59 -115q45 -51 93 -73q52 -25 116 -25q61 0 112.5 24.5t94.5 73.5q39 45 62 115q23 72 22 158q0 88 -20 156q-23 74 -60 118q-40 49 -92 74q-57 27 -119 27q-55 0 -112 -27q-52 -25 -92 -74q-41 -49 -62 -118 q-22 -74 -22 -156zM146 1599h149l277 -278l274 278h150l-340 -430h-170z" />
<glyph unicode="&#x1d3;" horiz-adv-x="1439" d="M160 1460h205v-901q0 -96 18 -176q18 -84 55 -133q39 -53 107 -86q59 -29 166 -29q102 0 161 29q65 31 105 86q37 49 55 133q18 80 19 176v901h204q-10 -61 -12 -170q-4 -147 -4 -266v-510q0 -123 -31 -221q-29 -94 -98 -170q-61 -68 -166 -109q-98 -39 -233 -39 q-139 0 -238 39q-106 43 -168 109q-63 70 -98 170q-33 96 -33 221v510q0 186 -2 262q-2 113 -12 174zM283 2029h149l277 -278l274 278h150l-340 -430h-170z" />
<glyph unicode="&#x1d4;" horiz-adv-x="1183" d="M135 1020h205v-555q0 -90 8 -146q10 -68 29 -102q23 -41 53 -57q37 -20 80 -21q47 0 94 27q51 29 96 67q41 35 82 91q33 43 58 96v280v88q0 51 -2 76l-7 74l-6 42t-6 40h205v-569q0 -123 18 -256q14 -102 48 -195h-170q-10 33 -15 41q-10 27 -16 47q-2 4 -7 24.5t-8 30.5 q-8 35 -10 58q-92 -111 -186 -168.5t-203 -57.5q-319 0 -319 431v294q0 16 -1 45t-1 41q0 51 -2 76l-7 76q-2 14 -10 82zM164 1599h149l277 -278l274 278h150l-340 -430h-170z" />
<glyph unicode="&#x1d5;" horiz-adv-x="1439" d="M160 1460h205v-901q0 -96 18 -176q18 -84 55 -133q39 -53 107 -86q59 -29 166 -29q102 0 161 29q65 31 105 86q37 49 55 133q18 80 19 176v901h204q-10 -61 -12 -170q-4 -147 -4 -266v-510q0 -123 -31 -221q-29 -94 -98 -170q-61 -68 -166 -109q-98 -39 -233 -39 q-139 0 -238 39q-106 43 -168 109q-63 70 -98 170q-33 96 -33 221v510q0 186 -2 262q-2 113 -12 174zM371 1776q0 25 10 51t27 43q25 25 39 30q25 10 51 11q25 0 51 -11q16 -6 41 -30q16 -16 26.5 -43t10.5 -51q0 -27 -10.5 -53.5t-26.5 -43.5q-20 -20 -41 -28 q-27 -10 -51 -11q-27 0 -51 11q-18 8 -39 28q-16 16 -26.5 43t-10.5 54zM791 1776q0 25 10 51t26 43q25 25 39 30q25 10 52 11q25 0 51 -11q16 -6 41 -30q16 -16 26.5 -43t10.5 -51q0 -27 -10.5 -53.5t-26.5 -43.5q-20 -20 -41 -28q-27 -10 -51 -11q-27 0 -52 11 q-18 8 -39 28q-16 16 -26 43t-10 54zM334 2075v152h749v-152h-749z" />
<glyph unicode="&#x1d6;" horiz-adv-x="1183" d="M135 1020h205v-555q0 -90 8 -146q10 -68 29 -102q23 -41 53 -57q37 -20 80 -21q47 0 94 27q51 29 96 67q41 35 82 91q33 43 58 96v280v88q0 51 -2 76l-7 74l-6 42t-6 40h205v-569q0 -123 18 -256q14 -102 48 -195h-170q-10 33 -15 41q-10 27 -16 47q-2 4 -7 24.5t-8 30.5 q-8 35 -10 58q-92 -111 -186 -168.5t-203 -57.5q-319 0 -319 431v294q0 16 -1 45t-1 41q0 51 -2 76l-7 76q-2 14 -10 82zM252 1346q0 25 10 51t27 43q25 25 39 30q25 10 51 11q25 0 51 -11q16 -6 41 -30q16 -16 26.5 -43t10.5 -51q0 -27 -10.5 -53.5t-26.5 -43.5 q-20 -20 -41 -28q-27 -10 -51 -11q-27 0 -51 11q-18 8 -39 28q-16 16 -26.5 43t-10.5 54zM672 1346q0 25 10 51t26 43q25 25 39 30q25 10 52 11q25 0 51 -11q16 -6 41 -30q16 -16 26.5 -43t10.5 -51q0 -27 -10.5 -53.5t-26.5 -43.5q-20 -20 -41 -28q-27 -10 -51 -11 q-27 0 -52 11q-18 8 -39 28q-16 16 -26 43t-10 54zM215 1645v152h749v-152h-749z" />
<glyph unicode="&#x1d7;" horiz-adv-x="1439" d="M160 1460h205v-901q0 -96 18 -176q18 -84 55 -133q39 -53 107 -86q59 -29 166 -29q102 0 161 29q65 31 105 86q37 49 55 133q18 80 19 176v901h204q-10 -61 -12 -170q-4 -147 -4 -266v-510q0 -123 -31 -221q-29 -94 -98 -170q-61 -68 -166 -109q-98 -39 -233 -39 q-139 0 -238 39q-106 43 -168 109q-63 70 -98 170q-33 96 -33 221v510q0 186 -2 262q-2 113 -12 174zM371 1776q0 25 10 51t27 43q25 25 39 30q25 10 51 11q25 0 51 -11q16 -6 41 -30q16 -16 26.5 -43t10.5 -51q0 -27 -10.5 -53.5t-26.5 -43.5q-20 -20 -41 -28 q-27 -10 -51 -11q-27 0 -51 11q-18 8 -39 28q-16 16 -26.5 43t-10.5 54zM791 1776q0 25 10 51t26 43q25 25 39 30q25 10 52 11q25 0 51 -11q16 -6 41 -30q16 -16 26.5 -43t10.5 -51q0 -27 -10.5 -53.5t-26.5 -43.5q-20 -20 -41 -28q-27 -10 -51 -11q-27 0 -52 11 q-18 8 -39 28q-16 16 -26 43t-10 54zM528 2005l351 430h229l-420 -430h-160z" />
<glyph unicode="&#x1d8;" horiz-adv-x="1183" d="M135 1020h205v-555q0 -90 8 -146q10 -68 29 -102q23 -41 53 -57q37 -20 80 -21q47 0 94 27q51 29 96 67q41 35 82 91q33 43 58 96v280v88q0 51 -2 76l-7 74l-6 42t-6 40h205v-569q0 -123 18 -256q14 -102 48 -195h-170q-10 33 -15 41q-10 27 -16 47q-2 4 -7 24.5t-8 30.5 q-8 35 -10 58q-92 -111 -186 -168.5t-203 -57.5q-319 0 -319 431v294q0 16 -1 45t-1 41q0 51 -2 76l-7 76q-2 14 -10 82zM252 1346q0 25 10 51t27 43q25 25 39 30q25 10 51 11q25 0 51 -11q16 -6 41 -30q16 -16 26.5 -43t10.5 -51q0 -27 -10.5 -53.5t-26.5 -43.5 q-20 -20 -41 -28q-27 -10 -51 -11q-27 0 -51 11q-18 8 -39 28q-16 16 -26.5 43t-10.5 54zM672 1346q0 25 10 51t26 43q25 25 39 30q25 10 52 11q25 0 51 -11q16 -6 41 -30q16 -16 26.5 -43t10.5 -51q0 -27 -10.5 -53.5t-26.5 -43.5q-20 -20 -41 -28q-27 -10 -51 -11 q-27 0 -52 11q-18 8 -39 28q-16 16 -26 43t-10 54zM409 1575l351 430h229l-420 -430h-160z" />
<glyph unicode="&#x1d9;" horiz-adv-x="1439" d="M160 1460h205v-901q0 -96 18 -176q18 -84 55 -133q39 -53 107 -86q59 -29 166 -29q102 0 161 29q65 31 105 86q37 49 55 133q18 80 19 176v901h204q-10 -61 -12 -170q-4 -147 -4 -266v-510q0 -123 -31 -221q-29 -94 -98 -170q-61 -68 -166 -109q-98 -39 -233 -39 q-139 0 -238 39q-106 43 -168 109q-63 70 -98 170q-33 96 -33 221v510q0 186 -2 262q-2 113 -12 174zM371 1776q0 25 10 51t27 43q25 25 39 30q25 10 51 11q25 0 51 -11q16 -6 41 -30q16 -16 26.5 -43t10.5 -51q0 -27 -10.5 -53.5t-26.5 -43.5q-20 -20 -41 -28 q-27 -10 -51 -11q-27 0 -51 11q-18 8 -39 28q-16 16 -26.5 43t-10.5 54zM791 1776q0 25 10 51t26 43q25 25 39 30q25 10 52 11q25 0 51 -11q16 -6 41 -30q16 -16 26.5 -43t10.5 -51q0 -27 -10.5 -53.5t-26.5 -43.5q-20 -20 -41 -28q-27 -10 -51 -11q-27 0 -52 11 q-18 8 -39 28q-16 16 -26 43t-10 54zM283 2435h149l277 -278l274 278h150l-340 -430h-170z" />
<glyph unicode="&#x1da;" horiz-adv-x="1183" d="M135 1020h205v-555q0 -90 8 -146q10 -68 29 -102q23 -41 53 -57q37 -20 80 -21q47 0 94 27q51 29 96 67q41 35 82 91q33 43 58 96v280v88q0 51 -2 76l-7 74l-6 42t-6 40h205v-569q0 -123 18 -256q14 -102 48 -195h-170q-10 33 -15 41q-10 27 -16 47q-2 4 -7 24.5t-8 30.5 q-8 35 -10 58q-92 -111 -186 -168.5t-203 -57.5q-319 0 -319 431v294q0 16 -1 45t-1 41q0 51 -2 76l-7 76q-2 14 -10 82zM252 1346q0 25 10 51t27 43q25 25 39 30q25 10 51 11q25 0 51 -11q16 -6 41 -30q16 -16 26.5 -43t10.5 -51q0 -27 -10.5 -53.5t-26.5 -43.5 q-20 -20 -41 -28q-27 -10 -51 -11q-27 0 -51 11q-18 8 -39 28q-16 16 -26.5 43t-10.5 54zM672 1346q0 25 10 51t26 43q25 25 39 30q25 10 52 11q25 0 51 -11q16 -6 41 -30q16 -16 26.5 -43t10.5 -51q0 -27 -10.5 -53.5t-26.5 -43.5q-20 -20 -41 -28q-27 -10 -51 -11 q-27 0 -52 11q-18 8 -39 28q-16 16 -26 43t-10 54zM164 2005h149l277 -278l274 278h150l-340 -430h-170z" />
<glyph unicode="&#x1db;" horiz-adv-x="1439" d="M160 1460h205v-901q0 -96 18 -176q18 -84 55 -133q39 -53 107 -86q59 -29 166 -29q102 0 161 29q65 31 105 86q37 49 55 133q18 80 19 176v901h204q-10 -61 -12 -170q-4 -147 -4 -266v-510q0 -123 -31 -221q-29 -94 -98 -170q-61 -68 -166 -109q-98 -39 -233 -39 q-139 0 -238 39q-106 43 -168 109q-63 70 -98 170q-33 96 -33 221v510q0 186 -2 262q-2 113 -12 174zM371 1776q0 25 10 51t27 43q25 25 39 30q25 10 51 11q25 0 51 -11q16 -6 41 -30q16 -16 26.5 -43t10.5 -51q0 -27 -10.5 -53.5t-26.5 -43.5q-20 -20 -41 -28 q-27 -10 -51 -11q-27 0 -51 11q-18 8 -39 28q-16 16 -26.5 43t-10.5 54zM791 1776q0 25 10 51t26 43q25 25 39 30q25 10 52 11q25 0 51 -11q16 -6 41 -30q16 -16 26.5 -43t10.5 -51q0 -27 -10.5 -53.5t-26.5 -43.5q-20 -20 -41 -28q-27 -10 -51 -11q-27 0 -52 11 q-18 8 -39 28q-16 16 -26 43t-10 54zM317 2435h229l351 -430h-160z" />
<glyph unicode="&#x1dc;" horiz-adv-x="1183" d="M135 1020h205v-555q0 -90 8 -146q10 -68 29 -102q23 -41 53 -57q37 -20 80 -21q47 0 94 27q51 29 96 67q41 35 82 91q33 43 58 96v280v88q0 51 -2 76l-7 74l-6 42t-6 40h205v-569q0 -123 18 -256q14 -102 48 -195h-170q-10 33 -15 41q-10 27 -16 47q-2 4 -7 24.5t-8 30.5 q-8 35 -10 58q-92 -111 -186 -168.5t-203 -57.5q-319 0 -319 431v294q0 16 -1 45t-1 41q0 51 -2 76l-7 76q-2 14 -10 82zM252 1346q0 25 10 51t27 43q25 25 39 30q25 10 51 11q25 0 51 -11q16 -6 41 -30q16 -16 26.5 -43t10.5 -51q0 -27 -10.5 -53.5t-26.5 -43.5 q-20 -20 -41 -28q-27 -10 -51 -11q-27 0 -51 11q-18 8 -39 28q-16 16 -26.5 43t-10.5 54zM672 1346q0 25 10 51t26 43q25 25 39 30q25 10 52 11q25 0 51 -11q16 -6 41 -30q16 -16 26.5 -43t10.5 -51q0 -27 -10.5 -53.5t-26.5 -43.5q-20 -20 -41 -28q-27 -10 -51 -11 q-27 0 -52 11q-18 8 -39 28q-16 16 -26 43t-10 54zM199 2005h229l351 -430h-160z" />
<glyph unicode="&#x1dd;" horiz-adv-x="1077" d="M100 451v36v39h699q-4 86 -27 148q-25 63 -67 106q-49 49 -101 68q-61 23 -127 22q-96 0 -182 -30q-84 -31 -168 -92l-18 163q86 51 96 56q57 27 94 39q31 10 96 22q43 8 109 8q98 0 182 -32q94 -37 154 -97q65 -65 104 -159q39 -92 39 -220q0 -121 -29 -225 q-27 -98 -88 -176q-57 -72 -147 -113q-92 -41 -207 -41q-123 0 -205 41q-78 39 -125 109q-45 66 -63 153q-19 87 -19 175zM285 387q0 -129 61.5 -198.5t177.5 -69.5q65 0 111 18q47 18 78 53q33 37 51 84q20 53 29 113h-508z" />
<glyph unicode="&#x1de;" horiz-adv-x="1394" d="M41 0l27 63l30 74q8 20 16.5 44l18.5 50l47 123l400 1106h215l399 -1106l45 -123q12 -31 22.5 -54t16.5 -40l31 -74l26 -63h-205l-137 385h-614l-133 -385h-205zM432 541h508l-256 725zM350 1776q0 25 10 51t27 43q25 25 39 30q25 10 51 11q25 0 51 -11q16 -6 41 -30 q16 -16 26.5 -43t10.5 -51q0 -27 -10.5 -53.5t-26.5 -43.5q-20 -20 -41 -28q-27 -10 -51 -11q-27 0 -51 11q-18 8 -39 28q-16 16 -26.5 43t-10.5 54zM770 1776q0 25 10 51t26 43q25 25 39 30q25 10 52 11q25 0 51 -11q16 -6 41 -30q16 -16 26.5 -43t10.5 -51 q0 -27 -10.5 -53.5t-26.5 -43.5q-20 -20 -41 -28q-27 -10 -51 -11q-27 0 -52 11q-18 8 -39 28q-16 16 -26 43t-10 54zM313 2075v152h749v-152h-749z" />
<glyph unicode="&#x1df;" horiz-adv-x="1148" d="M104 410q0 109 27 208q23 86 70 166q41 66 82 113t96 80t117 47q70 16 139 16q37 0 84 -6q68 -8 96 -14q45 -8 96 -25l88 -30v-435q0 -182 23 -317q23 -139 53 -213h-176l-12 37q-10 25 -19 51q-12 41 -18 63.5t-14 67.5q-35 -43 -84 -92q-57 -57 -90 -80 q-53 -37 -101 -53q-53 -18 -106 -19q-66 0 -125 27q-66 31 -113 82q-55 61 -82 135q-31 85 -31 191zM291 461q0 -88 14 -143.5t41 -98.5q20 -35 60 -55q33 -18 63 -19q43 0 92 25q47 23 96 70q43 41 91 100q39 49 67 115v374l-39 15q-33 8 -51 12q-35 8 -63 10q-45 4 -66 4 t-66 -8q-33 -6 -63.5 -24.5t-60.5 -49.5q-35 -35 -56 -73q-27 -45 -43 -115q-16 -71 -16 -139zM279 1346q0 25 10 51t27 43q25 25 39 30q25 10 51 11q25 0 51 -11q16 -6 41 -30q16 -16 26.5 -43t10.5 -51q0 -27 -10.5 -53.5t-26.5 -43.5q-20 -20 -41 -28q-27 -10 -51 -11 q-27 0 -51 11q-18 8 -39 28q-16 16 -26.5 43t-10.5 54zM699 1346q0 25 10 51t26 43q25 25 39 30q25 10 52 11q25 0 51 -11q16 -6 41 -30q16 -16 26.5 -43t10.5 -51q0 -27 -10.5 -53.5t-26.5 -43.5q-20 -20 -41 -28q-27 -10 -51 -11q-27 0 -52 11q-18 8 -39 28q-16 16 -26 43 t-10 54zM242 1645v152h749v-152h-749z" />
<glyph unicode="&#x1e0;" horiz-adv-x="1394" d="M41 0l27 63l30 74q8 20 16.5 44l18.5 50l47 123l400 1106h215l399 -1106l45 -123q12 -31 22.5 -54t16.5 -40l31 -74l26 -63h-205l-137 385h-614l-133 -385h-205zM432 541h508l-256 725zM553 1776q0 25 10 51q8 23 29 43q23 23 43 30q27 10 53.5 10.5t52.5 -10.5 q20 -8 43 -30q20 -20 29 -43q10 -27 10 -51q0 -27 -10 -54q-8 -23 -28.5 -43t-43.5 -28q-27 -10 -53 -10.5t-53 10.5q-23 8 -43.5 28.5t-28.5 42.5q-10 27 -10 54zM313 2075v152h749v-152h-749z" />
<glyph unicode="&#x1e1;" horiz-adv-x="1148" d="M104 410q0 109 27 208q23 86 70 166q41 66 82 113t96 80t117 47q70 16 139 16q37 0 84 -6q68 -8 96 -14q45 -8 96 -25l88 -30v-435q0 -182 23 -317q23 -139 53 -213h-176l-12 37q-10 25 -19 51q-12 41 -18 63.5t-14 67.5q-35 -43 -84 -92q-57 -57 -90 -80 q-53 -37 -101 -53q-53 -18 -106 -19q-66 0 -125 27q-66 31 -113 82q-55 61 -82 135q-31 85 -31 191zM291 461q0 -88 14 -143.5t41 -98.5q20 -35 60 -55q33 -18 63 -19q43 0 92 25q47 23 96 70q43 41 91 100q39 49 67 115v374l-39 15q-33 8 -51 12q-35 8 -63 10q-45 4 -66 4 t-66 -8q-33 -6 -63.5 -24.5t-60.5 -49.5q-35 -35 -56 -73q-27 -45 -43 -115q-16 -71 -16 -139zM479 1346q0 25 10 51q8 23 29 43q23 23 43 30q27 10 53.5 10.5t52.5 -10.5q20 -8 43 -30q20 -20 29 -43q10 -27 10 -51q0 -27 -10 -54q-8 -23 -28.5 -43t-43.5 -28 q-27 -10 -53 -10.5t-53 10.5q-23 8 -43.5 28.5t-28.5 42.5q-10 27 -10 54zM242 1645v152h749v-152h-749z" />
<glyph unicode="&#x1e2;" horiz-adv-x="1804" d="M80 0l61 104q29 49 54 97l23 43.5l28 52.5l49 102l516 1061h844v-166h-545v-448h469v-162h-469v-518h164q182 0 250 2q119 4 162 12v-180h-781q3 18 6 43q4 33 4 68q0 12 1.5 49t1.5 59q0 18 1 74.5t1 91.5h-451l-188 -385h-201zM547 541h373v317v436zM641 1669v152h749 v-152h-749z" />
<glyph unicode="&#x1e3;" horiz-adv-x="1744" d="M94 256q0 47 21 113q18 59 63 106q41 45 121 84q70 35 186 51l66 6q27 2 80 2q14 0 38.5 2.5t35.5 2.5q12 0 29.5 1t21.5 1v86q0 41 -21 77q-14 27 -53 52q-33 20 -84 30q-55 10 -102 11q-45 0 -76 -9q-34 -9 -68 -24q-23 -10 -71 -39q-29 -16 -80 -53v41q0 12 1 26.5 t1 28.5q0 18 4 55q0 8 1 22.5t3 20.5q10 4 74 33q39 18 71 29q25 8 82 20q39 8 103 8q51 0 100 -12q66 -16 94 -31q47 -25 82 -55q39 -37 64 -78q68 84 161 129q98 47 203 47q72 0 137 -20q57 -18 103 -53q43 -34 74 -80q27 -39 47 -99q20 -61 26 -110q8 -78 8 -113v-80 h-710q3 -89 31 -153q27 -66 69 -107q41 -41 102.5 -63.5t127.5 -22.5q47 0 94 6q61 8 92 17q43 12 88 31q41 16 90 47l21 -164q-57 -31 -103 -47q-49 -18 -98 -30.5t-101 -18.5q-35 -4 -108 -5q-66 0 -121 15q-66 16 -110 41q-57 31 -97 69q-49 49 -78 97q-20 -25 -22 -27 q-12 -12 -23 -25q-45 -49 -88 -79q-39 -29 -92 -54q-39 -18 -92 -28q-41 -8 -92 -9q-70 0 -131 23q-59 23 -102.5 61.5t-67.5 90.5q-25 49 -25 106zM281 281q0 -31 12 -56q14 -27 35 -45q16 -14 53 -28q31 -12 70 -13q25 0 73 8q37 6 74 25q31 14 76 57q41 39 82 97 q6 6 8 10q4 8 6 14q-8 39 -10 66q-4 45 -4 69q-4 0 -22.5 -1t-31.5 -1q-10 0 -34.5 -1t-36.5 -1q-27 0 -76 -4l-34.5 -5t-24.5 -3q-72 -14 -105 -29q-41 -18 -65 -43q-27 -27 -35 -53q-10 -34 -10 -63zM940 625h520q0 66 -18 114q-16 43 -51 82q-31 33 -72 51q-43 18 -88 19 q-111 0 -188.5 -65.5t-102.5 -200.5zM492 1239v152h749v-152h-749z" />
<glyph unicode="&#x1e6;" horiz-adv-x="1419" d="M94 721q0 172 56 321q51 139 145 240q92 98 219 152q123 51 268 51q61 0 119 -6q61 -6 115 -21q68 -18 119 -41q53 -25 125 -71l-66 -181q-45 37 -107 74q-55 33 -104 47q-59 16 -100 23q-49 6 -101 6q-115 0 -204 -39q-88 -39 -156 -115q-63 -72 -98 -180 q-33 -100 -33 -236q0 -147 31 -247q35 -115 94 -189q63 -80 147 -119q88 -41 195 -40q31 0 84 4q33 2 78 16q53 16 79 29q33 14 86 47v334h-350v165h541v-589q-80 -57 -145.5 -90t-133.5 -56q-43 -14 -125 -26q-55 -8 -127 -9q-143 0 -261.5 49.5t-204.5 143.5 q-86 95 -135.5 233.5t-49.5 319.5zM320 2029h149l277 -278l274 278h150l-340 -430h-170z" />
<glyph unicode="&#x1e7;" horiz-adv-x="1124" d="M104 434q0 119 31 225q33 113 92 193q63 86 162 137q96 51 236 51q46 0 92 -6q49 -6 94 -18l92 -25l86 -26v-940q0 -137 -37 -226q-39 -94 -102 -153q-66 -61 -141 -88q-78 -27 -164 -27q-98 0 -191 33q-102 37 -174 86l66 155q74 -55 141 -84q72 -31 148 -30q49 0 86 12 q49 16 88 49q43 37 69.5 92.5t26.5 145.5v184q-39 -49 -82 -82q-47 -37 -88 -57.5t-90 -30.5q-39 -8 -84 -8q-74 0 -133 22q-66 25 -115 78q-45 49 -78 135q-31 83 -31 203zM291 485q0 -98 14 -155q14 -61 39 -97q25 -37 62 -53q31 -14 73 -14q41 0 82 14q37 12 86 45 q43 29 84 72q40 43 74 98v434q-33 12 -51 17l-56 12q-20 4 -53 8q-37 4 -49 4q-82 0 -141 -34q-57 -33 -95 -88q-33 -49 -53 -123q-16 -60 -16 -140zM170 1599h149l277 -278l274 278h150l-340 -430h-170z" />
<glyph unicode="&#x1e8;" horiz-adv-x="1308" d="M160 0q8 43 12 174q2 76 2 260v590q0 186 -2 262q-4 131 -12 174h205v-674l561 674h239l-606 -688l672 -772h-246l-620 717v-717h-205zM226 2029h149l277 -278l274 278h150l-340 -430h-170z" />
<glyph unicode="&#x1e9;" horiz-adv-x="1034" d="M129 1599h201v-999l405 420h250l-496 -447l527 -573h-246l-440 520v-520h-185v1130q0 201 -2 283q-4 127 -14 186zM148 2134h149l277 -278l274 278h150l-340 -430h-170z" />
<glyph unicode="&#x1ee;" horiz-adv-x="1310" d="M115 -104l112 -70q58 -34 123 -62q66 -29 131 -43q72 -16 140 -16q49 0 104 16q45 14 98 46q46 28 86 67.5t68 85.5t43 98q14 49 14 107q0 90 -30 164q-31 76 -89 129q-61 57 -137 86q-82 31 -182 31q-61 0 -96 -3q-52 -3 -105 -12v154l545 620h-371h-133q-74 0 -106 -2 q-18 -2 -48 -5t-38 -3q-49 -4 -70 -8v184h981v-170l-522 -594q150 0 252 -41q109 -43 176 -110q29 -29 57 -70q35 -51 51 -90q22 -52 37 -117q14 -59 15 -143q0 -135 -52 -240q-51 -106 -137 -186q-88 -82 -198.5 -125t-233.5 -43q-72 0 -139 12q-78 14 -131 33 q-76 27 -117 47.5t-98 57.5v215zM242 2029h149l277 -278l274 278h150l-340 -430h-170z" />
<glyph unicode="&#x1ef;" horiz-adv-x="1024" d="M86 -156q57 -37 90 -55q39 -23 100.5 -47.5t102.5 -34.5q51 -12 106 -12q57 0 112.5 18.5t96.5 53.5q49 41 70 86q27 57 27 116q0 52 -19 105q-18 51 -63 96q-39 39 -117 68q-72 27 -186 26q-47 0 -72 -2q-2 0 -32 -2t-46 -4v119l434 495h-420q-59 0 -86 -2 q-45 -4 -69 -14v166h794v-115l-440 -489q94 0 178 -23q80 -23 144 -63q47 -33 63 -49q35 -35 57 -72q29 -49 43 -96q16 -59 17 -123q0 -100 -41 -189q-37 -78 -111 -145q-61 -55 -157 -92q-86 -33 -187 -33q-47 0 -94 8q-35 6 -109 27q-37 10 -102 39q-43 18 -84 45v194z M103 1599h149l277 -278l274 278h150l-340 -430h-170z" />
<glyph unicode="&#x1f4;" horiz-adv-x="1419" d="M94 721q0 172 56 321q51 139 145 240q92 98 219 152q123 51 268 51q61 0 119 -6q61 -6 115 -21q68 -18 119 -41q53 -25 125 -71l-66 -181q-45 37 -107 74q-55 33 -104 47q-59 16 -100 23q-49 6 -101 6q-115 0 -204 -39q-88 -39 -156 -115q-63 -72 -98 -180 q-33 -100 -33 -236q0 -147 31 -247q35 -115 94 -189q63 -80 147 -119q88 -41 195 -40q31 0 84 4q33 2 78 16q53 16 79 29q33 14 86 47v334h-350v165h541v-589q-80 -57 -145.5 -90t-133.5 -56q-43 -14 -125 -26q-55 -8 -127 -9q-143 0 -261.5 49.5t-204.5 143.5 q-86 95 -135.5 233.5t-49.5 319.5zM565 1599l351 430h229l-420 -430h-160z" />
<glyph unicode="&#x1f5;" horiz-adv-x="1124" d="M104 434q0 119 31 225q33 113 92 193q63 86 162 137q96 51 236 51q46 0 92 -6q49 -6 94 -18l92 -25l86 -26v-940q0 -137 -37 -226q-39 -94 -102 -153q-66 -61 -141 -88q-78 -27 -164 -27q-98 0 -191 33q-102 37 -174 86l66 155q74 -55 141 -84q72 -31 148 -30q49 0 86 12 q49 16 88 49q43 37 69.5 92.5t26.5 145.5v184q-39 -49 -82 -82q-47 -37 -88 -57.5t-90 -30.5q-39 -8 -84 -8q-74 0 -133 22q-66 25 -115 78q-45 49 -78 135q-31 83 -31 203zM291 485q0 -98 14 -155q14 -61 39 -97q25 -37 62 -53q31 -14 73 -14q41 0 82 14q37 12 86 45 q43 29 84 72q40 43 74 98v434q-33 12 -51 17l-56 12q-20 4 -53 8q-37 4 -49 4q-82 0 -141 -34q-57 -33 -95 -88q-33 -49 -53 -123q-16 -60 -16 -140zM415 1169l351 430h229l-420 -430h-160z" />
<glyph unicode="&#x1f8;" horiz-adv-x="1499" d="M160 0q8 43 12 174q2 76 2 260v590q0 186 -2 262q-4 131 -12 174h180l795 -1157v1157h180q-4 -23 -8 -74q-4 -57 -4 -100q0 -18 -1.5 -58t-1.5 -63v-141v-1024h-165l-795 1151v-1151h-180zM346 2029h229l351 -430h-160z" />
<glyph unicode="&#x1f9;" horiz-adv-x="1183" d="M104 1020h181q6 -14 12 -41q2 -8 5 -26.5t5 -26.5q4 -18 8 -56l9 -45q98 117 192 164q102 51 203 51q160 0 246 -104q84 -102 84 -311v-625h-185v551q0 92 -12 154q-12 59 -37 96q-23 35 -63 51q-29 12 -88 12q-53 0 -105 -24q-47 -23 -94 -66q-45 -43 -78 -92 q-31 -47 -47 -102v-580h-186v614q0 143 -17 252q-17 107 -33 154zM209 1599h229l351 -430h-160z" />
<glyph unicode="&#x1fa;" horiz-adv-x="1394" d="M41 0l27 63l30 74q8 20 16.5 44l18.5 50l47 123l400 1106h215l399 -1106l45 -123q12 -31 22.5 -54t16.5 -40l31 -74l26 -63h-205l-137 385h-614l-133 -385h-205zM432 541h508l-256 725zM471 1814q0 41 16 84q14 37 47 70q31 31 68 45q43 16 84 16t84 -16q37 -14 68 -45 q33 -33 47 -70q16 -43 16 -84t-16 -84q-12 -33 -47 -67.5t-68 -46.5q-43 -16 -84 -16.5t-84 16.5q-33 12 -67.5 47t-47.5 67q-16 43 -16 84zM586 1814q0 -43 28.5 -71.5t71.5 -28.5t71.5 28.5t28.5 71.5q0 45 -28 74q-27 27 -72 27t-72 -27q-28 -29 -28 -74zM507 2134 l351 430h229l-420 -430h-160z" />
<glyph unicode="&#x1fb;" horiz-adv-x="1148" d="M104 410q0 109 27 208q23 86 70 166q41 66 82 113t96 80t117 47q70 16 139 16q37 0 84 -6q68 -8 96 -14q45 -8 96 -25l88 -30v-435q0 -182 23 -317q23 -139 53 -213h-176l-12 37q-10 25 -19 51q-12 41 -18 63.5t-14 67.5q-35 -43 -84 -92q-57 -57 -90 -80 q-53 -37 -101 -53q-53 -18 -106 -19q-66 0 -125 27q-66 31 -113 82q-55 61 -82 135q-31 85 -31 191zM291 461q0 -88 14 -143.5t41 -98.5q20 -35 60 -55q33 -18 63 -19q43 0 92 25q47 23 96 70q43 41 91 100q39 49 67 115v374l-39 15q-33 8 -51 12q-35 8 -63 10q-45 4 -66 4 t-66 -8q-33 -6 -63.5 -24.5t-60.5 -49.5q-35 -35 -56 -73q-27 -45 -43 -115q-16 -71 -16 -139zM399 1384q0 41 16 84q14 37 47 70q31 31 68 45q43 16 84 16t84 -16q37 -14 68 -45q33 -33 47 -70q16 -43 16 -84t-16 -84q-12 -33 -47 -67.5t-68 -46.5q-43 -16 -84 -16.5 t-84 16.5q-33 12 -67.5 47t-47.5 67q-16 43 -16 84zM514 1384q0 -43 28.5 -71.5t71.5 -28.5t71.5 28.5t28.5 71.5q0 45 -28 74q-27 27 -72 27t-72 -27q-28 -29 -28 -74zM436 1704l351 430h229l-420 -430h-160z" />
<glyph unicode="&#x1fc;" horiz-adv-x="1804" d="M80 0l61 104q29 49 54 97l23 43.5l28 52.5l49 102l516 1061h844v-166h-545v-448h469v-162h-469v-518h164q182 0 250 2q119 4 162 12v-180h-781q3 18 6 43q4 33 4 68q0 12 1.5 49t1.5 59q0 18 1 74.5t1 91.5h-451l-188 -385h-201zM547 541h373v317v436zM835 1599l351 430 h229l-420 -430h-160z" />
<glyph unicode="&#x1fd;" horiz-adv-x="1744" d="M94 256q0 47 21 113q18 59 63 106q41 45 121 84q70 35 186 51l66 6q27 2 80 2q14 0 38.5 2.5t35.5 2.5q12 0 29.5 1t21.5 1v86q0 41 -21 77q-14 27 -53 52q-33 20 -84 30q-55 10 -102 11q-45 0 -76 -9q-34 -9 -68 -24q-23 -10 -71 -39q-29 -16 -80 -53v41q0 12 1 26.5 t1 28.5q0 18 4 55q0 8 1 22.5t3 20.5q10 4 74 33q39 18 71 29q25 8 82 20q39 8 103 8q51 0 100 -12q66 -16 94 -31q47 -25 82 -55q39 -37 64 -78q68 84 161 129q98 47 203 47q72 0 137 -20q57 -18 103 -53q43 -34 74 -80q27 -39 47 -99q20 -61 26 -110q8 -78 8 -113v-80 h-710q3 -89 31 -153q27 -66 69 -107q41 -41 102.5 -63.5t127.5 -22.5q47 0 94 6q61 8 92 17q43 12 88 31q41 16 90 47l21 -164q-57 -31 -103 -47q-49 -18 -98 -30.5t-101 -18.5q-35 -4 -108 -5q-66 0 -121 15q-66 16 -110 41q-57 31 -97 69q-49 49 -78 97q-20 -25 -22 -27 q-12 -12 -23 -25q-45 -49 -88 -79q-39 -29 -92 -54q-39 -18 -92 -28q-41 -8 -92 -9q-70 0 -131 23q-59 23 -102.5 61.5t-67.5 90.5q-25 49 -25 106zM281 281q0 -31 12 -56q14 -27 35 -45q16 -14 53 -28q31 -12 70 -13q25 0 73 8q37 6 74 25q31 14 76 57q41 39 82 97 q6 6 8 10q4 8 6 14q-8 39 -10 66q-4 45 -4 69q-4 0 -22.5 -1t-31.5 -1q-10 0 -34.5 -1t-36.5 -1q-27 0 -76 -4l-34.5 -5t-24.5 -3q-72 -14 -105 -29q-41 -18 -65 -43q-27 -27 -35 -53q-10 -34 -10 -63zM940 625h520q0 66 -18 114q-16 43 -51 82q-31 33 -72 51q-43 18 -88 19 q-111 0 -188.5 -65.5t-102.5 -200.5zM686 1169l351 430h229l-420 -430h-160z" />
<glyph unicode="&#x1fe;" horiz-adv-x="1458" d="M94 721q0 117 25 221q23 92 69 188q47 92 103 152q63 66 130.5 111t149.5 69q74 23 158 23q80 0 139 -17q63 -18 129 -53l64 115h145l-100 -189q47 -43 94 -108q45 -66 76 -137q27 -63 47 -164q16 -80 16 -193q0 -178 -53 -321q-52 -141 -141 -240q-90 -100 -203 -151 q-111 -51 -231 -52q-160 0 -297 82l-72 -133h-147l114 213q-98 94 -155 242q-60 149 -60 342zM291 745q0 -145 28 -245q31 -111 87 -187l507 944q-88 53 -192 54q-92 0 -174 -41q-80 -39 -137 -113q-57 -72 -88 -178q-31 -105 -31 -234zM500 217q95 -68 221 -67q94 0 170 38 q82 43 133 111q59 78 88 178q33 111 33 238q0 145 -35 262q-37 121 -96 192zM536 1599l351 430h229l-420 -430h-160z" />
<glyph unicode="&#x1ff;" horiz-adv-x="1138" d="M94 508q0 131 39 227q39 98 107 168q66 70 153 103q92 35 187 34q90 0 172 -28l51 94h145l-84 -156q82 -61 133 -178q47 -106 47 -264q0 -133 -38 -229q-41 -102 -104.5 -168t-153.5 -101q-92 -35 -189 -35q-49 0 -104 11q-43 8 -95 28l-47 -90h-147l86 162 q-78 72 -117 172q-41 107 -41 250zM281 508q0 -76 16 -141q14 -59 47 -111l326 606q-47 18 -101 19q-55 0 -112 -27q-52 -25 -92 -74t-62 -116q-22 -72 -22 -156zM442 166q55 -31 127 -31q61 0 113 25q55 27 94 73q40 49 62 117q23 72 22.5 158t-22.5 160q-20 66 -62 116z M391 1169l351 430h229l-420 -430h-160z" />
<glyph unicode="&#x21e;" horiz-adv-x="1474" d="M160 0q8 43 12 174q2 76 2 260v590q0 186 -2 262q-4 131 -12 174h205v-624h720v624h205q-8 -43 -12 -174q-2 -76 -2 -262v-590q0 -184 2 -260q4 -131 12 -174h-205v676h-720v-676h-205zM299 2029h149l277 -278l274 278h150l-340 -430h-170z" />
<glyph unicode="&#x21f;" horiz-adv-x="1173" d="M129 1599h201v-770q76 106 174 158q102 53 207 53q158 0 243.5 -104.5t85.5 -310.5v-625h-186v551q0 92 -12 154q-12 59 -37 96q-25 35 -62 51q-29 12 -88 12q-53 0 -106 -24q-47 -23 -94 -66q-41 -37 -76 -92q-35 -53 -49 -102v-580h-185v1130q0 201 -2 283 q-4 127 -14 186zM160 2134h149l277 -278l274 278h150l-340 -430h-170z" />
<glyph unicode="&#x226;" horiz-adv-x="1394" d="M41 0l27 63l30 74q8 20 16.5 44l18.5 50l47 123l400 1106h215l399 -1106l45 -123q12 -31 22.5 -54t16.5 -40l31 -74l26 -63h-205l-137 385h-614l-133 -385h-205zM432 541h508l-256 725zM553 1776q0 25 10 51q8 23 29 43q23 23 43 30q27 10 53.5 10.5t52.5 -10.5 q20 -8 43 -30q20 -20 29 -43q10 -27 10 -51q0 -27 -10 -54q-8 -23 -28.5 -43t-43.5 -28q-27 -10 -53 -10.5t-53 10.5q-23 8 -43.5 28.5t-28.5 42.5q-10 27 -10 54z" />
<glyph unicode="&#x227;" horiz-adv-x="1148" d="M104 410q0 109 27 208q23 86 70 166q41 66 82 113t96 80t117 47q70 16 139 16q37 0 84 -6q68 -8 96 -14q45 -8 96 -25l88 -30v-435q0 -182 23 -317q23 -139 53 -213h-176l-12 37q-10 25 -19 51q-12 41 -18 63.5t-14 67.5q-35 -43 -84 -92q-57 -57 -90 -80 q-53 -37 -101 -53q-53 -18 -106 -19q-66 0 -125 27q-66 31 -113 82q-55 61 -82 135q-31 85 -31 191zM291 461q0 -88 14 -143.5t41 -98.5q20 -35 60 -55q33 -18 63 -19q43 0 92 25q47 23 96 70q43 41 91 100q39 49 67 115v374l-39 15q-33 8 -51 12q-35 8 -63 10q-45 4 -66 4 t-66 -8q-33 -6 -63.5 -24.5t-60.5 -49.5q-35 -35 -56 -73q-27 -45 -43 -115q-16 -71 -16 -139zM479 1346q0 25 10 51q8 23 29 43q23 23 43 30q27 10 53.5 10.5t52.5 -10.5q20 -8 43 -30q20 -20 29 -43q10 -27 10 -51q0 -27 -10 -54q-8 -23 -28.5 -43t-43.5 -28 q-27 -10 -53 -10.5t-53 10.5q-23 8 -43.5 28.5t-28.5 42.5q-10 27 -10 54z" />
<glyph unicode="&#x228;" horiz-adv-x="1159" d="M160 0q8 43 12 174q2 76 2 260v590q0 186 -2 262q-4 131 -12 174h850v-166h-645v-448h571v-162h-571v-518h264q182 0 250 2q119 4 161 12v-180h-440v-94q6 2 21 2q2 0 11 1t15 1q37 0 64 -12q29 -12 51 -35q14 -14 31 -56q12 -31 12 -67q0 -51 -23 -92q-23 -43 -59.5 -70 t-83.5 -43q-43 -14 -88 -14q-43 0 -72 10q-39 14 -63 29l10 100q25 -16 43 -22q29 -8 55 -9q23 0 47 6q29 8 43 17q18 12 31 31q14 23 14 47q0 41 -28 65q-28 25 -68 25q-16 0 -49 -8q-20 -4 -39 -17v205h-315z" />
<glyph unicode="&#x229;" horiz-adv-x="1093" d="M94 496q0 119 35 223q35 102 94 172q61 70 152 110q86 39 200 39q74 0 146 -20q59 -16 108 -53q45 -33 76 -80q33 -51 51 -101q12 -37 25 -110q8 -51 8 -113v-39v-39h-708q4 -92 26 -153q25 -63 68 -107q43 -41 100 -63q61 -23 125 -23q94 0 191 23q90 20 184 78l20 -164 q-57 -31 -104 -47q-55 -20 -103 -31q-55 -12 -102 -18q-35 -4 -111 -5h-16h-14v-69q6 2 20 2q2 0 12.5 1t16.5 1q34 0 61 -12q29 -12 52 -35q18 -18 32 -56q10 -25 11 -67q0 -51 -23 -92q-23 -43 -59 -70q-37 -29 -82 -43q-43 -14 -90 -14q-43 0 -72 10q-39 14 -64 29 l11 100q23 -16 45 -22q29 -8 53 -9q23 0 47 6q29 8 43 17q23 14 33 31q12 18 12 47q0 41 -29 65q-28 25 -67 25q-14 0 -47 -8q-23 -6 -41 -17v205q-76 25 -129 63q-61 45 -103 105q-43 61 -67 143q-27 91 -27 185zM289 625h522q0 59 -20 114q-18 49 -51 82t-81 51 q-45 18 -100 19q-106 0 -178 -66q-69 -63 -92 -200z" />
<glyph unicode="&#x22a;" horiz-adv-x="1458" d="M94 721q0 117 25 221q23 92 69 188q47 92 103 152q63 66 130.5 111t149.5 69q74 23 158 23q121 0 232 -49q109 -49 194 -144q86 -95 135 -233t49 -320q0 -178 -53 -321q-52 -141 -141 -240q-90 -100 -203 -151q-111 -51 -231 -52q-123 0 -234 50q-109 49 -194 143 q-84 94 -138 233q-51 136 -51 320zM291 745q0 -145 28 -247q29 -104 89 -187q53 -76 135 -118q80 -43 178 -43q94 0 170 38q82 43 133 111q59 78 88 178q33 111 33 238q0 137 -31 248q-31 113 -86 188q-57 80 -135 119q-82 41 -172 41q-92 0 -174 -41q-80 -39 -137 -113 q-57 -72 -88 -178q-31 -105 -31 -234zM379 1776q0 25 10 51t27 43q25 25 39 30q25 10 51 11q25 0 51 -11q16 -6 41 -30q16 -16 26.5 -43t10.5 -51q0 -27 -10.5 -53.5t-26.5 -43.5q-20 -20 -41 -28q-27 -10 -51 -11q-27 0 -51 11q-18 8 -39 28q-16 16 -26.5 43t-10.5 54z M799 1776q0 25 10 51t26 43q25 25 39 30q25 10 52 11q25 0 51 -11q16 -6 41 -30q16 -16 26.5 -43t10.5 -51q0 -27 -10.5 -53.5t-26.5 -43.5q-20 -20 -41 -28q-27 -10 -51 -11q-27 0 -52 11q-18 8 -39 28q-16 16 -26 43t-10 54zM342 2075v152h749v-152h-749z" />
<glyph unicode="&#x22b;" horiz-adv-x="1138" d="M94 506q0 131 39 227q39 98 107 168q70 72 153 105q92 35 187 34q100 0 188 -34q82 -33 147 -105q61 -68 97 -168q33 -96 32 -227q0 -133 -38 -230q-40 -98 -105 -165q-63 -66 -153 -101q-92 -35 -189 -35q-100 0 -188 35q-84 33 -146 101q-63 70 -96 165 q-35 101 -35 230zM281 506q0 -94 20 -158q23 -74 59 -115q45 -51 93 -73q52 -25 116 -25q61 0 112.5 24.5t94.5 73.5q39 45 62 115q23 72 22 158q0 88 -20 156q-23 74 -60 118q-40 49 -92 74q-57 27 -119 27q-55 0 -112 -27q-52 -25 -92 -74q-41 -49 -62 -118 q-22 -74 -22 -156zM234 1346q0 25 10 51t27 43q25 25 39 30q25 10 51 11q25 0 51 -11q16 -6 41 -30q16 -16 26.5 -43t10.5 -51q0 -27 -10.5 -53.5t-26.5 -43.5q-20 -20 -41 -28q-27 -10 -51 -11q-27 0 -51 11q-18 8 -39 28q-16 16 -26.5 43t-10.5 54zM654 1346q0 25 10 51 t26 43q25 25 39 30q25 10 52 11q25 0 51 -11q16 -6 41 -30q16 -16 26.5 -43t10.5 -51q0 -27 -10.5 -53.5t-26.5 -43.5q-20 -20 -41 -28q-27 -10 -51 -11q-27 0 -52 11q-18 8 -39 28q-16 16 -26 43t-10 54zM197 1645v152h749v-152h-749z" />
<glyph unicode="&#x22c;" horiz-adv-x="1458" d="M94 721q0 117 25 221q23 92 69 188q47 92 103 152q63 66 130.5 111t149.5 69q74 23 158 23q121 0 232 -49q109 -49 194 -144q86 -95 135 -233t49 -320q0 -178 -53 -321q-52 -141 -141 -240q-90 -100 -203 -151q-111 -51 -231 -52q-123 0 -234 50q-109 49 -194 143 q-84 94 -138 233q-51 136 -51 320zM291 745q0 -145 28 -247q29 -104 89 -187q53 -76 135 -118q80 -43 178 -43q94 0 170 38q82 43 133 111q59 78 88 178q33 111 33 238q0 137 -31 248q-31 113 -86 188q-57 80 -135 119q-82 41 -172 41q-92 0 -174 -41q-80 -39 -137 -113 q-57 -72 -88 -178q-31 -105 -31 -234zM362 1634q0 41 14 92q12 43 37 80t59.5 57.5t82.5 20.5q12 0 40 -4q10 -2 41 -10q14 -4 43 -17q2 0 19.5 -8t28.5 -12l27.5 -11.5t21.5 -9.5q14 -6 38.5 -14t35 -10t32.5 -2q37 0 58 24q20 23 26 60h107q0 -39 -15 -92q-10 -41 -39 -80 q-27 -37 -61.5 -57.5t-83.5 -20.5q-33 0 -80 14q-53 16 -88 33q-68 33 -92 41q-34 12 -62 12q-39 0 -59 -24q-25 -27 -27 -62h-104zM342 2044v152h749v-152h-749z" />
<glyph unicode="&#x22d;" horiz-adv-x="1138" d="M94 506q0 131 39 227q39 98 107 168q70 72 153 105q92 35 187 34q100 0 188 -34q82 -33 147 -105q61 -68 97 -168q33 -96 32 -227q0 -133 -38 -230q-40 -98 -105 -165q-63 -66 -153 -101q-92 -35 -189 -35q-100 0 -188 35q-84 33 -146 101q-63 70 -96 165 q-35 101 -35 230zM281 506q0 -94 20 -158q23 -74 59 -115q45 -51 93 -73q52 -25 116 -25q61 0 112.5 24.5t94.5 73.5q39 45 62 115q23 72 22 158q0 88 -20 156q-23 74 -60 118q-40 49 -92 74q-57 27 -119 27q-55 0 -112 -27q-52 -25 -92 -74q-41 -49 -62 -118 q-22 -74 -22 -156zM215 1204q0 41 14 92q12 43 37 80t59.5 57.5t82.5 20.5q12 0 40 -4q10 -2 41 -10q14 -4 43 -17q2 0 19.5 -8t28.5 -12l27.5 -11.5t21.5 -9.5q14 -6 38.5 -14t35 -10t32.5 -2q37 0 58 24q20 23 26 60h107q0 -39 -15 -92q-10 -41 -39 -80 q-27 -37 -61.5 -57.5t-83.5 -20.5q-33 0 -80 14q-53 16 -88 33q-68 33 -92 41q-34 12 -62 12q-39 0 -59 -24q-25 -27 -27 -62h-104zM197 1614v152h749v-152h-749z" />
<glyph unicode="&#x22e;" horiz-adv-x="1458" d="M94 721q0 117 25 221q23 92 69 188q47 92 103 152q63 66 130.5 111t149.5 69q74 23 158 23q121 0 232 -49q109 -49 194 -144q86 -95 135 -233t49 -320q0 -178 -53 -321q-52 -141 -141 -240q-90 -100 -203 -151q-111 -51 -231 -52q-123 0 -234 50q-109 49 -194 143 q-84 94 -138 233q-51 136 -51 320zM291 745q0 -145 28 -247q29 -104 89 -187q53 -76 135 -118q80 -43 178 -43q94 0 170 38q82 43 133 111q59 78 88 178q33 111 33 238q0 137 -31 248q-31 113 -86 188q-57 80 -135 119q-82 41 -172 41q-92 0 -174 -41q-80 -39 -137 -113 q-57 -72 -88 -178q-31 -105 -31 -234zM582 1776q0 25 10 51q8 23 29 43q23 23 43 30q27 10 53.5 10.5t52.5 -10.5q20 -8 43 -30q20 -20 29 -43q10 -27 10 -51q0 -27 -10 -54q-8 -23 -28.5 -43t-43.5 -28q-27 -10 -53 -10.5t-53 10.5q-23 8 -43.5 28.5t-28.5 42.5 q-10 27 -10 54z" />
<glyph unicode="&#x22f;" horiz-adv-x="1138" d="M94 506q0 131 39 227q39 98 107 168q70 72 153 105q92 35 187 34q100 0 188 -34q82 -33 147 -105q61 -68 97 -168q33 -96 32 -227q0 -133 -38 -230q-40 -98 -105 -165q-63 -66 -153 -101q-92 -35 -189 -35q-100 0 -188 35q-84 33 -146 101q-63 70 -96 165 q-35 101 -35 230zM281 506q0 -94 20 -158q23 -74 59 -115q45 -51 93 -73q52 -25 116 -25q61 0 112.5 24.5t94.5 73.5q39 45 62 115q23 72 22 158q0 88 -20 156q-23 74 -60 118q-40 49 -92 74q-57 27 -119 27q-55 0 -112 -27q-52 -25 -92 -74q-41 -49 -62 -118 q-22 -74 -22 -156zM434 1346q0 25 10 51q8 23 29 43q23 23 43 30q27 10 53.5 10.5t52.5 -10.5q20 -8 43 -30q20 -20 29 -43q10 -27 10 -51q0 -27 -10 -54q-8 -23 -28.5 -43t-43.5 -28q-27 -10 -53 -10.5t-53 10.5q-23 8 -43.5 28.5t-28.5 42.5q-10 27 -10 54z" />
<glyph unicode="&#x230;" horiz-adv-x="1458" d="M94 721q0 117 25 221q23 92 69 188q47 92 103 152q63 66 130.5 111t149.5 69q74 23 158 23q121 0 232 -49q109 -49 194 -144q86 -95 135 -233t49 -320q0 -178 -53 -321q-52 -141 -141 -240q-90 -100 -203 -151q-111 -51 -231 -52q-123 0 -234 50q-109 49 -194 143 q-84 94 -138 233q-51 136 -51 320zM291 745q0 -145 28 -247q29 -104 89 -187q53 -76 135 -118q80 -43 178 -43q94 0 170 38q82 43 133 111q59 78 88 178q33 111 33 238q0 137 -31 248q-31 113 -86 188q-57 80 -135 119q-82 41 -172 41q-92 0 -174 -41q-80 -39 -137 -113 q-57 -72 -88 -178q-31 -105 -31 -234zM582 1776q0 25 10 51q8 23 29 43q23 23 43 30q27 10 53.5 10.5t52.5 -10.5q20 -8 43 -30q20 -20 29 -43q10 -27 10 -51q0 -27 -10 -54q-8 -23 -28.5 -43t-43.5 -28q-27 -10 -53 -10.5t-53 10.5q-23 8 -43.5 28.5t-28.5 42.5 q-10 27 -10 54zM342 2075v152h749v-152h-749z" />
<glyph unicode="&#x231;" horiz-adv-x="1138" d="M94 506q0 131 39 227q39 98 107 168q70 72 153 105q92 35 187 34q100 0 188 -34q82 -33 147 -105q61 -68 97 -168q33 -96 32 -227q0 -133 -38 -230q-40 -98 -105 -165q-63 -66 -153 -101q-92 -35 -189 -35q-100 0 -188 35q-84 33 -146 101q-63 70 -96 165 q-35 101 -35 230zM281 506q0 -94 20 -158q23 -74 59 -115q45 -51 93 -73q52 -25 116 -25q61 0 112.5 24.5t94.5 73.5q39 45 62 115q23 72 22 158q0 88 -20 156q-23 74 -60 118q-40 49 -92 74q-57 27 -119 27q-55 0 -112 -27q-52 -25 -92 -74q-41 -49 -62 -118 q-22 -74 -22 -156zM434 1346q0 25 10 51q8 23 29 43q23 23 43 30q27 10 53.5 10.5t52.5 -10.5q20 -8 43 -30q20 -20 29 -43q10 -27 10 -51q0 -27 -10 -54q-8 -23 -28.5 -43t-43.5 -28q-27 -10 -53 -10.5t-53 10.5q-23 8 -43.5 28.5t-28.5 42.5q-10 27 -10 54zM197 1645v152 h749v-152h-749z" />
<glyph unicode="&#x232;" horiz-adv-x="1318" d="M35 1460h229l395 -661l375 661h232l-78 -114q-14 -20 -64 -99l-55 -90q-12 -18 -18.5 -30.5t-15.5 -28l-19 -33.5l-271 -463v-168q0 -184 3 -260q4 -131 12 -174h-219q8 43 12 174q2 76 2 260v176l-264 455q-12 23 -27.5 47.5l-30.5 48.5q-27 47 -57 94q-20 33 -65 99 q-72 102 -76 106zM277 1669v152h749v-152h-749z" />
<glyph unicode="&#x233;" horiz-adv-x="1058" d="M-20 -385l61 160q25 -20 37 -27q39 -23 45 -24l51 -17q25 -6 51 -6q29 0 60 10q27 10 57 39q29 29 61.5 84t65.5 139l-279 693l-65 151q-43 100 -94 203h198l324 -817l41 116l47 132l23.5 67.5l23.5 69.5l47 131l105 301h200q-27 -57 -47 -107l-39 -94q-18 -43 -32 -82 l-27 -71l-240 -666q-49 -135 -102 -236q-47 -88 -102 -143q-53 -55 -107 -72q-55 -18 -119 -18q-70 0 -129 20q-55 21 -116 64zM162 1239v152h749v-152h-749z" />
<glyph unicode="&#x237;" horiz-adv-x="593" d="M-190 -406l34 166q6 -6 41 -22q16 -8 54 -21q29 -10 53 -12q37 -4 49 -4q41 0 72 14q33 14 57.5 49t36.5 84q12 53 12 127v555v144q0 25 -1 69.5t-1 65.5q0 43 -4 117q-4 63 -8 94h201v-995q0 -143 -27 -236q-27 -94 -76 -151.5t-118.5 -82t-153.5 -24.5q-14 0 -51 4 q-27 2 -58 12q-41 12 -61 21q-31 12 -51 26z" />
<glyph unicode="&#x23d;" horiz-adv-x="1183" d="M49 690v146h176v188q0 186 -2 262q-4 131 -12 174h205v-624h299v-146h-299v-524h223h139q23 0 64 1t59 1q43 0 100 4q51 4 74 8v-180h-864q8 43 12 174q2 76 2 260v256h-176z" />
<glyph unicode="&#xf21f;" horiz-adv-x="1183" d="M49 690v146h176v188q0 186 -2 262q-4 131 -12 174h205v-624h299v-146h-299v-524h223h139q23 0 64 1t59 1q43 0 100 4q51 4 74 8v-180h-864q8 43 12 174q2 76 2 260v256h-176z" />
<glyph unicode="&#x241;" horiz-adv-x="1054" d="M139 1350q34 31 74 55q43 27 84 43q43 18 98 27q61 10 119 10q96 0 166 -23q78 -25 133 -67q57 -45 90 -104.5t33 -135.5q0 -66 -21 -113q-23 -53 -51 -92q-35 -49 -65 -82q-43 -47 -70 -84q-47 -63 -61 -86q-29 -45 -41 -82q-20 -57 -25 -96q-6 -55 -6 -135v-131v-104 q0 -35 4 -84q2 -25 10 -66h-221q8 41 10 66q4 49 4 84q0 14 1.5 48.5t1.5 55.5v131q0 92 10 145q10 57 30 117q18 57 46 101q18 31 59 92q43 61 67 90q41 49 60 74q27 37 41 67q16 37 16 74q0 35 -18.5 65.5t-50.5 51.5q-37 23 -80 34q-53 14 -101 15q-80 0 -157 -37 q-76 -37 -144 -105z" />
<glyph unicode="&#x242;" horiz-adv-x="794" d="M94 950q23 20 53 35q37 18 68 29q37 12 78 18q53 8 78 8q70 0 131 -24q66 -27 104 -60q45 -39 69.5 -82t24.5 -83q0 -61 -20 -103q-23 -43 -51 -76q-20 -23 -62 -59q-35 -31 -53 -55q-16 -23 -27 -45q-16 -37 -18 -47q-2 -6 -6 -62q-2 -25 -2 -88v-98q0 -47 2 -66 q0 -8 1 -23.5t3 -23.5q4 -29 8 -45h-211q2 8 5 23.5t3 21.5q2 8 3 23.5t1 23.5q2 18 3 66q0 12 1 45t1 53q0 68 2 96q2 35 10 74q4 25 16 55q10 25 27 49q16 29 49 58l59 53q35 35 50 53q20 27 20 62q0 29 -12 53q-10 20 -37 39q-20 14 -53 24q-27 8 -62 9q-27 0 -53 -7 q-41 -10 -59 -16q-43 -18 -58 -27q-37 -25 -51 -40z" />
<glyph unicode="&#xf21e;" horiz-adv-x="794" d="M94 950q23 20 53 35q37 18 68 29q37 12 78 18q53 8 78 8q70 0 131 -24q66 -27 104 -60q45 -39 69.5 -82t24.5 -83q0 -61 -20 -103q-23 -43 -51 -76q-20 -23 -62 -59q-35 -31 -53 -55q-16 -23 -27 -45q-16 -37 -18 -47q-2 -6 -6 -62q-2 -25 -2 -88v-98q0 -47 2 -66 q0 -8 1 -23.5t3 -23.5q4 -29 8 -45h-211q2 8 5 23.5t3 21.5q2 8 3 23.5t1 23.5q2 18 3 66q0 12 1 45t1 53q0 68 2 96q2 35 10 74q4 25 16 55q10 25 27 49q16 29 49 58l59 53q35 35 50 53q20 27 20 62q0 29 -12 53q-10 20 -37 39q-20 14 -53 24q-27 8 -62 9q-27 0 -53 -7 q-41 -10 -59 -16q-43 -18 -58 -27q-37 -25 -51 -40z" />
<glyph unicode="&#x244;" horiz-adv-x="1593" d="M80 690v146h176v188q0 111 -4 262q-2 113 -12 174h204v-624h686v624h205q-10 -61 -12 -170q-2 -74 -2 -266v-188h174v-146h-174v-176q0 -117 -33 -221q-29 -94 -98 -170q-61 -68 -166 -109q-98 -39 -233 -39q-139 0 -238 39q-106 43 -168 109q-63 70 -98 170 q-31 90 -31 221v176h-176zM444 559q0 -96 19 -176q18 -84 55 -133q39 -53 107 -86q59 -29 166 -29q102 0 161 29q65 31 105 86q37 49 55 133q18 80 18 176v131h-686v-131z" />
<glyph unicode="&#xf218;" horiz-adv-x="1593" d="M80 690v146h176v188q0 111 -4 262q-2 113 -12 174h204v-624h686v624h205q-10 -61 -12 -170q-2 -74 -2 -266v-188h174v-146h-174v-176q0 -117 -33 -221q-29 -94 -98 -170q-61 -68 -166 -109q-98 -39 -233 -39q-139 0 -238 39q-106 43 -168 109q-63 70 -98 170 q-31 90 -31 221v176h-176zM444 559q0 -96 19 -176q18 -84 55 -133q39 -53 107 -86q59 -29 166 -29q102 0 161 29q65 31 105 86q37 49 55 133q18 80 18 176v131h-686v-131z" />
<glyph unicode="&#x245;" horiz-adv-x="1374" d="M41 0l25 63l28 78l16.5 46.5l18.5 50.5l45 127l391 1095h226l385 -1095l45 -127l36 -97q6 -18 13.5 -38.5t15.5 -39.5l29 -63h-215l-422 1266l-422 -1266h-215z" />
<glyph unicode="&#xf219;" horiz-adv-x="1374" d="M41 0l25 63l28 78l16.5 46.5l18.5 50.5l45 127l391 1095h226l385 -1095l45 -127l36 -97q6 -18 13.5 -38.5t15.5 -39.5l29 -63h-215l-422 1266l-422 -1266h-215z" />
<glyph unicode="&#x24a;" horiz-adv-x="1396" d="M94 639q0 104 17 215q14 96 51 201q31 88 86 172q47 74 129 137q72 57 172 88q104 33 221 33q72 0 121 -8q53 -8 106 -25q23 -6 103 -35l110 -37v-1460q0 -57 14.5 -98t37.5 -70q18 -25 51 -39q27 -12 57 -12q51 0 86 12q37 12 84 47l45 -159q-49 -35 -100 -52 q-59 -18 -119 -18q-86 0 -147 27q-66 29 -111 82t-70 135q-23 74 -22 184v242q-53 -63 -113 -109q-61 -47 -110 -69q-57 -25 -107 -37q-43 -10 -100 -11q-98 0 -189 48q-86 45 -155 133q-66 84 -107 209q-41 127 -41 274zM285 711q0 -137 26 -250q25 -104 68 -172 q41 -66 102 -101q57 -33 123 -32q53 0 103 20q63 27 108 64q57 47 105 102q57 68 96 137v766l-38 12.5l-32 10.5q-25 8 -74 20q-37 9 -73 12q-49 4 -70 5q-77 0 -141 -25q-59 -23 -113 -70q-47 -41 -86 -102q-31 -47 -59 -125q-16 -45 -33 -135q-12 -69 -12 -137z" />
<glyph unicode="&#xf212;" horiz-adv-x="1396" d="M94 639q0 104 17 215q14 96 51 201q31 88 86 172q47 74 129 137q72 57 172 88q104 33 221 33q72 0 121 -8q53 -8 106 -25q23 -6 103 -35l110 -37v-1460q0 -57 14.5 -98t37.5 -70q18 -25 51 -39q27 -12 57 -12q51 0 86 12q37 12 84 47l45 -159q-49 -35 -100 -52 q-59 -18 -119 -18q-86 0 -147 27q-66 29 -111 82t-70 135q-23 74 -22 184v242q-53 -63 -113 -109q-61 -47 -110 -69q-57 -25 -107 -37q-43 -10 -100 -11q-98 0 -189 48q-86 45 -155 133q-66 84 -107 209q-41 127 -41 274zM285 711q0 -137 26 -250q25 -104 68 -172 q41 -66 102 -101q57 -33 123 -32q53 0 103 20q63 27 108 64q57 47 105 102q57 68 96 137v766l-38 12.5l-32 10.5q-25 8 -74 20q-37 9 -73 12q-49 4 -70 5q-77 0 -141 -25q-59 -23 -113 -70q-47 -41 -86 -102q-31 -47 -59 -125q-16 -45 -33 -135q-12 -69 -12 -137z" />
<glyph unicode="&#x24b;" horiz-adv-x="1189" d="M104 434q0 119 31 225q33 113 92 193q63 86 162 137q96 51 236 51q90 0 182 -24q102 -27 174 -51v-1020q0 -66 6 -95q10 -45 27 -75q18 -35 43 -51q29 -18 63 -19q31 0 66 12q37 14 59 33l45 -156q-15 -12 -43 -24q-23 -10 -57 -21q-20 -6 -62 -14q-20 -4 -59 -4 q-61 0 -106 23q-53 27 -88 73.5t-57.5 120.5t-22.5 166v225q-72 -86 -150 -127q-72 -37 -139 -37q-74 0 -141 27q-70 27 -129 84q-55 53 -95 143q-37 86 -37 205zM291 485q0 -96 20 -157q25 -72 54 -107q33 -39 73.5 -57.5t81.5 -18.5q70 0 142 56q70 53 133 164v464 q-37 14 -101 29q-55 12 -98 12q-82 0 -141 -34q-57 -33 -95 -88q-33 -49 -53 -123q-16 -60 -16 -140z" />
<glyph unicode="&#xf211;" horiz-adv-x="1189" d="M104 434q0 119 31 225q33 113 92 193q63 86 162 137q96 51 236 51q90 0 182 -24q102 -27 174 -51v-1020q0 -66 6 -95q10 -45 27 -75q18 -35 43 -51q29 -18 63 -19q31 0 66 12q37 14 59 33l45 -156q-15 -12 -43 -24q-23 -10 -57 -21q-20 -6 -62 -14q-20 -4 -59 -4 q-61 0 -106 23q-53 27 -88 73.5t-57.5 120.5t-22.5 166v225q-72 -86 -150 -127q-72 -37 -139 -37q-74 0 -141 27q-70 27 -129 84q-55 53 -95 143q-37 86 -37 205zM291 485q0 -96 20 -157q25 -72 54 -107q33 -39 73.5 -57.5t81.5 -18.5q70 0 142 56q70 53 133 164v464 q-37 14 -101 29q-55 12 -98 12q-82 0 -141 -34q-57 -33 -95 -88q-33 -49 -53 -123q-16 -60 -16 -140z" />
<glyph unicode="&#x251;" horiz-adv-x="1148" d="M104 410q0 109 27 208q23 86 70 166q41 66 82 113t96 80t117 47q70 16 139 16q37 0 84 -6q68 -8 96 -14q45 -8 96 -25l88 -30v-435q0 -182 23 -317q23 -139 53 -213h-176l-12 37q-10 25 -19 51q-12 41 -18 63.5t-14 67.5q-35 -43 -84 -92q-57 -57 -90 -80 q-53 -37 -101 -53q-53 -18 -106 -19q-66 0 -125 27q-66 31 -113 82q-55 61 -82 135q-31 85 -31 191zM291 461q0 -88 14 -143.5t41 -98.5q20 -35 60 -55q33 -18 63 -19q43 0 92 25q47 23 96 70q43 41 91 100q39 49 67 115v374l-39 15q-33 8 -51 12q-35 8 -63 10q-45 4 -66 4 t-66 -8q-33 -6 -63.5 -24.5t-60.5 -49.5q-35 -35 -56 -73q-27 -45 -43 -115q-16 -71 -16 -139z" />
<glyph unicode="&#x253;" horiz-adv-x="1153" d="M145 66v1034q0 129 27 223q29 102 82 164q55 65 141 98q88 35 209 35q57 0 127 -16q76 -18 139 -60l-79 -139q-51 31 -101 43q-47 12 -100 12q-66 0 -117 -22q-49 -20 -82 -67.5t-47 -102.5q-14 -57 -14 -138v-305q23 31 76 84q41 41 88 70q49 31 104 45q59 16 117 16 q76 0 139 -36q61 -35 109 -105q49 -72 71 -158q27 -100 27 -200q0 -125 -35 -233.5t-98 -180.5q-63 -74 -152 -113q-92 -41 -201 -41q-68 0 -118 9q-45 6 -111 22q-16 4 -102 31q-27 11 -99 31zM330 184q37 -15 67 -24q41 -12 60 -17q35 -8 57 -10q37 -4 61 -4q63 0 121 29 q59 29 97 75q43 53 63 119q25 80 25 154q0 78 -17 149q-14 66 -43 113q-29 49 -69 72q-43 25 -97 24q-51 0 -94 -20q-51 -25 -90 -58q-45 -39 -80 -88q-37 -53 -61 -112v-402z" />
<glyph unicode="&#x254;" horiz-adv-x="993" d="M94 166l117 125q25 -41 41 -60q29 -31 53 -49q23 -16 64 -30q33 -12 71 -13q47 0 97 25q45 23 86 69q39 45 63.5 117t24.5 164q0 84 -23 156q-23 74 -59 114q-41 47 -92 68q-57 23 -121 22q-76 0 -135 -28q-61 -29 -136 -96l-34 180q76 57 155 82q90 29 178 28 q96 0 189 -32q84 -29 143 -97q59 -66 92 -157q31 -86 31 -219.5t-33 -233.5q-33 -102 -94 -176q-59 -70 -145 -111q-84 -39 -187 -39q-66 0 -116 15q-57 16 -101 39q-35 18 -78 61q-31 31 -51 76z" />
<glyph unicode="&#x256;" horiz-adv-x="1206" d="M104 461q0 132 37 239q37 106 100.5 182t151.5 117t187 41q23 0 67 -8q34 -6 68 -18q45 -16 67 -27q25 -12 64 -33v281q0 121 -6 211q-6 94 -21 153h211v-1654q0 -55 8 -95q10 -51 25 -73q23 -37 43 -51q29 -18 63 -19q29 0 66 10q33 8 59 33l43 -156q-10 -8 -43 -24 q-20 -10 -55 -21q-20 -6 -61 -14q-20 -4 -58 -4q-61 0 -106 23q-53 27 -88 73q-39 51 -60 121q-20 68 -20 166v270q-31 -43 -74 -90q-35 -39 -78 -65q-31 -20 -88 -39q-43 -14 -100 -15q-90 0 -166 35q-78 35 -127 96q-52 65 -80 154q-29 92 -29 201zM291 489 q0 -174 59.5 -264t190.5 -90q41 0 90 23q43 20 86 59q33 31 74 86q33 45 55 96v396l-70 34q-18 8 -63 23q-41 12 -64 14q-41 4 -69 4q-51 0 -109 -26q-49 -23 -92 -76q-43 -51 -66 -119q-22 -66 -22 -160z" />
<glyph unicode="&#x257;" horiz-adv-x="1304" d="M104 461q0 132 37 239q37 106 100.5 182t151.5 117t187 41q23 0 67 -8q34 -6 68 -18q45 -16 67 -27q25 -12 64 -33v256q0 96 24.5 174t69.5 129q47 53 108.5 80t141.5 27q58 0 117 -18q57 -18 102 -52l-45 -149q-37 27 -84 43q-49 16 -90 16q-80 0 -119 -55 q-41 -57 -41 -156v-719q0 -195 21 -317q18 -117 55 -213h-180q-8 18 -27 78q-20 70 -29 106q-70 -98 -163 -155q-88 -53 -201 -54q-90 0 -166 35q-78 35 -127 96q-52 65 -80 154q-29 92 -29 201zM291 489q0 -174 59.5 -264t190.5 -90q41 0 90 23q43 20 86 59q33 31 74 86 q33 45 55 96v396l-70 34q-18 8 -63 23q-41 12 -64 14q-41 4 -69 4q-51 0 -109 -26q-49 -23 -92 -76q-43 -51 -66 -119q-22 -66 -22 -160z" />
<glyph unicode="&#x259;" horiz-adv-x="1077" d="M100 451v36v39h699q-4 86 -27 148q-25 63 -67 106q-49 49 -101 68q-61 23 -127 22q-96 0 -182 -30q-84 -31 -168 -92l-18 163q86 51 96 56q57 27 94 39q31 10 96 22q43 8 109 8q98 0 182 -32q94 -37 154 -97q65 -65 104 -159q39 -92 39 -220q0 -121 -29 -225 q-27 -98 -88 -176q-57 -72 -147 -113q-92 -41 -207 -41q-123 0 -205 41q-78 39 -125 109q-45 66 -63 153q-19 87 -19 175zM285 387q0 -129 61.5 -198.5t177.5 -69.5q65 0 111 18q47 18 78 53q33 37 51 84q20 53 29 113h-508z" />
<glyph unicode="&#x25b;" horiz-adv-x="968" d="M90 279q0 51 21 92q23 45 53 75q34 34 80 55.5t98 30.5q-39 12 -78 37q-41 27 -61 54q-23 29 -39 63q-14 31 -14 68q0 51 18 100q16 45 63 92q37 37 119 68q72 27 180 26q113 0 187 -20.5t135 -58.5l-35 -168q-61 45 -147 73q-74 25 -146 25q-53 0 -90 -12 q-31 -10 -57 -33q-23 -20 -33 -45q-10 -27 -10 -51q0 -37 26 -68q25 -29 70 -47q43 -18 102 -25q78 -8 125 -8v-139q-55 0 -84 -2q-57 -4 -86 -8q-53 -8 -81 -17q-37 -10 -66 -30q-29 -18 -47 -48q-18 -27 -19 -65q0 -43 23 -76q23 -31 57 -49q41 -20 82 -29q51 -10 99 -10 q27 0 79 8q23 4 78 21q35 10 80 35q2 0 36 18t52 29l21 -164q-57 -31 -103 -47q-57 -20 -92 -31q-46 -12 -92 -18q-31 -4 -94 -5q-113 0 -187 27q-76 27 -127 72q-49 43 -73 98q-23 52 -23 107z" />
<glyph unicode="&#x263;" horiz-adv-x="1169" d="M20 1020h209l70 -127l90 -166l100 -182l97 -174l57 106l62 109l59 110l55 101l121 223h211q-12 -23 -25.5 -46.5l-25.5 -45.5l-56 -99l-22 -43.5t-27 -48.5l-41 -71l-47 -84l-63 -109l-72 -121l-78 -127l-3 -6l-3 -6q0 -2 -2 -5t-4 -5l78 -131q43 -68 65 -111 q35 -66 45 -94q16 -45 17 -86q0 -59 -29 -110.5t-70 -86.5q-45 -39 -96 -55q-55 -18 -106 -18q-57 0 -111 18q-51 18 -94 55q-39 35 -66 86q-27 53 -26 111q0 37 16 86q16 51 43 100q33 61 64 111l73 121q-8 10 -20 30l-76 127l-70 121l-59 107l-45 82l-41 71l-26.5 48.5 l-22.5 43.5l-55 99zM461 -211q0 -33 10 -53q14 -29 29 -43q20 -20 41 -29q18 -8 45 -8q29 0 47 8q23 8 41 29q16 16 26.5 42.5t10.5 53.5q0 47 -37 113q-41 70 -92 145q-49 -76 -86 -145q-35 -66 -35 -113z" />
<glyph unicode="&#x268;" horiz-adv-x="784" d="M80 475v146h219q0 158 -2 227q-3 104 -12 172h200v-399h220v-146h-220q0 -14 1 -52t1 -61q0 -43 5 -133q0 -23 1 -65.5t3 -63.5q2 -49 10 -100h-207v475h-219zM264 1346q0 25 10.5 51t26.5 43q23 23 41 30q25 10 49 11q27 0 53 -11q12 -4 39 -30q16 -16 26.5 -43 t10.5 -51q0 -27 -10 -53.5t-27 -43.5q-23 -23 -39 -28q-27 -10 -53 -11q-25 0 -49 11q-23 8 -41 28q-16 16 -26.5 43t-10.5 54z" />
<glyph unicode="&#x269;" horiz-adv-x="790" d="M156 1020h198v-639q0 -63 8 -105q8 -43 29 -75q18 -29 49 -45q33 -16 74 -17q49 0 98 27q47 25 99 82l20 -178q-63 -47 -133 -72q-63 -23 -113 -23q-66 0 -127 23q-55 20 -100 65q-47 47 -65 99q-23 61 -23 129v239v144q0 25 -1 69.5t-1 65.5q0 43 -4 117q-4 63 -8 94z " />
</font>
</defs>
</svg>
